<mxfile host="app.diagrams.net" modified="2022-09-27T09:04:04.003Z" agent="5.0 (Macintosh; Intel Mac OS X 10_15_7) AppleWebKit/537.36 (KHTML, like Gecko) Chrome/105.0.0.0 Safari/537.36" etag="drTCKu1jfRphwVfDKmaP" version="20.2.3" type="github" pages="4">
  <diagram id="FGJa4D7qLDVqS8jDIZfD" name="Page-1">
    <mxGraphModel dx="2066" dy="1075" grid="1" gridSize="10" guides="1" tooltips="1" connect="1" arrows="1" fold="1" page="1" pageScale="1" pageWidth="827" pageHeight="1169" math="0" shadow="0">
      <root>
        <mxCell id="0" />
        <mxCell id="1" parent="0" />
        <mxCell id="ch1ERGyDjhr7xlRFQsl--4" value="" style="rounded=0;whiteSpace=wrap;html=1;fillColor=#ffe6cc;strokeColor=#d79b00;" parent="1" vertex="1">
          <mxGeometry x="90" y="100" width="890" height="120" as="geometry" />
        </mxCell>
        <mxCell id="ch1ERGyDjhr7xlRFQsl--1" value="" style="shape=image;verticalLabelPosition=bottom;labelBackgroundColor=default;verticalAlign=top;aspect=fixed;imageAspect=0;image=data:image/png,iVBORw0KGgoAAAANSUhEUgAAALgAAACKCAYAAAAZgYBhAAAK22lDQ1BJQ0MgUHJvZmlsZQAASImVlwdUU9kWhs+96SGhJBDphN6RTgApoYciSAdRCUkgocSQEETEzuAIjgUVEVQEHaUoKI6AjAWxYBsUe58gg4I6DhZsqMwNPMLMvPXeW2+vdXK+tbPPPnufe0/WHwDIIWyRKBtWBSBHmCeODvajJyYl03FPARbgARHoA3c2RyJiRkWFA8Sm5r/b+9sAks83bOW5/v37/2oULk/CAQBKQTiNK+HkINyFjOcckTgPANQBxG+8KE8k52sIq4uRAhH+Tc4Zk/xRzmkTjCZNxMRG+yNMBwBPYrPFGQCQbBA/PZ+TgeQhyXuwF3IFQoSLEPbm8NlchI8jbJOTs1DOQwhbIPEiAMjI6QBG2l9yZvwtf5oiP5udoeDJviYMHyCQiLLZi//Po/nflpMtndrDDBkkvjgkWr4fcn53sxaGKViYNjtyigXcyZrkzJeGxE0xR+KfPMVcdkCYYm327PApThcEsRR58lixU8yTBMZMsXhhtGKvdLE/c4rZ4ol9iQjLpFlxCj+fx1LkL+THJkxxviB+9hRLsmLCpmP8FX6xNFpRP08Y7De9b5Ci9xzJX/oVsBRr8/ixIYre2dP184TM6ZySREVtXF5A4HRMnCJelOen2EuUHaWI52UHK/yS/BjF2jzk5ZxeG6U4w0x2aNQUAwGIAGzAoatMEQB5vII8eSP+C0WLxYIMfh6didw2Hp0l5NjZ0B3tHR0BkN/dydfhLW3iTkK0S9O+NcgZ+uSMj48fm/YFPwbgsA7yWHZP+8wPAqBSAMCFGxypOH/Sh5Z/YJCnpwLUgRbyu2AMLIAtcASuwBP4gkAQCiJBLEgC85Fa+SAHiMEiUARWghJQBjaCraAK1IA9oB4cBK2gHRwHp8F5cBlcA7fAAyADg+AFGAHvwRgEQTiIDFEhLcgAMoWsIUeIAXlDgVA4FA0lQalQBiSEpFARtBoqg8qhKqgWaoAOQ8eg09BFqA+6B/VDw9Ab6DOMgkmwOqwHm8EzYQbMhMPgWHgenAHnwoVwMbweroTr4ANwG3wavgzfgmXwC3gUBVBKKBrKEGWLYqD8UZGoZFQ6SoxahipFVaDqUM2oTlQP6gZKhnqJ+oTGoqloOtoW7YkOQcehOehc9DL0OnQVuh7dhj6LvoHuR4+gv2HIGF2MNcYDw8IkYjIwizAlmArMPsxRzDnMLcwg5j0Wi6VhzbFu2BBsEjYTuwS7DrsT24LtwvZhB7CjOBxOC2eN88JF4ti4PFwJbjvuAO4U7jpuEPcRr4Q3wDvig/DJeCF+Fb4C34g/ib+Of4YfI6gSTAkehEgCl7CYsIGwl9BJuEoYJIwR1YjmRC9iLDGTuJJYSWwmniM+JL5VUlIyUnJXmqMkUFqhVKl0SOmCUr/SJxKFZEXyJ6WQpKT1pP2kLtI90lsymWxG9iUnk/PI68kN5DPkx+SPylRlO2WWMld5uXK1cpvydeVXKgQVUxWmynyVQpUKlSMqV1VeqhJUzVT9Vdmqy1SrVY+p3lEdVaOqOahFquWorVNrVLuoNkTBUcwogRQupZiyh3KGMkBFUY2p/lQOdTV1L/UcdVAdq26uzlLPVC9TP6jeqz6iQdFw1ojXKNCo1jihIaOhaGY0Fi2btoHWSrtN+zxDbwZzBm/G2hnNM67P+KCpo+mrydMs1WzRvKX5WYuuFaiVpbVJq13rkTZa20p7jvYi7V3a57Rf6qjreOpwdEp1WnXu68K6VrrRukt09+he0R3V09cL1hPpbdc7o/dSn6bvq5+pv0X/pP6wAdXA20BgsMXglMFzugadSc+mV9LP0kcMdQ1DDKWGtYa9hmNG5kZxRquMWoweGRONGcbpxluMu41HTAxMIkyKTJpM7psSTBmmfNNtpj2mH8zMzRLM1pi1mw2Za5qzzAvNm8wfWpAtfCxyLeosblpiLRmWWZY7La9ZwVYuVnyraqur1rC1q7XAeqd1nw3Gxt1GaFNnc8eWZMu0zbdtsu23o9mF262ya7d7NdNkZvLMTTN7Zn6zd7HPtt9r/8CB4hDqsMqh0+GNo5Ujx7Ha8aYT2SnIablTh9NrZ2tnnvMu57suVJcIlzUu3S5fXd1cxa7NrsNuJm6pbjvc7jDUGVGMdYwL7hh3P/fl7sfdP3m4euR5tHr84WnrmeXZ6Dk0y3wWb9beWQNeRl5sr1ovmTfdO9V7t7fMx9CH7VPn88TX2Jfru8/3GdOSmck8wHzlZ+8n9jvq98Hfw3+pf1cAKiA4oDSgN5ASGBdYFfg4yCgoI6gpaCTYJXhJcFcIJiQsZFPIHZYei8NqYI2EuoUuDT0bRgqLCasKexJuFS4O74yAI0IjNkc8nG06Wzi7PRJEsiI3Rz6KMo/Kjfp5DnZO1JzqOU+jHaKLontiqDELYhpj3sf6xW6IfRBnESeN645XiU+Jb4j/kBCQUJ4gS5yZuDTxcpJ2kiCpIxmXHJ+8L3l0buDcrXMHU1xSSlJuzzOfVzDv4nzt+dnzTyxQWcBecCQVk5qQ2pj6hR3JrmOPprHSdqSNcPw52zgvuL7cLdxhnhevnPcs3Su9PH0owytjc8Yw34dfwX8p8BdUCV5nhmTWZH7IiszanzWenZDdkoPPSc05JqQIs4RnF+ovLFjYJ7IWlYhkuR65W3NHxGHifRJIMk/SkaeOiKQrUgvpd9L+fO/86vyPi+IXHSlQKxAWXFlstXjt4meFQYU/LkEv4SzpLjIsWlnUv5S5tHYZtCxtWfdy4+XFywdXBK+oX0lcmbXyl1X2q8pXvVudsLqzWK94RfHAd8HfNZUol4hL7qzxXFPzPfp7wfe9a53Wbl/7rZRbeqnMvqyi7Ms6zrpLPzj8UPnD+Pr09b0bXDfs2ojdKNx4e5PPpvpytfLC8oHNEZvbttC3lG55t3XB1osVzhU124jbpNtkleGVHdtNtm/c/qWKX3Wr2q+6ZYfujrU7Puzk7ry+y3dXc41eTVnN592C3Xdrg2vb6szqKvZg9+Tvebo3fm/Pj4wfG/Zp7yvb93W/cL+sPrr+bINbQ0OjbuOGJrhJ2jR8IOXAtYMBBzuabZtrW2gtZYfAIemh54dTD99uDWvtPsI40vyT6U87jlKPlrZBbYvbRtr57bKOpI6+Y6HHujs9O4/+bPfz/uOGx6tPaJzYcJJ4svjk+KnCU6Ndoq6XpzNOD3Qv6H5wJvHMzbNzzvaeCzt34XzQ+TM9zJ5TF7wuHL/ocfHYJcal9suul9uuuFw5+ovLL0d7XXvbrrpd7bjmfq2zb1bfyes+10/fCLhx/ibr5uVbs2/13Y67ffdOyh3ZXe7doXvZ917fz78/9mDFQ8zD0keqjyoe6z6u+9Xy1xaZq+xEf0D/lScxTx4McAZe/Cb57ctg8VPy04pnBs8ahhyHjg8HDV97Pvf54AvRi7GXJb+r/b7jlcWrn/7w/ePKSOLI4Gvx6/E3695qvd3/zvld92jU6OP3Oe/HPpR+1PpY/4nxqedzwudnY4u+4L5UfrX82vkt7NvDcUQ1iNhi9oQUQCEDTk8H4M1+RBsnAUBFdDlx7qS2njBo8v/ABIH/xJP6e8JcAWhGJrksYnYB0IoMM18AlJEhl0SxvgB2clKMf5kk3clxMhcJUZaYj+Pjb/UAwHUC8FU8Pj62c3z8616k2HsAdOVOanq5YREt3+xk/bR1wT2K1QrwD5vU+3/p8Z8zkFfgDP45/wkcExr2Apx73gAAADhlWElmTU0AKgAAAAgAAYdpAAQAAAABAAAAGgAAAAAAAqACAAQAAAABAAAAuKADAAQAAAABAAAAigAAAAD+FNr1AAA8pklEQVR4Ae19CXxdxXnv3KurzbJk2ZZXCSNssxgHbLYAKTGiCUkoyzOE5AWyYJIfgfxeCklJSvvra7G7vNc0CSRpXlOStpi2j1CWwAukvOCAl8ADzGKzGHmVV3mTbG3WcqW7vP//O/MdjY7OvZLBtOjoDoxm++Y7c2b+880338y5NqbgRuqBWDabjYHID7WCzTcaar4NWSfMuflu3KcN4ec+36crREbugfjIJOOCQoEmQMIbu6GJwTFPQ8TjBKGXbeIrVqxQevan+tjy5cs1LvQWuKTVfHfS+HmWcVzrox6qmJg+h/m2TJ/LsOAKPTCkBxQUChIB2Gc+85kielAmGhoaEuedd14x4vQJ69245jEsVlrWc2k1nzQ2X8vdUMs0FJ5Krzwc3gnbTmm3I/V10qBqwY3XHhBQq4REJwigERJcperr6urKES/XkPF8Xuk0VFqmNc+N19fXlwVp3HLGZ8+ePcGlQbzM1itduHBhCT3yZDIiLNJVwgE8sgtuPPWASDgLbgK7mCCZP39+6aFDhz7R19f343Q6/QYA0gb/QXVtqVRqLdvKNhPwfAcr5ROu+oIX0JVqPI3x+HxXDrYCm0u9lX5l7e3tX81kMrs+qGgeqV1sO97hFowqVwSR6AhVmo/PwR5nb+3q2SK18f5lr7322gIrrUfC0JgoJ9BfffXVM/BuVLOobvFdqaMXpDg6IZIOyPT1bbspo4QrO3r06K0ARPuYQO5xNJLvdPjw4f9KlQvvqRtWseJEcoDH+0sR4KqWoC8I7vKDBw9+7jgwMyZJW1pabuUmVTeheO8CyCM6GSjBi7gB42bs+eefXxhFyR2chXzHdevWnYl3p16u6sq4U1Wi/sKinmCA41iyi7Zv314MnXtTPB6fg7zcLps0meQWk0ntNybTarLpzgAt2JIzzl+kA+UcRv5IHnNjLKTzjRhZyfWybZmU8w/prZNDHT+luQhRJ1GDN6kysbJ6rENUtfM7WFreKi4u/gioUtZnOBFwkOQ0ID+PsV7KDUikHfRuoiUOcBe1trZ+cSRwZ/qbzEDHv5p07/Mmm2oKATe4EYQZeITACzMkS6LSmxkvX2CU8eiFHHRSjiZJNWYyg6H1hDrzbBo2TS/O/IFWY5JNxrQ/a8zhfzGmd7Nwy/UnkUicBTPiF1Auh0EM9fg1V52o5XPwo+r4bvS0JNCXQHq/lQ/g6Z7nTbrvTZCiovYMwaaOeU5aSJy0kAXSIiu1ni0Lq+fL1AAtH8grATp5BPB+e0A88QJjKuFzOKgqe4qKis5CcT98ChM++/DDD2fGixSPtASHrVslV1FjY+OSfODO9L5iwU0UwvuSUxFr8xRIKFfp7dMKCkmnRDZqpf0QOuUfDJXWbwN4II8TYAi4+Qy2oXM9/PODDwzE+M5bt279KLLFZPjII4/IhAmQRTYZWYDDchJbs2aNDlwcFoUrNREMM8nNUEnWDwUQiQSrkJICQi/tg1SZuGAW0PkVTQzaiQ9KpdPQkslkQJ7/CD9CgsFne5MJWawPvkPCzjeM6YPqksPNnDnzahTFscmWCe/zykEfpeyoApymQY6TSvA4NltcpkNdpme9BxiWEkDqJa16MxOOExpbRknKNJ3WZR4TmvZKvb8ipS2tnw9CBa5UQoFPRyZwwsth6D70CPRybI7DXEVFBTea8V27dsl4663EMNqo5UUV4MZuLs2MGTME5CUlJR8KG7xM32ZvIwnc+HhRQh9QXhkln9B4fzwqiVPSIunnWxBqGSmZ5asfNoN6B2go5VUFEV2ckp9qCcgkTT6sqxPA52XpJA1wHwvfdELfnlNdXU12dBp6qYj/5ZXMSDocdAg+YEXg+9F4MCnsRWk1EVOeDDuQQrCIUxwgZJ6AFSGzfRoScgPoZQgYuTtVWskmKi0PktMJPy/qpZlh69mol3brCjNLRvBrQxzefTBrVi5yGHtRvjvuqsSnTZsWnzRpElc3zCkxFw6jjVpGJCW41b8VKiLBcw6c2LhBClAKQEkoSUprsrBliBFSLg2SKCYI1ZEWcfWICIsMaEgn+UpjiVw1ROsJOf6wnu9RiHg2zULwFYnu5clDyD95WBsSFsY46WEuldcA6MNoIpcXVYAbWFB0BGVAc41clrZlAouOaNS4lyNpH9ROntD64ESBxgWQBB498z1AenHkpZmPPJYzzmdK2vKQuC3nIZHlGyuai/PIS0CEg0nhafmSRts90IHynE76ARtN9g2q4LnenM1ZIQoFkVNRvJU3Zrq6umRAJ0+eHGtra8s9VhxnUsqAIyLjLn9sHeZpWgg9Gs0ilUpnidtqZKTgUxoJyQNOeSqfbNrLH1JGHnETKzkNW8SZiKdMLN0DtvbkU3gA6MISf4bNxEGWNhbDRpNeTYX69GGEUcmInAS3S28WV2Fl8ADu/INIkJBCwTgEeACNpkUig1AkqpWeKoWRZL6oDaT381FAaUu1gtJawrSnZgiNV061I5tmPkBOn8qYGLzwKQa4iwBucThxR72Y0KFc2o0/2kamcztOA6HAvRzRw3OTRqckcgC3g8jBpDeU4AzzOgJEht6SKlAIJsbFo4yhD14btypFDGHMAtikAEQLVILVAzZDMPBpCGbkSbmCGuUCbACefBPz4BXcth3yPNBpm9kmevLC//nclClTpLiysjJ79913s1bkXeRUlOCIQaLnH0gtBZknCL0MUQKQocWMxFxVhBkEuwDNUnFC9HcZ09NqYkmEqT4PdCymL6k0pmo2Zh7rcRLAtCdVMXni+PQyXgaNpAjPQbp0NujnDH2dTK8HZG4Q8T8Soq4wHotBVrE9o3A4AEO3CAP+GV2lUfD9IJJEEeAychw4bKiy1DcnTpyYu+/94QU4iRQ/TXGIHA/1Xr7GCSQBE0L8H+veb+LHdppY5y4P2FIOXrKhZEvgJ0wzZvoCRAB6d1LIpKEEB3ihb5vEZAF6bBKkd9AlYQakBI+DTttCYDM9gmMf4CMPpWKL2E8jyHwlH7thFAEug0c9E3o4BzF27NgxhuFOqPGHIcHGQIDtxYgjT+KijGRURYgNqATxY1tNvGurifUe8KBCYMedR5EnXc3pxsyCfZrlAm7kCVCl1MvnQoPnx5Kw20+/BnzKbaENsLk0PXs9MGcwIQhq2WxS90fbRKo7zx5a26APJAdXFgyuDpuGhgZjT3sDlNFK5u6Rsf2efK8iDGbxvn37iiG9SmFVCTUSD+z7kfemrCFSEREBoaLTA/YgOJHfd8Qk2l8ysT4Am46k9Cqx3XAGbgjMONsDMYFIXVn4I2Sak4qATXMDiZCev05x0k0IrUsB3EdfQhmkP4HNSSSA1jhCOuYv+AMvHvgLlWQ6sniWP2A9Hhx9CW57Bq8aIUcbLyUUwG24scorweW9gU6RrkgI6JAmCAWQCIk5uyGMt79lilsfN7E4JG0Zuq+IYLOdx1DjzKrEBrH2XNBgoYRujUoWmEqIEOy9SpqHZBr6e9d2Y6D6mO4DJnvoBVwzOYa5YNskIeOgFY84+dDncAE1Te/q5KCOTnYUVRQIN0EZ/2Shd8YCgztk9Gj9oF2ZgBYtgcCmE8lK4MADUHJfpON1U9SLm3sTAdRiALYfZWK9sHWIbqlvw7mXYrNYAbkJycvWCBqVhmnr9JlMkhV8dvfTqDtL3iUmUpv5qIsJlcUdMnnFONBNvV2dNkPTecLxoJ7w9Z3eydMbY69I4IRmSwgJnnvorQQUWwuAJqEvIVENE4Dmv1jba6aoayNAB5blADelt/Qe0Wg7iEBlnJOjDJvFMlx/KS71pLbQsDlCgIC0OTxoYgdeM+YIpLiaEUXtAV+211dzlJ0w91gjK8wF+sA2Ysh6E1ZtzOdFDuA8yQxKp3wSnCPIe9u+jk1AK6gJ7BTA1rnVFHVu8KYL9VzCYwB/6Ak8podMCmSUVqMcKm9PJ2ig4xD0uiqAv6g/1Ld5gqm6N/PJbABqcne7gDzb1+kdArHMrhZi2XEnB2oJ8NmO3C6udnCQyMRHmL9Gbl5jpiRyKgrUExk0WFGMnmbmHQ1f6qKaxAlE1CBgCaj+ThPvALjVAfCmF56A6yPoLK0CnGnJw58UgBpDKPxIy40kPeLiUSbgtmmCnZNB98OZARPb95LJnvIxPgS8II9Yj/AUHQWM+brIktWE7c/hOMkDZsIclNHKjhzAdXgAbkZjkFrZ/n5+jpjDEZh0DAkQgkXBB+kc79wGjMLExs0kSZMgGIBnHFj1pCpDZBD8MjGQ7kGdNA0WACX5ioqh4CawwcMHtwP0ZLcxLbtRjw71elpMrOsgDohmec/iZpVt5NqL4sE4E7ldQEVRQk6V/BWVcoyGUQQ4B41OBo4qCwbXywn7S7CI5Aa5AByhgBRhKm3i3du9Wgp+cgUeBVgKXIKXeRIyDt8BK0sPbveVYJMpdAS06xXkzLPxFCbibuj53JTyOeIQOfw2NrawyMQRBw+5bEVeFOWU4KTlM3zNQyrm+8M+ijy42QGR08HxThxpOhlAe5OQ8XAnwEUVAR9CqiXWywFOCiY7Ap54InAppenduJunQGedbc9DjYFEHgBwqa5QolNN8UPGKdXhYQY0O16FSkRwo654NBtR033YZKnPSzu8MsEzy8RbOsbzOEcHz0MVraIoSnCOkIDbhkznHnoAm5tM2s49yQ2EAuBiOemFakBg04lqr2yRVrAR0IyL9EacIevwicfajXnnWWPmXYQjeBzeyDNQKJPJhpTaR/Ya09rsgZ2PEN6IMKQTXmhLSb3kyaUuOaJHgWxeqZuDjhI+j3N0cKXKX0GpxnAYOYBTJaEdnEf1/FyNhz35HPeAdPwG0jtIQZwSHOa5WBJ3Nwgcf35YPDBPwIpQwIh8BbqkbRXG+3AK+fZzxlRMwX0UmA4TMBsyvxcrQy+k9rE2EFt62rn9OGiYtvx61kJNmZEyEy6Ya2ITyrx8tpP/8IRMPtKPvCDzqB7fqXID7j0r4n9H7pEx1gG0otBM6FhQsrAgWOSEvAxwIZYLAFSktty1RoJ68QDUBVFXQAQtwlNPSI+0elFPbB7jAn6khwAd6U5MlgPbjdmzyZi972AjCandxQlk67CexJkmf5vmRIKPFWVMclOz6fz3jSbbB6kvE4y0qEh6oUOdERwnvNM3I1CP/eLIAZxDAoBjxGFhs9I7hwXBGz0CmNQEioKZYCdYDa6wEngKZglJh7IherfNEz7khQjjdBpqhOmgF2AjX0IU8pkW2F6el2a19NFjpm/DTq+tSiP2ddZnxbyOE51s6DT0UhH9GzkVJWSccktvEnOYVQL6ACNgKcXRPQSzcHDwgOj+0iqzuWKq6SoqNpX9SfEXHMXdEZWkJPc9IowLcDXf5gVpJO2UUZKDZ6qnBBGvKcl39pmyxfOgqsBkqOpJEevkflXawTnRoaJw4ucmlKdE509UAc4BFKjQDs77KDmHTMGt0htp0cGZjlV5ktrWfn3qKWb19PnmyRkLTGeiGDp7CviH7gIJmuUhDcKGQztNQ/MOc/WerSaRiOPyHxZJaYltgcQJRm0hQgG+5uFhWsZ861M9/AXkQTew95ApmV+LNoKeIOd7SMVBGjcWMJWSmG/FMNIuqgDnoHEAY9ZykHMg3c2lpw4AUQQLJHc2gctOCLuKy8yfn7MU4D5VQJ2Ffp4FsGl5EQFqIcKHrJ5+snluWp35u/mLzH1rf2X2FU0wT8yaZ9ZXTjdFOOaf099jrm/ZZa491DQI5CFSH1wIauaJ9EbQXWIy/QkTx2jxGyPeR8904gMJtpNqiX+qyYq5nZoJ7V15EkYe5JEEOIBHUwoHkJiTCBOhjiAFUOT3RggYXm7CAQ9VlFgmbrZUn2X+YNHF5sAEXJzCVzdZK63lIwPUzRKNzON/TEt51uwvn2iu+uT1prsziS/XMjgIjQHgcag2FebVSTPMFTsh4YvikieThNhkawlsjTOE7zk0+EWSfGyhLyL7BryeSHHS5t9ScbLT696ET1NWUQ3z98jYfGs1E7L1+cFNCqoiADZB7oXIE/NcxjRDxfjy4o+YvSUJfEfcA8z3wvfBwDIAHKZATimOEKpKRqQ6JDtARwkvl6gA9vLKuEmIVQ9TAc/AL9CbUzuP4GwnizOdNHjh+QJsPNe2QULq/kin+4rwfQVOQx3HyZSYWolytt1rv1/XoQtGVYLjrrw+ceT+CTIZY+koSnAOHj9XY0inoZcK/mWpglv0cE967ye451eY9jh+i4QSXaCAP5Sw4jyJTfaU3CLFpQygJeggekWVQVhanjE9/VArUJ7B5DmtA7ZvskEav0jvxyWPVfE4keKIdzdjH+DAkNWKJpSaxBRIdbaXOj6fp1Ic5WFOb1TSDs6Pji2NvkxYlUjkRRHgOngMRx5AATcAIiAFeWyiyeJiVWdJ1lzdCSsFWHiGCpSBhmSAKkKmCWKti5CoRJpqCsuk3IZpXK1ND2DTCX7XHug1RRNPBV/wS+ADBtax7ZCru8wHeDNJPH9SuSnDzVvilw3hZcmSOZNM+lAz/imTchOfhjsqnAECcH11ZAWcbjKdPcno+ifAZ6wlowhwjkHMXpfNPeJ2pET/pkoClYDxDP8NHCRPhy5+xhELVgExTjYJPImjMkNe5SEwBexISog08rwJ4PFktkeH66+cFGWwfpR6E4CqDSeC8JP6BLtXFqtImwlTyI/PgiOdzNk+kz0Gj9PQ+JQZ3o0itkNmolAO+2PNhJLPTebVV1/N84JhdFHLiCLACSf3KDo/yIEZ+WwNtShF4yfXmhgsHt73kwCwfEdpQ0pKkch8hAdCAZwAz6YtSD0wWvDqQiJI54NY33qNCw9mWxBrPumGxPkc5oF3N476eZjFCYANqz4GXIY5leCBAvYNGxJZF0WA62DpwGmo+UNDggXAFklOKXgEhzXVkLCUzrx7jR/jMUU4ZJGPDXgbEMfkGR6VAxsU9awjICRbxGUCWLArdkgrSjXLrZcyW1fpGArkyJvsWE6Xo04bLnNJ+0FCfZxtzOO4yaSKwnso9HD6gDy1xnZR/h4Zw+/GZZgbKv50W967KASogpzDzY8N2nFzL0sw44rqAD4562vBxSjc704e8dKwpMC84fkMr7Fa74Ofhz+u6uHGLfh1IlD6WpVEQomT3tYROjaM7SQtQ5Ql8Uz+qKgUkSdIZLLlHjSrfwuBVU84jSLtoirBxYpCgPM+OADO4Q93AgwUqWRFmN3ysoktvBjXU3HFVSQpq1oWEvAPPOuIZLblknbjSmPppY4tF35OudQlHRyB7D9P45aWZfwgYvtOC3bmk9yWs36Iow6Of8ZFfmmX+xMAXGqFkEYqK6oA5+DpgUY2h/7pDaSPHwIEWfS44prduM6YOtz3mAF1RbiRXCNOKFEnrTQ+4AJlPpCRT4krMhSNEDL8ccs1riEn0wH8ftEBrCZURxIYPqnHtsG5cS9nyN/AL+36U3cIUcQSkQM4rBdy0INxitXb3ybMO2YEj6gFGG8BkqVO4ih8C66m7sDVVpxKmgr76Rlo5FBIVAfSuuB0n0SwMo0/AiUmLKb4nCHwEkKPllXoWE5PRzDjQpdpxx1yOgIbdnqPtyUkC2VDmoDjJKcOPmHCBLkui37SjspTK8BkDCYjB3DeB9ex44+9c0y4POd0+O2SWPdRaAXUeUFFiS7OAqcPQKe14iDKQcO7Kb4ZT7ANwItKYav5cGF9P2ELRxEQzGLTBi0PcdTTSlJEYNM2b9vGkI/QiVlFm3i4Yx9QB7d6OIUAmfhvG15r7OdSDETO2cETdHGTmU9FifHn1UDp3/GQcWe3WBAJ4DygxcSqQqDRugJP0AGAWabVE4ACRks3LN+hdemEn1NX0/pMDdkegl4mAUJ1fNtyfDGUw7l9YHVwUvIlI+2cHorOe2IDxZfh4AnIKb1wfA5zSIibfAoyPVKCnDHxABB/Ms33CmqCS4DpAhWSldKVnlf+VNKiTlbySct8XHlVwEvItNLbkPXpqYa4z2JcvYJbQrSWoKebcYYXBv7y3d1VjCZC20fSPwHySCWjDHAZPEhz2WTi36nfEzpytecATLB1y/eMhDa6RKQkQEmp6cYJMAGeBSNAGgNAYwJcm8dySQO8uDMugJY64CXSncAdrC80Ugd5pCeN0DEkLUKdJG57CG5ORQE3wgn45rPu3NBXTCaTmyDBXTDLZ32hxBHLjCTAMUZZ/EOwMqDQORkS5C+Gjh3uepuzrxOseIABlUpGVqCkVfXAAi1GYBN8vifwCUQb8oc5RUJbOsZ9EKNesVPX0vnAFp5KryH4Ch1DeJXkDAXkCE77XbY21PX19b3Nf7YEhfKPAjQ0jI/fBmdnsIei6FRayaDiBTONjY2/zvmiMxcYM/cSD+SQiFkAJ8sQoOI/KeKBi6Bk3IJTQkhcgpUSm1/4FOPEk1K42Ev7Ib+kZ5mWi6QmXYBeebNc+Quw+Qx4leYKcJ2Ip38cvyceLr35zlu2bPm/9t35L15k8Q/Car/k7JKoFHCdi5RTC8py/Gu+8ECFAVrw+1IVFaX4135fSSQSdTlfeMuzxmz+DU4oMf48LeTxNy0U9GplkTQ4sJzSUywYkBNIw+7m3XdirxJCGiIqTtMaar6GzJdKDJBgmioI4/Kj94gT3MxjmvH5mJhnXcmKoS6VSu3DP+N9QXd3dxI/F9GPn9LAEa1/IZetjLQjACLlqHPjhQgNOsbpMxjgTFNT0z2nnXbaPSwIdad/zLNEvAOQd+NYnuoAPz4mC/ltQoQCdrIU9HllZBb8TRIlYZmPdkZRQMDSaXwILfIV3HyGAJx5BDZCAToipfji/7zP4p9GweqTx/Gd0ScZWJMyADfNgnya+jw1o1FkezoaLxN4CyBCVDDoFfj3zSorS/DPmJRCH11VWlp6ZoB2eHLP68Y048d2YCM3bftRDkwQkAIN/GHPuXc/mC+FDFHIecY8BbOWCR1p4FhGnhr3YoN1ZHTIy/qJMAPyIti0ucacfD7WJuwf8jhKbxzPXwSSJNSSPvxT3inE6e2szVO5UPTB7gGoJwS4gHv27NkTsExXQ02Z8f3vf/8jsKh08DQoyo7veO+9917Md0Y/4JMJw+/eSrD5Zp/I1EFYcGO8BziYifr6eoo6fMRoauBnb9q06c4og5vvtn79+lvwrrPgp8Lz3XFzzBTbiY9owUWhB3wpjpeB0mrwabzBP1hpZhMAWMI7owZ0vtNbb731LbwjdBmZ0HxnvjtMNrKiUXoXJDg6ISqOIOdmuhR66MRJkyZNtst23V//9V9fgkOQfVEBOfYX7/Cd8K518FRNeHbPizhcwdgH7IsCuNEJkXAArkgrq3cWW1WFA86BpySvKysrO/mNN9749lgGOtu+YcOGb+N9Ti4vL6fkxjd3g+DG3RNVTcad9I6cmRAD6ztrMjSPPPIITzYzCP0yjeCn1RKLFi16COlHn3766YsQ/2RVVdUZAP6ZRUVF1F0/cA4byK6BgYF9sOu//Prrr6+68sorXwSwaRlJ9fb2DmCVSnV0dAxgQqemTp2anjt3rt4adG04H7j3ej8aNF6WK5XkMYCcG0/fw3yYgPkwgXvSRZD4RQAIl3H1BiZFfB2W9PsJ6RjSHIvYfffdd+bSpUtvmj59+lJmvFd3+PDhx1944YUnrrvuupfBS0Bpn591Qz4HbWC5eIA7g4magq1fzYAMM5DcKYJ74cKFvHtCcBcAjk6IqlOQxjHwcdyoi8N8WLR//34f7HhxxgXcAE0MYJc6Ns5+0bSxE0HocZhy+ymnnPJ1Erxbt3Pnzh8DjD9C/QxWjzT0aV/q2ue7ANV4BrcEM7hnQ+ktHu+ULikpyeBInmmdBNqsAsC1JyIaEqA+0BEnQJn2gQ1zeQxLfxEku4FkJ9j9DyYAJK0bg8SP9/T0sJ741tbW70IdwK2t43cHDhx4AMD8C9Sk5BWgYiPML24IXvmmlCFclu1iiLb5IEfaBTNBzTI3ZLvHHbjxzuPScbDp47r5RJwmNFoaaCuuoLUFIZFEj99OE09zm3geGiE+BdKTG1V+RsPNaj1A+NLxWmQwmZ5B/VMgpWn5mGl5TrHP4POq8KmZtqGqpqamkh75bGMFPqxmm9n2koaGBu6p/MmKOD9v0kmJZMGNmx5QCwtemFKaoCA4eDELV//El1mriwKIIT1tyvQTLfCmIE6rRe0NN9xwNlSXd0YLctJ+6UtfOpt1yQObW/IimAlePkOfWW7bom0ioNnOElpIENKLGdB5L2QV3HjvAV+aoyN0Yylgt9KQoElYEEnc5pfMnz+fACMAKU0nQ/JOhxSuHa1tnaY9a7MmuKdZiV1pJbKAF5tDriwy8dw22Dy2U6W1vgeyCq7QA7l7QIBCKehIQgUPwyGTAGlKTkpTSlza1gnyuu9973t5D5AU3JwQqDONh0+Wh6gaiAtw7bF63GkLn++3x8lHdsEVeuC998AQ4Ds6/DCQUzqHXQXgJShOAAtuPZDhRagyK6UJbgUxW+zGmS64Qg/8h/UAwUdAupKcG1DRyR966KErIGWHOOahnJJ7yFF6ANwoLrhCD/wn9wCQq9LVBbno5GgaQT6b13NxgPOPuIv9Dw8//PCnKLmpr6MsTC0hv4I7gT1Q6ND32JkEOZ1lQ6DTy4aUIezZRThhpN2cZPyyiDbrFEyRKfsBgti9KeZRXrBVo3MK7oPXAwS4mhv1Uhf1apr8KKlp/uO9bMZp2xad21pJOCFYt+AKPfCB7gF+5OyDHC0VMyI+9CWYaWWRgxl+XUQTo4K78AHCB3pMC40L9IBaWeLWXs7NJ4HuerFt0wJjwa3qTYBVIVnogQ9mDwjIHWmecA+N0GRRSewG9YP5BoVWFXpgND1AENNbsMshTQHYo+m5E0czbpZHAIv2afwCQ6z9xHXfyJzw3Hr8+OVS3NfeCOp2PJ/hCXf2/eQdwZzP+Q99zxP+QieIIc1ZkXcEGV5yNV8U8csQcPCXMn0C3BqAaVcePgT3vVqO5zO6Ef6bqLeGiffqnPert7za+Z7gz+cUXJR7gIMPv7OzszOLjxsQFXe/DU9EsCxf/+EBO1999dXsV7/61ezdd9+tbWjLV+d4ysBf3q+5uVn4O8/YybLj4RVF2khLcDvAqwHs+m9961uGHw0AaOaqq65axsHEKaNZu3btuxrXWbNmGXyyJnXxnAZEZIUIY/bUU0/JP9sHE6FhPbhq1Ml3qLMC0nd5GC83zz73cbxf9W233WYQSjG+02Tb6vGs1aChJN/l1htP8UgDHAO5DJ4fIgi4CQBs+AQIBDrzFRTHO+hh+HzyySfNgQMHhrFiPh3B/dOf/nRYuZvBdo3G4fl3gO4HW7duNZy8fA9OIDrGb731VgX5BtB+AyB/QArH2Z/IbzIxuMswpvdi0KtXrFih/wCqwccJhv+cNT798oeccYKFTqUzgUJ35513Gvxwp8T5h5+O2fTNSO6CX01a+w+sIvnuHNQZVlwBQC4P44D3qUf+/fANXBm4CrHdBDfbjHKj0px5uLmo7VyJOuS7C+G4cVGX4LSarMSgb8RgbyAACIif//znIr1dwHLEXWmO231DQEDaYJ4l2DWEEAnSBWnXrFljKG0JOqhIQ6oQoGxTPod3qEY5pfZy0nMl0DpsG98LK0Q7efz93/+9r7LceOONopZhZViGoqXg8wOElOa70Tf51CSQjH0XeYBbYFDiiaMkJvhw+CJpVR+YoMqizs1nHgHqToDzzz+fgNoFkKzBMxq0HkPyD6oaVF0IcKopwTLyVbC6fBh3gP0NJKtJR3AT5HRcicjPfoy8kXmYRA0AudEVi/SU9qCrxm+oLEebl4HsCfD+EUK+Q2SBHmmAW3CsxiAu5gBfeumlAgQFN/IFBAyDjuBwXRCA1OWDkljpCb6gLq6AJBCDZcE0+di2L0f0Jvhqqj4EqqsCEdyU0LrHAF0DvDiAVvYbrMPJyknENjN9yy231KPt1Ms5abjC0WTZbqtGKogswDFo9RgpgrueYOUgUz2gmkIpCreLZfDiuMwTfJSyBKOqGLnSWi8s5GQITgil40pAP5Ij4PAOi0BXzX2BW4dtZbvyPSfIn3W2bdsmQGd/cMLrPiOq4GYfRBbg7gBbQMvgciNoN171Lo3VYc0111wjANfBz5V26wbjnChWZfCLVL0JKyORlvsVvAg3sBsgqasJcFV9OAHvueeeAOkgD05k1wHAvhqDL4pkslCaw+2EH7pUMbfgxk4PQAouh8/iH2LKwmqSBUiyUFEkzXym6QEwJqWMaXVaJ5jGisAsAoTqRAMT0HGFFyYHk0Mcn0m+tt6QMh7SaDtswXLtYaS5MfTba8uHBS4PfZdhRDaDh17WUf2JtOMFoEg7SK/leMFvYolu58aL0o0SXaW6+/KUopSOXM5PpFO+5Bn23HzPQvufYLlt03vVk6W+XV14X+WBfM+OQtm4UFEwkD+AxFoDcK+mCS2XmvCzn/1MxjQM4NycEZy6Wcw3+NSNqeOGueDmNYwmLI8bUUyU6rAy5nESqdu8ebOBRNekG0r92tpavktOXm6FsR4fFwDnIAHkGwHyjQB3g5VgQ8ZOrQ3MtIc7lHbVBDXBw/LROk6CXBPBBeJo+ZGOm+TRtuHb3+ZPhed2NCvSjwc3bgAOcNdjQBsIEt4/oYkvbJC5+bJqxLWgvxf69GJu8BSw3NxpPAgQbl5dW7qW05THOrTBuyZKgp1mP+jfojopfVjISRncPLp0mMC+1KaEzufCJng++kLZGOgBAFw2m7pp1M2ebu4AthE3cuDhb1QDm8x6FN0f8KuRzv7yl7/0N5DBjSYmk5RhYribz52ottTtUvIZyeXbZOI+epbecUxk3GdENT5uJDgG8CZKYlURKDVd9+CDD4ppjzT5XJj0hvTchTo06YkDeKjfbuCzVK/nisFbflpfpTelMnV+a7bjysK6VI9cR94nwy9nfer3lPxcMeDWwmfhG+Bdx/w2+KW8m8JViaqXXZ2+7BJGOT4uAA7ALcMg1uvGj2qCHWh/bHMdzPgEo4zgWfUgfRy+nuqMTiiCy+r2wonPYxlPI/Ukk3q2Bfhq8NkFwjXwKzCBViIUcyQCUbMU6KDnYdAa+KCjCbNeJxIL7fPXKL9ghSimxwXAMXA3caBVOlOaBh2BNhrdlMBUKRzkAVBStbgf5dUEtz6Pur47oVhfJ5SGfDalMj2BjklYD78M/HbDL4enWwG6BrZVN8V2QvC5QVePjAZdQbhi2TasRDtjSgywU/pH1kUe4BjMBoyeP9BUCQAcDijVgGpG6LgRdEHo5Q7/y1UgCHD7jLtB3UCA0hSokjvMYkEwE6R0VE94cQs/5yZXdVmfz+BRvG3nfwH/S4XY/lGAk5bSP0e7G9hO0tDxarB1yxDS07EPuJmOrIs8wDFyywg2SkU6x3LyBMuYR8ejeoJsJBcAdzXAtwF1FjOfUlUlMvk44N6FZD28OJyqKngl7U4GlfrOaiK8Wcd1nKisx70DL5EpD9KoHZw6P/PJa+bMmcbeNW8gjbWF72I8yi7SAAf46jF4N+kyTVDYzeVK5HPp950Cy88YXYQrwGK9zKVV+Bx8G6nPegD5nEyPU9IScJwE7kTQem7oSNx2tE0+1nDLNR7GK2gH5+TjRtN13NSGqWouTRTikQY4BuheDtK5554rSzVDu5yvQPYylql7lzo4l/hqSlCuEKp6WF4s4waRp6icCO0AvQBVN5X67GBIfvRwK+Eb4KvBB0HBFXrA6QEAazE8N1Xi7CUjSlNaJJYzkxej6J0LSEKb68/q1avFtg1JTJKd8MKH9m6Hx/3Ir3eawuexLTvhR+ueA2E9/M7RVngXdDvdNkYxPi7EAgaeYFsOT7F4M6ThGuQxfTe861ai7GY3Q+OgX4q4rAiah5Bfw1yGMurh9fAPwJPHRoTDHOgoyRvgGeZz5LuGBKjzDQQj0ZP03TheuPrBu6lYqPMB7AELsBPeMvClpH2/QHjC2zueGI4LCT4WBhQfwxfG4j0OFLYp2SALv1Pvv395dVl/6R2pgVRDKg2fShn1A6mBbCqVjvnpgQGDf0zJDDBMpQ3uOZg0PENcejDVZablwpOKNl6zsKQx+MBCutAD71sPZE2zScTWxK59ZL0+QwD+85/8z3oTN6sB4HqA2wDkAPdAdgCgTgPoA6kUAJ6KCaAtsAl2gpwe93g8cEMMZdIAepZgz5ryRLbzzoaKx06eXOR9Aq5PLYSFHng/eyBmjpp07G9jn33kaFyeo+AmaAcEzL7EBrhFUhPcBLWGAmyC2YKb0tuX5JKfMV196arvPtf16bbuTOn7+T4F3oUeGNIDWfyTMUXZ388+/Jnyogf/7n/clMmmb6KEptSm9B5IW3XEA3UWYPbVE5XclNRUS6iSiLfSG5stSHBPohP8fclUaUcyk75gTmnoJyZDGlZIFHrgxPVAuSmKDcTT2fQ3IKVjlNSiZ1swQ1JDRUEe0oxTYg8DtwLZgttTTTxJTnAr8JsO9+e/gY+XOto5UPrkmua5Tfu6+c/wnXC3obG95qGndy/gc0448+NgiG4xGYee8eP1TnWJHm99lz7IK1LpdPbUBEC7GD6bTkEF8aQ3QtlExhTUBLb6rFVJCF5Pgme9UMA+qIMrHYG+t22gbqSOe/zZPQue/u3+JVdcMnvd3Lp5G5V+w5ajNSuf2LlE08Hwh3ed94tgXlj6idV7ztm0vWNBd29q3VeuG+QfRuvmjfR8lzYYLyspSn7nm4t/pfkbG4/W/M3Kxk9ftKhm49dvPP1l6ocrfvLm5e2dA8c1qe/4whmr5tZWyL7maGeydMVP3r5Sn3E84byTJjbfjnYcT50xRRsz8xOQ0ARvDODO+qqJJ7kF6FpOa0l1dbX5+tduNSbdb37wv+4zLS1HZUPJj0M8XdyqJ1BfgHcAn6pKGpJ8mPVG+mndq4dr97f08p/aM929aZGsb25rnwtJm2ReRXkiWTmxONl8qKeuckJxZ1Vlwt+sthxN1vQPDNXtn1zXPLe7OxUqoadWl3aS5/q3jy4gX8bDHMuubqht0rKOrlQpn6/p4wnZZpe+cVfXNO7q8d4X9valS7/95TPX7WnuqevqOT6AuzzbOgbedfuqq4r9/nR5unGueG9ubatx88LikypKkucsqG5lGVeIdky8519vre3BeMycUd655LzpzXHfZjfIYQ0wMJgajJHfojOqW8PqkP8bWJE7uvtLzz5tcuuUquKc45mgtPZUEergALumAXKCGiZCqi4AadrMm3uKmTypwsQyCTNrxnRz6FCrp2+nPZ1b9G9uNoFuleASEu0h7tn1B8+kVHWLCKZHV+0RQBEgNy2du4rlZ8ytavrMJ0/miaG4H/7r5suDwPvFM3su7epJ5ZWGR9r7poH/5conGPKZLsC1fOGpkxpXfO1saYvm5Quv/4Pf3h4sv+GKkxs//KGpzX9139vXvfL2kcV/fO/Gqj/92lmPKt2eA91VP35wy6drZ5Q33/GFBc/89OGtS7bvPTYP0v6xObMq/Mmi0lvrMWSdH951/mNuXq74jr3Hqu66d8OyXOVu/jMvNM99dNXenP2ltOwfAHwVwXf/4zsWP/vSwQtdAfTAE02dn7x45sufvbK+0bNseDX5vsojGHIs/uS2sx6bX+etViznhMOqd6WOPfum4fzpOfd3CU/3Fv2bFhKoKjQNEuiwpqRTEocUhkaSjb3xxptm3pzZpqy0yGzdtsPZTFJieyDn5tOPywaUUp2vPdx97MMz31lwyqR9BBwkbOtlF8zwAUxqV9ISEPTDuQzmXPeJOWtzSfBBqvwx95kuZV9fpiSXtHHpRopDLej8k1s/9Iu/Wbnpqhs+NeclglUXOAgDkXHoNlM/u6KrtLSon/zqZlZ0Mi28Q6Qg8zu7UpUP/Wr3EGEh9CF/urHxD8kOzZo5bULnWQCvFgJglQQXwVdfO8EH1un1k/aRBoC9kCsU46XF8eTEiYmuI239NVilqh59du/l3cl0aZiKOHVySWtZyaAkbj7UXcs6f/a3b9z4l7+/6MG5FuQuuPmMkRx1cNGvPXCnYl/8/I0mm06an/zDA6KDe4c3+NfC0Ovd3b3mjc27RR051t0nwFXzoIL6nr/4pjm8b7v5ix//wgM61ReAPswt8WZeMwFeVhpPfg4SLkinoFo4f1LjZZgQWv5vT+9c0tLWP03TDK9e4qkWnOXtXf0lbtlI8erKkv58S92OvV3zMHjzRuKTr5ztOtrZXzIfIL/vTy98kLQPPb1rQVBCHmjprf3snYMrwB/d8/rNyjfXSuIBKPfKpPXd0JWkbr4bp3R0JaTX3p46qot3B1Y07lcU3A3nz3j56zeeJvo9V4yfPbr9o9vRh8++fOjCaz8+pzHY13d9+UNPuisT63xv5aYrOcaPPLP7nLugzmm7uE+jKqtSXPPDQqookNRyoCOWlOrKMpNNGVNSnDDH+vutbg2lA9Jldt1J5tav32l6jnWaQwf3m927d4kqAoVENprlpaUm033ATC3p9OoB3PlUlLAGBfOO9XhWjz37e2off3avr350HEuJ7h6kZ/qH/9q4JKj6hNG5ebmAozRTq8taFs6vatK0hhiIWnb0vJMqd0BNaHVBU142qOsT3H/yg43X9fWnS6/9+EnrroKe79JSIlZVlnS1HO2toZCumVLe2tnVX0ng1s6oaO7vT5e0tPUNmdDaBoZhK6BbHhafUVM+og4eVi9X3jMvHDyTZVSXFNxMc9X6w68s+M3X/+rVuv6BdCnVns9dUT9MmJFWHetceWndyyufaLpqc1PnXOQLwO/+2od+NaWqNHnHd15j3ohOVBTPWuKZAe/98X04ncyYY909Cm6EmdhFH1lirv8spHv/MVMWT5pv3f5V853v/9Ds2rOf5QJk1vnj7/4b0jjdlI2nbj7DJXiwdQTBC68frn2nqaOOLwX99LFXNh0RqTl9allrGR9sXcvR3IOtNN6yV+TX0Xw3BOBKsITmBI7SzpxW2hpmcfgRlmQC/JzTqpuoXyp9MKTEwirUtObVQxf+8y+brtq1/9jLLr9zzpzcyPTN//3Fm+fUVuyjvn/33715OSZq1Q/vOvcxrmT59FWugIfb+qqOdCRzTvxgm3BXUdSK4fnvLqenz1N9Zk+b0BLkQFBOmpjoDK66QTo3PXHCoMqi+eSj8dGECRzFx2gpoYrCY/pkMhm77fY/NOv/3zqzd/duU1ZeZs5etNhc1tAAyd5jsr3wqV5THusxy79xo/n1cy+Y367fBDUkbU4/eTImRq9Z8/peAb0Cn2EuR4CwrPlQb+1Xl78EE43nKickuta/1VK3aVvHAko3mNvkt9A40F3HBkphfah1NzFazw1vuOKUte7y6pZpfCTgKN3BlmSNtlXzGFKCM9ywtX3u4Y4tw8B1yuyJLbpppVQrLytKPv38/iVcymEBGAawkTbJfFYup6tJrvJgftzLyDkpg/QjpZMQFqThO4bRlpRwRes3h9vCJ2EQJTAby56rfvagrh/GN1+emAk9cPO0kvdK0sBwd+zzX7oF9p4U9PFekx0gsFsRdsP212sM0wC5AeAvP7/OfHzxFIkb5K15fY957lWV3J41hWpKLkdzGcsIaEquBdisfPjsmn3Ux77zT+98lGWf/J1ZosvR5utKMQKf5e+nUxWJ1pd1r+ZeNaij0wfb0nZqslEBzjJusCbAFHkEg8zJB53WnxS632AfuHxa8d5uOixeBvDc9ZWFq7j3IFD+1lqZqK9eduHMHVrngV/uuIiT9a6vnPkU9x2afyLC3uRQs+3x8Lzv4W1LsEL77eHZgOrYX7xm3kvHw8ulTQi4IcWppqi1ZM2qp7NnnTE/RgCL1B7wwMw4QSxAZ8g0wM68jIC/z6x+vRl8rNnQhvkk+C3Xn/oyfXDTwUZiY/FbDHqTSmEuTzAbPkVLSUVFIvk7i3Obh1j/p49suwrmqVBpwvLRuGPd3h7ggg9N3eiaKbXuI7/efQ6tO0EgaXkYiGguDM55qhZo6+W0PHz4rBoB+DRru79t+Xp/ZVO+GnYe6xfwU33z+jCDw6O3xYy2BBu9m6/1DrWamrsru7oGSg+29tYcae+ftmlb+zR34im/9xKWQ016t/XDhAP74urL6nDwN2gmPF7+tKJ44IbeTVMgwbhlc2Osp22vKSuCLBAJDsktgFbpTVAD/AS3lfCU9oc7kmbT7i5vY0l+Yg8n3+DiM9jM0Zh9ILUHKzix37x4INT2O6EUB0RYETzSwd8A0eV/sMyjYJp1HNZ+VJfTk2dNaNFdvvs2uhxXlBYl6+3pola2KoAm/ZCS+uf/vnvJVUtmy8rEAqpc3FBe/4k5q3RAedpZM7mss9Xq1m9BXfOZ2EhHd0rUgqmTSjtpefizH79xQ9IegG145+iCL/7RC4s17db9xW/2LjnRAC8t8cya7nNGG6cAqbCqDTfnNNd+4ndmN4UJvtHyJF1CJDekN47daesmOGNpqCnPrloV+72GRVYdsYAW6e2Cu0/UGGxW5P+1b3V44CYfB9zkm8udjc1ZrhO1bbu6sFOOmVPrJzaF1eeghuVj+V2HfPohjhs4gvz+v7z4/iEFeRL7D/fIKR7twWHH4p1dA6JirH6tZfGLbx8ZAsAvXTPvt+ctqB624Vr9ysEzqfLg2oCvenCTeeVHaxtPgfXAnUCftaZT6Oy1YQCH5JMNcgVAQcsDrS98nSlVCb9vWI+WjY9fPGvDwnnVLf/yf3ZctHV311zez9HTxzxdcNxFI210p08ePm5cHVWAHPcD81RIyP1tC2yxZXumvdiWbU3migtne1LaV008lcXATh6jfu5+QAHb1uo328Rc6B32APty+JP7oIft+opdQsPaSEAC4NnjOUFUPpRm2BR+/I7P495GjiWONH9zf+OVlKS5pFlHV78AmEfCbR1JORbn0llSPCitsBfoghmvjJ7PhymshFKzq3u4LZ7P5MTl/oF2f9qVWWfDO20LUBZ6bM3yvhz6bavdsM2bUykT6d4/PHfIaea617yJUV1V0okJJILiC1fPfXnSpOJ1NcdpkWA78jmctrbQPLtt17G5tIi50pfvrTo1hUU+PieyLDH4JY7YsmHvzkCCZ7Kbmw6YLVu2xk6dhTGzAM9AgseyaUhrSOTY0AV40+5uc6gtKRKcE0UvYom5MMdBj74IbJrX6ctrnhuGHXvnO5pmZ/4ljsO55D+1rvnM2+2Bg8uT8Xd2dtQAhFUPwGy3M2C2Yzn50KxFMHKwCHDmz6+vbMo36Wht0QMP0rvulTdbxfpz+smVQ1Yl2oc7u8wkl9aNc9K4aY3vau6SScEJGHZopHS0RuHwaMgKM9Ixt9YdbXjtx+oan8MRfRLvQtVz2TXz1p1UW9719taOGu4vyKcKfal7qtHyfS90CerHHiDTCKieQO4ihDf3P73NTMHdE9q1eaGKp5le3FpHaOsWKZ0xh1o75ese1rOqjujems7XyFxqSj4VJZd64oKbel0ucLM9PPmsm1H+2Hf/qfHTCkjXNv3K260CnjAzlatG5Hu3YNmvXzx4IfOCloEL7Q3DIL2mqaK4FiTm6wTkZOcEDB6rkwaSNPRonWW80MTwRDkaAX73wpkv0wxKgfVXP3vrRpc3V77bP39a+D994RKewLgAnJj2QOmBHSoGVPFs7JJLL8kuveZT+JaTl60GILkhvRH30jjuNPBQVZj3vx/6jflneDm5hMpDfuLtgU++NudSU45XReHmjZYT2scXzq9udI93cz3/nNOntH77ywt8kE+fUtb5uU95VwZefNPTqS91rgiQD81sAJsANYwvgBeqajz0q10LvJPJ8uag2sQ6+XiG6bVcDfj8s0+dLGZA3tijd9tEFQV86+bg3sif3jb6y2Iuj/D40BVcaWgGpbr0+LP7LuJ9EuYT2Nwb3PH5058JvrfWe7/CBKC9BlK2QYDpSeMY4U1wrl3z29jbb76FeAYSnWZETgBKcoKXoKcE96T7wUMdAuhBgDOfdBkzvap42EaLL2RP6oYsm2EvGqaiKJ17xI6jfLnBRsmt4P7HX+xYzCuypOcGE7rzMKlFkN9wZf0qLKNXNTZ11oG0cUPj0WmUQlRPgkvqSDZxbVswVOl98dnT3gmW8Vn51LQgPdPKD3d0dnByByW8WydMRWH59ZeftGqkY3OXD2lHomd/wT9GPZx2+Xybx0fv+eiPXP6jjY/qOwB8hIxNZnYtpHWD6MoAI47pgUvPXHj4cJs5cPAILloBqFYSE7CedGboxQXoEucEgFDnUT3qqFrze4un+h8wuC9QU13WUTujf4jEcctHE58zo8KfPLyn8Phv9i1wb6tRmjz/+uFzyIvmwEvOnT7kxqI+w17UekovbJ2zYEoLLwzVhOz4eTcE+mbOw4e1uAb8VuAaMJ/DA6sNm9vmhV0qOwuXyYIrhbaN4Y49XdO49Lty87wzpzRu23usjlKRY+be+nPr5ou/nxs+qk3uRjNfO96Xsiy+sF+2tKE6Xly8AWrJyVRLREoDnDQVAtiS9lUNa9tWGg/gFuhW9/YsKDJRRIJXlsU7f/3H56x8X17gP4EpD0xGunmokmskuhPR/KC14kTwjASPrDka+8yjK3hxzQDk9RkTWw3hWw+7OFUSSmCCmyCnpPaADhB70lqtJJ4Et/QiuVUt4aQguH/0pdMfO712wgm9tRaJASi8xPvXAwC3yXo/GyEA1yd9/pqGm3Dh6hsA8SJgmSecgwC3ujc/QxtUSazqIl/0QC2xE+CkqaXNZ8yasO+/XV63sQbLlPL/YIZodMFFpAfi2/H7Ptth+1iL30TBsbsx/x8f6CR4DnPJBgAAAABJRU5ErkJggg==;" parent="1" vertex="1">
          <mxGeometry x="90" y="350" width="184" height="138" as="geometry" />
        </mxCell>
        <mxCell id="ch1ERGyDjhr7xlRFQsl--2" value="" style="shape=image;verticalLabelPosition=bottom;labelBackgroundColor=default;verticalAlign=top;aspect=fixed;imageAspect=0;image=data:image/png,iVBORw0KGgoAAAANSUhEUgAAALgAAACKCAYAAAAZgYBhAAAK22lDQ1BJQ0MgUHJvZmlsZQAASImVlwdUU9kWhs+96SGhJBDphN6RTgApoYciSAdRCUkgocSQEETEzuAIjgUVEVQEHaUoKI6AjAWxYBsUe58gg4I6DhZsqMwNPMLMvPXeW2+vdXK+tbPPPnufe0/WHwDIIWyRKBtWBSBHmCeODvajJyYl03FPARbgARHoA3c2RyJiRkWFA8Sm5r/b+9sAks83bOW5/v37/2oULk/CAQBKQTiNK+HkINyFjOcckTgPANQBxG+8KE8k52sIq4uRAhH+Tc4Zk/xRzmkTjCZNxMRG+yNMBwBPYrPFGQCQbBA/PZ+TgeQhyXuwF3IFQoSLEPbm8NlchI8jbJOTs1DOQwhbIPEiAMjI6QBG2l9yZvwtf5oiP5udoeDJviYMHyCQiLLZi//Po/nflpMtndrDDBkkvjgkWr4fcn53sxaGKViYNjtyigXcyZrkzJeGxE0xR+KfPMVcdkCYYm327PApThcEsRR58lixU8yTBMZMsXhhtGKvdLE/c4rZ4ol9iQjLpFlxCj+fx1LkL+THJkxxviB+9hRLsmLCpmP8FX6xNFpRP08Y7De9b5Ci9xzJX/oVsBRr8/ixIYre2dP184TM6ZySREVtXF5A4HRMnCJelOen2EuUHaWI52UHK/yS/BjF2jzk5ZxeG6U4w0x2aNQUAwGIAGzAoatMEQB5vII8eSP+C0WLxYIMfh6didw2Hp0l5NjZ0B3tHR0BkN/dydfhLW3iTkK0S9O+NcgZ+uSMj48fm/YFPwbgsA7yWHZP+8wPAqBSAMCFGxypOH/Sh5Z/YJCnpwLUgRbyu2AMLIAtcASuwBP4gkAQCiJBLEgC85Fa+SAHiMEiUARWghJQBjaCraAK1IA9oB4cBK2gHRwHp8F5cBlcA7fAAyADg+AFGAHvwRgEQTiIDFEhLcgAMoWsIUeIAXlDgVA4FA0lQalQBiSEpFARtBoqg8qhKqgWaoAOQ8eg09BFqA+6B/VDw9Ab6DOMgkmwOqwHm8EzYQbMhMPgWHgenAHnwoVwMbweroTr4ANwG3wavgzfgmXwC3gUBVBKKBrKEGWLYqD8UZGoZFQ6SoxahipFVaDqUM2oTlQP6gZKhnqJ+oTGoqloOtoW7YkOQcehOehc9DL0OnQVuh7dhj6LvoHuR4+gv2HIGF2MNcYDw8IkYjIwizAlmArMPsxRzDnMLcwg5j0Wi6VhzbFu2BBsEjYTuwS7DrsT24LtwvZhB7CjOBxOC2eN88JF4ti4PFwJbjvuAO4U7jpuEPcRr4Q3wDvig/DJeCF+Fb4C34g/ib+Of4YfI6gSTAkehEgCl7CYsIGwl9BJuEoYJIwR1YjmRC9iLDGTuJJYSWwmniM+JL5VUlIyUnJXmqMkUFqhVKl0SOmCUr/SJxKFZEXyJ6WQpKT1pP2kLtI90lsymWxG9iUnk/PI68kN5DPkx+SPylRlO2WWMld5uXK1cpvydeVXKgQVUxWmynyVQpUKlSMqV1VeqhJUzVT9Vdmqy1SrVY+p3lEdVaOqOahFquWorVNrVLuoNkTBUcwogRQupZiyh3KGMkBFUY2p/lQOdTV1L/UcdVAdq26uzlLPVC9TP6jeqz6iQdFw1ojXKNCo1jihIaOhaGY0Fi2btoHWSrtN+zxDbwZzBm/G2hnNM67P+KCpo+mrydMs1WzRvKX5WYuuFaiVpbVJq13rkTZa20p7jvYi7V3a57Rf6qjreOpwdEp1WnXu68K6VrrRukt09+he0R3V09cL1hPpbdc7o/dSn6bvq5+pv0X/pP6wAdXA20BgsMXglMFzugadSc+mV9LP0kcMdQ1DDKWGtYa9hmNG5kZxRquMWoweGRONGcbpxluMu41HTAxMIkyKTJpM7psSTBmmfNNtpj2mH8zMzRLM1pi1mw2Za5qzzAvNm8wfWpAtfCxyLeosblpiLRmWWZY7La9ZwVYuVnyraqur1rC1q7XAeqd1nw3Gxt1GaFNnc8eWZMu0zbdtsu23o9mF262ya7d7NdNkZvLMTTN7Zn6zd7HPtt9r/8CB4hDqsMqh0+GNo5Ujx7Ha8aYT2SnIablTh9NrZ2tnnvMu57suVJcIlzUu3S5fXd1cxa7NrsNuJm6pbjvc7jDUGVGMdYwL7hh3P/fl7sfdP3m4euR5tHr84WnrmeXZ6Dk0y3wWb9beWQNeRl5sr1ovmTfdO9V7t7fMx9CH7VPn88TX2Jfru8/3GdOSmck8wHzlZ+8n9jvq98Hfw3+pf1cAKiA4oDSgN5ASGBdYFfg4yCgoI6gpaCTYJXhJcFcIJiQsZFPIHZYei8NqYI2EuoUuDT0bRgqLCasKexJuFS4O74yAI0IjNkc8nG06Wzi7PRJEsiI3Rz6KMo/Kjfp5DnZO1JzqOU+jHaKLontiqDELYhpj3sf6xW6IfRBnESeN645XiU+Jb4j/kBCQUJ4gS5yZuDTxcpJ2kiCpIxmXHJ+8L3l0buDcrXMHU1xSSlJuzzOfVzDv4nzt+dnzTyxQWcBecCQVk5qQ2pj6hR3JrmOPprHSdqSNcPw52zgvuL7cLdxhnhevnPcs3Su9PH0owytjc8Yw34dfwX8p8BdUCV5nhmTWZH7IiszanzWenZDdkoPPSc05JqQIs4RnF+ovLFjYJ7IWlYhkuR65W3NHxGHifRJIMk/SkaeOiKQrUgvpd9L+fO/86vyPi+IXHSlQKxAWXFlstXjt4meFQYU/LkEv4SzpLjIsWlnUv5S5tHYZtCxtWfdy4+XFywdXBK+oX0lcmbXyl1X2q8pXvVudsLqzWK94RfHAd8HfNZUol4hL7qzxXFPzPfp7wfe9a53Wbl/7rZRbeqnMvqyi7Ms6zrpLPzj8UPnD+Pr09b0bXDfs2ojdKNx4e5PPpvpytfLC8oHNEZvbttC3lG55t3XB1osVzhU124jbpNtkleGVHdtNtm/c/qWKX3Wr2q+6ZYfujrU7Puzk7ry+y3dXc41eTVnN592C3Xdrg2vb6szqKvZg9+Tvebo3fm/Pj4wfG/Zp7yvb93W/cL+sPrr+bINbQ0OjbuOGJrhJ2jR8IOXAtYMBBzuabZtrW2gtZYfAIemh54dTD99uDWvtPsI40vyT6U87jlKPlrZBbYvbRtr57bKOpI6+Y6HHujs9O4/+bPfz/uOGx6tPaJzYcJJ4svjk+KnCU6Ndoq6XpzNOD3Qv6H5wJvHMzbNzzvaeCzt34XzQ+TM9zJ5TF7wuHL/ocfHYJcal9suul9uuuFw5+ovLL0d7XXvbrrpd7bjmfq2zb1bfyes+10/fCLhx/ibr5uVbs2/13Y67ffdOyh3ZXe7doXvZ917fz78/9mDFQ8zD0keqjyoe6z6u+9Xy1xaZq+xEf0D/lScxTx4McAZe/Cb57ctg8VPy04pnBs8ahhyHjg8HDV97Pvf54AvRi7GXJb+r/b7jlcWrn/7w/ePKSOLI4Gvx6/E3695qvd3/zvld92jU6OP3Oe/HPpR+1PpY/4nxqedzwudnY4u+4L5UfrX82vkt7NvDcUQ1iNhi9oQUQCEDTk8H4M1+RBsnAUBFdDlx7qS2njBo8v/ABIH/xJP6e8JcAWhGJrksYnYB0IoMM18AlJEhl0SxvgB2clKMf5kk3clxMhcJUZaYj+Pjb/UAwHUC8FU8Pj62c3z8616k2HsAdOVOanq5YREt3+xk/bR1wT2K1QrwD5vU+3/p8Z8zkFfgDP45/wkcExr2Apx73gAAADhlWElmTU0AKgAAAAgAAYdpAAQAAAABAAAAGgAAAAAAAqACAAQAAAABAAAAuKADAAQAAAABAAAAigAAAAD+FNr1AAA8pklEQVR4Ae19CXxdxXnv3KurzbJk2ZZXCSNssxgHbLYAKTGiCUkoyzOE5AWyYJIfgfxeCklJSvvra7G7vNc0CSRpXlOStpi2j1CWwAukvOCAl8ADzGKzGHmVV3mTbG3WcqW7vP//O/MdjY7OvZLBtOjoDoxm++Y7c2b+880338y5NqbgRuqBWDabjYHID7WCzTcaar4NWSfMuflu3KcN4ec+36crREbugfjIJOOCQoEmQMIbu6GJwTFPQ8TjBKGXbeIrVqxQevan+tjy5cs1LvQWuKTVfHfS+HmWcVzrox6qmJg+h/m2TJ/LsOAKPTCkBxQUChIB2Gc+85kielAmGhoaEuedd14x4vQJ69245jEsVlrWc2k1nzQ2X8vdUMs0FJ5Krzwc3gnbTmm3I/V10qBqwY3XHhBQq4REJwigERJcperr6urKES/XkPF8Xuk0VFqmNc+N19fXlwVp3HLGZ8+ePcGlQbzM1itduHBhCT3yZDIiLNJVwgE8sgtuPPWASDgLbgK7mCCZP39+6aFDhz7R19f343Q6/QYA0gb/QXVtqVRqLdvKNhPwfAcr5ROu+oIX0JVqPI3x+HxXDrYCm0u9lX5l7e3tX81kMrs+qGgeqV1sO97hFowqVwSR6AhVmo/PwR5nb+3q2SK18f5lr7322gIrrUfC0JgoJ9BfffXVM/BuVLOobvFdqaMXpDg6IZIOyPT1bbspo4QrO3r06K0ARPuYQO5xNJLvdPjw4f9KlQvvqRtWseJEcoDH+0sR4KqWoC8I7vKDBw9+7jgwMyZJW1pabuUmVTeheO8CyCM6GSjBi7gB42bs+eefXxhFyR2chXzHdevWnYl3p16u6sq4U1Wi/sKinmCA41iyi7Zv314MnXtTPB6fg7zcLps0meQWk0ntNybTarLpzgAt2JIzzl+kA+UcRv5IHnNjLKTzjRhZyfWybZmU8w/prZNDHT+luQhRJ1GDN6kysbJ6rENUtfM7WFreKi4u/gioUtZnOBFwkOQ0ID+PsV7KDUikHfRuoiUOcBe1trZ+cSRwZ/qbzEDHv5p07/Mmm2oKATe4EYQZeITACzMkS6LSmxkvX2CU8eiFHHRSjiZJNWYyg6H1hDrzbBo2TS/O/IFWY5JNxrQ/a8zhfzGmd7Nwy/UnkUicBTPiF1Auh0EM9fg1V52o5XPwo+r4bvS0JNCXQHq/lQ/g6Z7nTbrvTZCiovYMwaaOeU5aSJy0kAXSIiu1ni0Lq+fL1AAtH8grATp5BPB+e0A88QJjKuFzOKgqe4qKis5CcT98ChM++/DDD2fGixSPtASHrVslV1FjY+OSfODO9L5iwU0UwvuSUxFr8xRIKFfp7dMKCkmnRDZqpf0QOuUfDJXWbwN4II8TYAi4+Qy2oXM9/PODDwzE+M5bt279KLLFZPjII4/IhAmQRTYZWYDDchJbs2aNDlwcFoUrNREMM8nNUEnWDwUQiQSrkJICQi/tg1SZuGAW0PkVTQzaiQ9KpdPQkslkQJ7/CD9CgsFne5MJWawPvkPCzjeM6YPqksPNnDnzahTFscmWCe/zykEfpeyoApymQY6TSvA4NltcpkNdpme9BxiWEkDqJa16MxOOExpbRknKNJ3WZR4TmvZKvb8ipS2tnw9CBa5UQoFPRyZwwsth6D70CPRybI7DXEVFBTea8V27dsl4663EMNqo5UUV4MZuLs2MGTME5CUlJR8KG7xM32ZvIwnc+HhRQh9QXhkln9B4fzwqiVPSIunnWxBqGSmZ5asfNoN6B2go5VUFEV2ckp9qCcgkTT6sqxPA52XpJA1wHwvfdELfnlNdXU12dBp6qYj/5ZXMSDocdAg+YEXg+9F4MCnsRWk1EVOeDDuQQrCIUxwgZJ6AFSGzfRoScgPoZQgYuTtVWskmKi0PktMJPy/qpZlh69mol3brCjNLRvBrQxzefTBrVi5yGHtRvjvuqsSnTZsWnzRpElc3zCkxFw6jjVpGJCW41b8VKiLBcw6c2LhBClAKQEkoSUprsrBliBFSLg2SKCYI1ZEWcfWICIsMaEgn+UpjiVw1ROsJOf6wnu9RiHg2zULwFYnu5clDyD95WBsSFsY46WEuldcA6MNoIpcXVYAbWFB0BGVAc41clrZlAouOaNS4lyNpH9ROntD64ESBxgWQBB498z1AenHkpZmPPJYzzmdK2vKQuC3nIZHlGyuai/PIS0CEg0nhafmSRts90IHynE76ARtN9g2q4LnenM1ZIQoFkVNRvJU3Zrq6umRAJ0+eHGtra8s9VhxnUsqAIyLjLn9sHeZpWgg9Gs0ilUpnidtqZKTgUxoJyQNOeSqfbNrLH1JGHnETKzkNW8SZiKdMLN0DtvbkU3gA6MISf4bNxEGWNhbDRpNeTYX69GGEUcmInAS3S28WV2Fl8ADu/INIkJBCwTgEeACNpkUig1AkqpWeKoWRZL6oDaT381FAaUu1gtJawrSnZgiNV061I5tmPkBOn8qYGLzwKQa4iwBucThxR72Y0KFc2o0/2kamcztOA6HAvRzRw3OTRqckcgC3g8jBpDeU4AzzOgJEht6SKlAIJsbFo4yhD14btypFDGHMAtikAEQLVILVAzZDMPBpCGbkSbmCGuUCbACefBPz4BXcth3yPNBpm9kmevLC//nclClTpLiysjJ79913s1bkXeRUlOCIQaLnH0gtBZknCL0MUQKQocWMxFxVhBkEuwDNUnFC9HcZ09NqYkmEqT4PdCymL6k0pmo2Zh7rcRLAtCdVMXni+PQyXgaNpAjPQbp0NujnDH2dTK8HZG4Q8T8Soq4wHotBVrE9o3A4AEO3CAP+GV2lUfD9IJJEEeAychw4bKiy1DcnTpyYu+/94QU4iRQ/TXGIHA/1Xr7GCSQBE0L8H+veb+LHdppY5y4P2FIOXrKhZEvgJ0wzZvoCRAB6d1LIpKEEB3ihb5vEZAF6bBKkd9AlYQakBI+DTttCYDM9gmMf4CMPpWKL2E8jyHwlH7thFAEug0c9E3o4BzF27NgxhuFOqPGHIcHGQIDtxYgjT+KijGRURYgNqATxY1tNvGurifUe8KBCYMedR5EnXc3pxsyCfZrlAm7kCVCl1MvnQoPnx5Kw20+/BnzKbaENsLk0PXs9MGcwIQhq2WxS90fbRKo7zx5a26APJAdXFgyuDpuGhgZjT3sDlNFK5u6Rsf2efK8iDGbxvn37iiG9SmFVCTUSD+z7kfemrCFSEREBoaLTA/YgOJHfd8Qk2l8ysT4Am46k9Cqx3XAGbgjMONsDMYFIXVn4I2Sak4qATXMDiZCev05x0k0IrUsB3EdfQhmkP4HNSSSA1jhCOuYv+AMvHvgLlWQ6sniWP2A9Hhx9CW57Bq8aIUcbLyUUwG24scorweW9gU6RrkgI6JAmCAWQCIk5uyGMt79lilsfN7E4JG0Zuq+IYLOdx1DjzKrEBrH2XNBgoYRujUoWmEqIEOy9SpqHZBr6e9d2Y6D6mO4DJnvoBVwzOYa5YNskIeOgFY84+dDncAE1Te/q5KCOTnYUVRQIN0EZ/2Shd8YCgztk9Gj9oF2ZgBYtgcCmE8lK4MADUHJfpON1U9SLm3sTAdRiALYfZWK9sHWIbqlvw7mXYrNYAbkJycvWCBqVhmnr9JlMkhV8dvfTqDtL3iUmUpv5qIsJlcUdMnnFONBNvV2dNkPTecLxoJ7w9Z3eydMbY69I4IRmSwgJnnvorQQUWwuAJqEvIVENE4Dmv1jba6aoayNAB5blADelt/Qe0Wg7iEBlnJOjDJvFMlx/KS71pLbQsDlCgIC0OTxoYgdeM+YIpLiaEUXtAV+211dzlJ0w91gjK8wF+sA2Ysh6E1ZtzOdFDuA8yQxKp3wSnCPIe9u+jk1AK6gJ7BTA1rnVFHVu8KYL9VzCYwB/6Ak8podMCmSUVqMcKm9PJ2ig4xD0uiqAv6g/1Ld5gqm6N/PJbABqcne7gDzb1+kdArHMrhZi2XEnB2oJ8NmO3C6udnCQyMRHmL9Gbl5jpiRyKgrUExk0WFGMnmbmHQ1f6qKaxAlE1CBgCaj+ThPvALjVAfCmF56A6yPoLK0CnGnJw58UgBpDKPxIy40kPeLiUSbgtmmCnZNB98OZARPb95LJnvIxPgS8II9Yj/AUHQWM+brIktWE7c/hOMkDZsIclNHKjhzAdXgAbkZjkFrZ/n5+jpjDEZh0DAkQgkXBB+kc79wGjMLExs0kSZMgGIBnHFj1pCpDZBD8MjGQ7kGdNA0WACX5ioqh4CawwcMHtwP0ZLcxLbtRjw71elpMrOsgDohmec/iZpVt5NqL4sE4E7ldQEVRQk6V/BWVcoyGUQQ4B41OBo4qCwbXywn7S7CI5Aa5AByhgBRhKm3i3du9Wgp+cgUeBVgKXIKXeRIyDt8BK0sPbveVYJMpdAS06xXkzLPxFCbibuj53JTyOeIQOfw2NrawyMQRBw+5bEVeFOWU4KTlM3zNQyrm+8M+ijy42QGR08HxThxpOhlAe5OQ8XAnwEUVAR9CqiXWywFOCiY7Ap54InAppenduJunQGedbc9DjYFEHgBwqa5QolNN8UPGKdXhYQY0O16FSkRwo654NBtR033YZKnPSzu8MsEzy8RbOsbzOEcHz0MVraIoSnCOkIDbhkznHnoAm5tM2s49yQ2EAuBiOemFakBg04lqr2yRVrAR0IyL9EacIevwicfajXnnWWPmXYQjeBzeyDNQKJPJhpTaR/Ya09rsgZ2PEN6IMKQTXmhLSb3kyaUuOaJHgWxeqZuDjhI+j3N0cKXKX0GpxnAYOYBTJaEdnEf1/FyNhz35HPeAdPwG0jtIQZwSHOa5WBJ3Nwgcf35YPDBPwIpQwIh8BbqkbRXG+3AK+fZzxlRMwX0UmA4TMBsyvxcrQy+k9rE2EFt62rn9OGiYtvx61kJNmZEyEy6Ya2ITyrx8tpP/8IRMPtKPvCDzqB7fqXID7j0r4n9H7pEx1gG0otBM6FhQsrAgWOSEvAxwIZYLAFSktty1RoJ68QDUBVFXQAQtwlNPSI+0elFPbB7jAn6khwAd6U5MlgPbjdmzyZi972AjCandxQlk67CexJkmf5vmRIKPFWVMclOz6fz3jSbbB6kvE4y0qEh6oUOdERwnvNM3I1CP/eLIAZxDAoBjxGFhs9I7hwXBGz0CmNQEioKZYCdYDa6wEngKZglJh7IherfNEz7khQjjdBpqhOmgF2AjX0IU8pkW2F6el2a19NFjpm/DTq+tSiP2ddZnxbyOE51s6DT0UhH9GzkVJWSccktvEnOYVQL6ACNgKcXRPQSzcHDwgOj+0iqzuWKq6SoqNpX9SfEXHMXdEZWkJPc9IowLcDXf5gVpJO2UUZKDZ6qnBBGvKcl39pmyxfOgqsBkqOpJEevkflXawTnRoaJw4ucmlKdE509UAc4BFKjQDs77KDmHTMGt0htp0cGZjlV5ktrWfn3qKWb19PnmyRkLTGeiGDp7CviH7gIJmuUhDcKGQztNQ/MOc/WerSaRiOPyHxZJaYltgcQJRm0hQgG+5uFhWsZ861M9/AXkQTew95ApmV+LNoKeIOd7SMVBGjcWMJWSmG/FMNIuqgDnoHEAY9ZykHMg3c2lpw4AUQQLJHc2gctOCLuKy8yfn7MU4D5VQJ2Ffp4FsGl5EQFqIcKHrJ5+snluWp35u/mLzH1rf2X2FU0wT8yaZ9ZXTjdFOOaf099jrm/ZZa491DQI5CFSH1wIauaJ9EbQXWIy/QkTx2jxGyPeR8904gMJtpNqiX+qyYq5nZoJ7V15EkYe5JEEOIBHUwoHkJiTCBOhjiAFUOT3RggYXm7CAQ9VlFgmbrZUn2X+YNHF5sAEXJzCVzdZK63lIwPUzRKNzON/TEt51uwvn2iu+uT1prsziS/XMjgIjQHgcag2FebVSTPMFTsh4YvikieThNhkawlsjTOE7zk0+EWSfGyhLyL7BryeSHHS5t9ScbLT696ET1NWUQ3z98jYfGs1E7L1+cFNCqoiADZB7oXIE/NcxjRDxfjy4o+YvSUJfEfcA8z3wvfBwDIAHKZATimOEKpKRqQ6JDtARwkvl6gA9vLKuEmIVQ9TAc/AL9CbUzuP4GwnizOdNHjh+QJsPNe2QULq/kin+4rwfQVOQx3HyZSYWolytt1rv1/XoQtGVYLjrrw+ceT+CTIZY+koSnAOHj9XY0inoZcK/mWpglv0cE967ye451eY9jh+i4QSXaCAP5Sw4jyJTfaU3CLFpQygJeggekWVQVhanjE9/VArUJ7B5DmtA7ZvskEav0jvxyWPVfE4keKIdzdjH+DAkNWKJpSaxBRIdbaXOj6fp1Ic5WFOb1TSDs6Pji2NvkxYlUjkRRHgOngMRx5AATcAIiAFeWyiyeJiVWdJ1lzdCSsFWHiGCpSBhmSAKkKmCWKti5CoRJpqCsuk3IZpXK1ND2DTCX7XHug1RRNPBV/wS+ADBtax7ZCru8wHeDNJPH9SuSnDzVvilw3hZcmSOZNM+lAz/imTchOfhjsqnAECcH11ZAWcbjKdPcno+ifAZ6wlowhwjkHMXpfNPeJ2pET/pkoClYDxDP8NHCRPhy5+xhELVgExTjYJPImjMkNe5SEwBexISog08rwJ4PFktkeH66+cFGWwfpR6E4CqDSeC8JP6BLtXFqtImwlTyI/PgiOdzNk+kz0Gj9PQ+JQZ3o0itkNmolAO+2PNhJLPTebVV1/N84JhdFHLiCLACSf3KDo/yIEZ+WwNtShF4yfXmhgsHt73kwCwfEdpQ0pKkch8hAdCAZwAz6YtSD0wWvDqQiJI54NY33qNCw9mWxBrPumGxPkc5oF3N476eZjFCYANqz4GXIY5leCBAvYNGxJZF0WA62DpwGmo+UNDggXAFklOKXgEhzXVkLCUzrx7jR/jMUU4ZJGPDXgbEMfkGR6VAxsU9awjICRbxGUCWLArdkgrSjXLrZcyW1fpGArkyJvsWE6Xo04bLnNJ+0FCfZxtzOO4yaSKwnso9HD6gDy1xnZR/h4Zw+/GZZgbKv50W967KASogpzDzY8N2nFzL0sw44rqAD4562vBxSjc704e8dKwpMC84fkMr7Fa74Ofhz+u6uHGLfh1IlD6WpVEQomT3tYROjaM7SQtQ5Ql8Uz+qKgUkSdIZLLlHjSrfwuBVU84jSLtoirBxYpCgPM+OADO4Q93AgwUqWRFmN3ysoktvBjXU3HFVSQpq1oWEvAPPOuIZLblknbjSmPppY4tF35OudQlHRyB7D9P45aWZfwgYvtOC3bmk9yWs36Iow6Of8ZFfmmX+xMAXGqFkEYqK6oA5+DpgUY2h/7pDaSPHwIEWfS44prduM6YOtz3mAF1RbiRXCNOKFEnrTQ+4AJlPpCRT4krMhSNEDL8ccs1riEn0wH8ftEBrCZURxIYPqnHtsG5cS9nyN/AL+36U3cIUcQSkQM4rBdy0INxitXb3ybMO2YEj6gFGG8BkqVO4ih8C66m7sDVVpxKmgr76Rlo5FBIVAfSuuB0n0SwMo0/AiUmLKb4nCHwEkKPllXoWE5PRzDjQpdpxx1yOgIbdnqPtyUkC2VDmoDjJKcOPmHCBLkui37SjspTK8BkDCYjB3DeB9ex44+9c0y4POd0+O2SWPdRaAXUeUFFiS7OAqcPQKe14iDKQcO7Kb4ZT7ANwItKYav5cGF9P2ELRxEQzGLTBi0PcdTTSlJEYNM2b9vGkI/QiVlFm3i4Yx9QB7d6OIUAmfhvG15r7OdSDETO2cETdHGTmU9FifHn1UDp3/GQcWe3WBAJ4DygxcSqQqDRugJP0AGAWabVE4ACRks3LN+hdemEn1NX0/pMDdkegl4mAUJ1fNtyfDGUw7l9YHVwUvIlI+2cHorOe2IDxZfh4AnIKb1wfA5zSIibfAoyPVKCnDHxABB/Ms33CmqCS4DpAhWSldKVnlf+VNKiTlbySct8XHlVwEvItNLbkPXpqYa4z2JcvYJbQrSWoKebcYYXBv7y3d1VjCZC20fSPwHySCWjDHAZPEhz2WTi36nfEzpytecATLB1y/eMhDa6RKQkQEmp6cYJMAGeBSNAGgNAYwJcm8dySQO8uDMugJY64CXSncAdrC80Ugd5pCeN0DEkLUKdJG57CG5ORQE3wgn45rPu3NBXTCaTmyDBXTDLZ32hxBHLjCTAMUZZ/EOwMqDQORkS5C+Gjh3uepuzrxOseIABlUpGVqCkVfXAAi1GYBN8vifwCUQb8oc5RUJbOsZ9EKNesVPX0vnAFp5KryH4Ch1DeJXkDAXkCE77XbY21PX19b3Nf7YEhfKPAjQ0jI/fBmdnsIei6FRayaDiBTONjY2/zvmiMxcYM/cSD+SQiFkAJ8sQoOI/KeKBi6Bk3IJTQkhcgpUSm1/4FOPEk1K42Ev7Ib+kZ5mWi6QmXYBeebNc+Quw+Qx4leYKcJ2Ip38cvyceLr35zlu2bPm/9t35L15k8Q/Car/k7JKoFHCdi5RTC8py/Gu+8ECFAVrw+1IVFaX4135fSSQSdTlfeMuzxmz+DU4oMf48LeTxNy0U9GplkTQ4sJzSUywYkBNIw+7m3XdirxJCGiIqTtMaar6GzJdKDJBgmioI4/Kj94gT3MxjmvH5mJhnXcmKoS6VSu3DP+N9QXd3dxI/F9GPn9LAEa1/IZetjLQjACLlqHPjhQgNOsbpMxjgTFNT0z2nnXbaPSwIdad/zLNEvAOQd+NYnuoAPz4mC/ltQoQCdrIU9HllZBb8TRIlYZmPdkZRQMDSaXwILfIV3HyGAJx5BDZCAToipfji/7zP4p9GweqTx/Gd0ScZWJMyADfNgnya+jw1o1FkezoaLxN4CyBCVDDoFfj3zSorS/DPmJRCH11VWlp6ZoB2eHLP68Y048d2YCM3bftRDkwQkAIN/GHPuXc/mC+FDFHIecY8BbOWCR1p4FhGnhr3YoN1ZHTIy/qJMAPyIti0ucacfD7WJuwf8jhKbxzPXwSSJNSSPvxT3inE6e2szVO5UPTB7gGoJwS4gHv27NkTsExXQ02Z8f3vf/8jsKh08DQoyo7veO+9917Md0Y/4JMJw+/eSrD5Zp/I1EFYcGO8BziYifr6eoo6fMRoauBnb9q06c4og5vvtn79+lvwrrPgp8Lz3XFzzBTbiY9owUWhB3wpjpeB0mrwabzBP1hpZhMAWMI7owZ0vtNbb731LbwjdBmZ0HxnvjtMNrKiUXoXJDg6ISqOIOdmuhR66MRJkyZNtst23V//9V9fgkOQfVEBOfYX7/Cd8K518FRNeHbPizhcwdgH7IsCuNEJkXAArkgrq3cWW1WFA86BpySvKysrO/mNN9749lgGOtu+YcOGb+N9Ti4vL6fkxjd3g+DG3RNVTcad9I6cmRAD6ztrMjSPPPIITzYzCP0yjeCn1RKLFi16COlHn3766YsQ/2RVVdUZAP6ZRUVF1F0/cA4byK6BgYF9sOu//Prrr6+68sorXwSwaRlJ9fb2DmCVSnV0dAxgQqemTp2anjt3rt4adG04H7j3ej8aNF6WK5XkMYCcG0/fw3yYgPkwgXvSRZD4RQAIl3H1BiZFfB2W9PsJ6RjSHIvYfffdd+bSpUtvmj59+lJmvFd3+PDhx1944YUnrrvuupfBS0Bpn591Qz4HbWC5eIA7g4magq1fzYAMM5DcKYJ74cKFvHtCcBcAjk6IqlOQxjHwcdyoi8N8WLR//34f7HhxxgXcAE0MYJc6Ns5+0bSxE0HocZhy+ymnnPJ1Erxbt3Pnzh8DjD9C/QxWjzT0aV/q2ue7ANV4BrcEM7hnQ+ktHu+ULikpyeBInmmdBNqsAsC1JyIaEqA+0BEnQJn2gQ1zeQxLfxEku4FkJ9j9DyYAJK0bg8SP9/T0sJ741tbW70IdwK2t43cHDhx4AMD8C9Sk5BWgYiPML24IXvmmlCFclu1iiLb5IEfaBTNBzTI3ZLvHHbjxzuPScbDp47r5RJwmNFoaaCuuoLUFIZFEj99OE09zm3geGiE+BdKTG1V+RsPNaj1A+NLxWmQwmZ5B/VMgpWn5mGl5TrHP4POq8KmZtqGqpqamkh75bGMFPqxmm9n2koaGBu6p/MmKOD9v0kmJZMGNmx5QCwtemFKaoCA4eDELV//El1mriwKIIT1tyvQTLfCmIE6rRe0NN9xwNlSXd0YLctJ+6UtfOpt1yQObW/IimAlePkOfWW7bom0ioNnOElpIENKLGdB5L2QV3HjvAV+aoyN0Yylgt9KQoElYEEnc5pfMnz+fACMAKU0nQ/JOhxSuHa1tnaY9a7MmuKdZiV1pJbKAF5tDriwy8dw22Dy2U6W1vgeyCq7QA7l7QIBCKehIQgUPwyGTAGlKTkpTSlza1gnyuu9973t5D5AU3JwQqDONh0+Wh6gaiAtw7bF63GkLn++3x8lHdsEVeuC998AQ4Ds6/DCQUzqHXQXgJShOAAtuPZDhRagyK6UJbgUxW+zGmS64Qg/8h/UAwUdAupKcG1DRyR966KErIGWHOOahnJJ7yFF6ANwoLrhCD/wn9wCQq9LVBbno5GgaQT6b13NxgPOPuIv9Dw8//PCnKLmpr6MsTC0hv4I7gT1Q6ND32JkEOZ1lQ6DTy4aUIezZRThhpN2cZPyyiDbrFEyRKfsBgti9KeZRXrBVo3MK7oPXAwS4mhv1Uhf1apr8KKlp/uO9bMZp2xad21pJOCFYt+AKPfCB7gF+5OyDHC0VMyI+9CWYaWWRgxl+XUQTo4K78AHCB3pMC40L9IBaWeLWXs7NJ4HuerFt0wJjwa3qTYBVIVnogQ9mDwjIHWmecA+N0GRRSewG9YP5BoVWFXpgND1AENNbsMshTQHYo+m5E0czbpZHAIv2afwCQ6z9xHXfyJzw3Hr8+OVS3NfeCOp2PJ/hCXf2/eQdwZzP+Q99zxP+QieIIc1ZkXcEGV5yNV8U8csQcPCXMn0C3BqAaVcePgT3vVqO5zO6Ef6bqLeGiffqnPert7za+Z7gz+cUXJR7gIMPv7OzszOLjxsQFXe/DU9EsCxf/+EBO1999dXsV7/61ezdd9+tbWjLV+d4ysBf3q+5uVn4O8/YybLj4RVF2khLcDvAqwHs+m9961uGHw0AaOaqq65axsHEKaNZu3btuxrXWbNmGXyyJnXxnAZEZIUIY/bUU0/JP9sHE6FhPbhq1Ml3qLMC0nd5GC83zz73cbxf9W233WYQSjG+02Tb6vGs1aChJN/l1htP8UgDHAO5DJ4fIgi4CQBs+AQIBDrzFRTHO+hh+HzyySfNgQMHhrFiPh3B/dOf/nRYuZvBdo3G4fl3gO4HW7duNZy8fA9OIDrGb731VgX5BtB+AyB/QArH2Z/IbzIxuMswpvdi0KtXrFih/wCqwccJhv+cNT798oeccYKFTqUzgUJ35513Gvxwp8T5h5+O2fTNSO6CX01a+w+sIvnuHNQZVlwBQC4P44D3qUf+/fANXBm4CrHdBDfbjHKj0px5uLmo7VyJOuS7C+G4cVGX4LSarMSgb8RgbyAACIif//znIr1dwHLEXWmO231DQEDaYJ4l2DWEEAnSBWnXrFljKG0JOqhIQ6oQoGxTPod3qEY5pfZy0nMl0DpsG98LK0Q7efz93/+9r7LceOONopZhZViGoqXg8wOElOa70Tf51CSQjH0XeYBbYFDiiaMkJvhw+CJpVR+YoMqizs1nHgHqToDzzz+fgNoFkKzBMxq0HkPyD6oaVF0IcKopwTLyVbC6fBh3gP0NJKtJR3AT5HRcicjPfoy8kXmYRA0AudEVi/SU9qCrxm+oLEebl4HsCfD+EUK+Q2SBHmmAW3CsxiAu5gBfeumlAgQFN/IFBAyDjuBwXRCA1OWDkljpCb6gLq6AJBCDZcE0+di2L0f0Jvhqqj4EqqsCEdyU0LrHAF0DvDiAVvYbrMPJyknENjN9yy231KPt1Ms5abjC0WTZbqtGKogswDFo9RgpgrueYOUgUz2gmkIpCreLZfDiuMwTfJSyBKOqGLnSWi8s5GQITgil40pAP5Ij4PAOi0BXzX2BW4dtZbvyPSfIn3W2bdsmQGd/cMLrPiOq4GYfRBbg7gBbQMvgciNoN171Lo3VYc0111wjANfBz5V26wbjnChWZfCLVL0JKyORlvsVvAg3sBsgqasJcFV9OAHvueeeAOkgD05k1wHAvhqDL4pkslCaw+2EH7pUMbfgxk4PQAouh8/iH2LKwmqSBUiyUFEkzXym6QEwJqWMaXVaJ5jGisAsAoTqRAMT0HGFFyYHk0Mcn0m+tt6QMh7SaDtswXLtYaS5MfTba8uHBS4PfZdhRDaDh17WUf2JtOMFoEg7SK/leMFvYolu58aL0o0SXaW6+/KUopSOXM5PpFO+5Bn23HzPQvufYLlt03vVk6W+XV14X+WBfM+OQtm4UFEwkD+AxFoDcK+mCS2XmvCzn/1MxjQM4NycEZy6Wcw3+NSNqeOGueDmNYwmLI8bUUyU6rAy5nESqdu8ebOBRNekG0r92tpavktOXm6FsR4fFwDnIAHkGwHyjQB3g5VgQ8ZOrQ3MtIc7lHbVBDXBw/LROk6CXBPBBeJo+ZGOm+TRtuHb3+ZPhed2NCvSjwc3bgAOcNdjQBsIEt4/oYkvbJC5+bJqxLWgvxf69GJu8BSw3NxpPAgQbl5dW7qW05THOrTBuyZKgp1mP+jfojopfVjISRncPLp0mMC+1KaEzufCJng++kLZGOgBAFw2m7pp1M2ebu4AthE3cuDhb1QDm8x6FN0f8KuRzv7yl7/0N5DBjSYmk5RhYribz52ottTtUvIZyeXbZOI+epbecUxk3GdENT5uJDgG8CZKYlURKDVd9+CDD4ppjzT5XJj0hvTchTo06YkDeKjfbuCzVK/nisFbflpfpTelMnV+a7bjysK6VI9cR94nwy9nfer3lPxcMeDWwmfhG+Bdx/w2+KW8m8JViaqXXZ2+7BJGOT4uAA7ALcMg1uvGj2qCHWh/bHMdzPgEo4zgWfUgfRy+nuqMTiiCy+r2wonPYxlPI/Ukk3q2Bfhq8NkFwjXwKzCBViIUcyQCUbMU6KDnYdAa+KCjCbNeJxIL7fPXKL9ghSimxwXAMXA3caBVOlOaBh2BNhrdlMBUKRzkAVBStbgf5dUEtz6Pur47oVhfJ5SGfDalMj2BjklYD78M/HbDL4enWwG6BrZVN8V2QvC5QVePjAZdQbhi2TasRDtjSgywU/pH1kUe4BjMBoyeP9BUCQAcDijVgGpG6LgRdEHo5Q7/y1UgCHD7jLtB3UCA0hSokjvMYkEwE6R0VE94cQs/5yZXdVmfz+BRvG3nfwH/S4XY/lGAk5bSP0e7G9hO0tDxarB1yxDS07EPuJmOrIs8wDFyywg2SkU6x3LyBMuYR8ejeoJsJBcAdzXAtwF1FjOfUlUlMvk44N6FZD28OJyqKngl7U4GlfrOaiK8Wcd1nKisx70DL5EpD9KoHZw6P/PJa+bMmcbeNW8gjbWF72I8yi7SAAf46jF4N+kyTVDYzeVK5HPp950Cy88YXYQrwGK9zKVV+Bx8G6nPegD5nEyPU9IScJwE7kTQem7oSNx2tE0+1nDLNR7GK2gH5+TjRtN13NSGqWouTRTikQY4BuheDtK5554rSzVDu5yvQPYylql7lzo4l/hqSlCuEKp6WF4s4waRp6icCO0AvQBVN5X67GBIfvRwK+Eb4KvBB0HBFXrA6QEAazE8N1Xi7CUjSlNaJJYzkxej6J0LSEKb68/q1avFtg1JTJKd8MKH9m6Hx/3Ir3eawuexLTvhR+ueA2E9/M7RVngXdDvdNkYxPi7EAgaeYFsOT7F4M6ThGuQxfTe861ai7GY3Q+OgX4q4rAiah5Bfw1yGMurh9fAPwJPHRoTDHOgoyRvgGeZz5LuGBKjzDQQj0ZP03TheuPrBu6lYqPMB7AELsBPeMvClpH2/QHjC2zueGI4LCT4WBhQfwxfG4j0OFLYp2SALv1Pvv395dVl/6R2pgVRDKg2fShn1A6mBbCqVjvnpgQGDf0zJDDBMpQ3uOZg0PENcejDVZablwpOKNl6zsKQx+MBCutAD71sPZE2zScTWxK59ZL0+QwD+85/8z3oTN6sB4HqA2wDkAPdAdgCgTgPoA6kUAJ6KCaAtsAl2gpwe93g8cEMMZdIAepZgz5ryRLbzzoaKx06eXOR9Aq5PLYSFHng/eyBmjpp07G9jn33kaFyeo+AmaAcEzL7EBrhFUhPcBLWGAmyC2YKb0tuX5JKfMV196arvPtf16bbuTOn7+T4F3oUeGNIDWfyTMUXZ388+/Jnyogf/7n/clMmmb6KEptSm9B5IW3XEA3UWYPbVE5XclNRUS6iSiLfSG5stSHBPohP8fclUaUcyk75gTmnoJyZDGlZIFHrgxPVAuSmKDcTT2fQ3IKVjlNSiZ1swQ1JDRUEe0oxTYg8DtwLZgttTTTxJTnAr8JsO9+e/gY+XOto5UPrkmua5Tfu6+c/wnXC3obG95qGndy/gc0448+NgiG4xGYee8eP1TnWJHm99lz7IK1LpdPbUBEC7GD6bTkEF8aQ3QtlExhTUBLb6rFVJCF5Pgme9UMA+qIMrHYG+t22gbqSOe/zZPQue/u3+JVdcMnvd3Lp5G5V+w5ajNSuf2LlE08Hwh3ed94tgXlj6idV7ztm0vWNBd29q3VeuG+QfRuvmjfR8lzYYLyspSn7nm4t/pfkbG4/W/M3Kxk9ftKhm49dvPP1l6ocrfvLm5e2dA8c1qe/4whmr5tZWyL7maGeydMVP3r5Sn3E84byTJjbfjnYcT50xRRsz8xOQ0ARvDODO+qqJJ7kF6FpOa0l1dbX5+tduNSbdb37wv+4zLS1HZUPJj0M8XdyqJ1BfgHcAn6pKGpJ8mPVG+mndq4dr97f08p/aM929aZGsb25rnwtJm2ReRXkiWTmxONl8qKeuckJxZ1Vlwt+sthxN1vQPDNXtn1zXPLe7OxUqoadWl3aS5/q3jy4gX8bDHMuubqht0rKOrlQpn6/p4wnZZpe+cVfXNO7q8d4X9valS7/95TPX7WnuqevqOT6AuzzbOgbedfuqq4r9/nR5unGueG9ubatx88LikypKkucsqG5lGVeIdky8519vre3BeMycUd655LzpzXHfZjfIYQ0wMJgajJHfojOqW8PqkP8bWJE7uvtLzz5tcuuUquKc45mgtPZUEergALumAXKCGiZCqi4AadrMm3uKmTypwsQyCTNrxnRz6FCrp2+nPZ1b9G9uNoFuleASEu0h7tn1B8+kVHWLCKZHV+0RQBEgNy2du4rlZ8ytavrMJ0/miaG4H/7r5suDwPvFM3su7epJ5ZWGR9r7poH/5conGPKZLsC1fOGpkxpXfO1saYvm5Quv/4Pf3h4sv+GKkxs//KGpzX9139vXvfL2kcV/fO/Gqj/92lmPKt2eA91VP35wy6drZ5Q33/GFBc/89OGtS7bvPTYP0v6xObMq/Mmi0lvrMWSdH951/mNuXq74jr3Hqu66d8OyXOVu/jMvNM99dNXenP2ltOwfAHwVwXf/4zsWP/vSwQtdAfTAE02dn7x45sufvbK+0bNseDX5vsojGHIs/uS2sx6bX+etViznhMOqd6WOPfum4fzpOfd3CU/3Fv2bFhKoKjQNEuiwpqRTEocUhkaSjb3xxptm3pzZpqy0yGzdtsPZTFJieyDn5tOPywaUUp2vPdx97MMz31lwyqR9BBwkbOtlF8zwAUxqV9ISEPTDuQzmXPeJOWtzSfBBqvwx95kuZV9fpiSXtHHpRopDLej8k1s/9Iu/Wbnpqhs+NeclglUXOAgDkXHoNlM/u6KrtLSon/zqZlZ0Mi28Q6Qg8zu7UpUP/Wr3EGEh9CF/urHxD8kOzZo5bULnWQCvFgJglQQXwVdfO8EH1un1k/aRBoC9kCsU46XF8eTEiYmuI239NVilqh59du/l3cl0aZiKOHVySWtZyaAkbj7UXcs6f/a3b9z4l7+/6MG5FuQuuPmMkRx1cNGvPXCnYl/8/I0mm06an/zDA6KDe4c3+NfC0Ovd3b3mjc27RR051t0nwFXzoIL6nr/4pjm8b7v5ix//wgM61ReAPswt8WZeMwFeVhpPfg4SLkinoFo4f1LjZZgQWv5vT+9c0tLWP03TDK9e4qkWnOXtXf0lbtlI8erKkv58S92OvV3zMHjzRuKTr5ztOtrZXzIfIL/vTy98kLQPPb1rQVBCHmjprf3snYMrwB/d8/rNyjfXSuIBKPfKpPXd0JWkbr4bp3R0JaTX3p46qot3B1Y07lcU3A3nz3j56zeeJvo9V4yfPbr9o9vRh8++fOjCaz8+pzHY13d9+UNPuisT63xv5aYrOcaPPLP7nLugzmm7uE+jKqtSXPPDQqookNRyoCOWlOrKMpNNGVNSnDDH+vutbg2lA9Jldt1J5tav32l6jnWaQwf3m927d4kqAoVENprlpaUm033ATC3p9OoB3PlUlLAGBfOO9XhWjz37e2off3avr350HEuJ7h6kZ/qH/9q4JKj6hNG5ebmAozRTq8taFs6vatK0hhiIWnb0vJMqd0BNaHVBU142qOsT3H/yg43X9fWnS6/9+EnrroKe79JSIlZVlnS1HO2toZCumVLe2tnVX0ng1s6oaO7vT5e0tPUNmdDaBoZhK6BbHhafUVM+og4eVi9X3jMvHDyTZVSXFNxMc9X6w68s+M3X/+rVuv6BdCnVns9dUT9MmJFWHetceWndyyufaLpqc1PnXOQLwO/+2od+NaWqNHnHd15j3ohOVBTPWuKZAe/98X04ncyYY909Cm6EmdhFH1lirv8spHv/MVMWT5pv3f5V853v/9Ds2rOf5QJk1vnj7/4b0jjdlI2nbj7DJXiwdQTBC68frn2nqaOOLwX99LFXNh0RqTl9allrGR9sXcvR3IOtNN6yV+TX0Xw3BOBKsITmBI7SzpxW2hpmcfgRlmQC/JzTqpuoXyp9MKTEwirUtObVQxf+8y+brtq1/9jLLr9zzpzcyPTN//3Fm+fUVuyjvn/33715OSZq1Q/vOvcxrmT59FWugIfb+qqOdCRzTvxgm3BXUdSK4fnvLqenz1N9Zk+b0BLkQFBOmpjoDK66QTo3PXHCoMqi+eSj8dGECRzFx2gpoYrCY/pkMhm77fY/NOv/3zqzd/duU1ZeZs5etNhc1tAAyd5jsr3wqV5THusxy79xo/n1cy+Y367fBDUkbU4/eTImRq9Z8/peAb0Cn2EuR4CwrPlQb+1Xl78EE43nKickuta/1VK3aVvHAko3mNvkt9A40F3HBkphfah1NzFazw1vuOKUte7y6pZpfCTgKN3BlmSNtlXzGFKCM9ywtX3u4Y4tw8B1yuyJLbpppVQrLytKPv38/iVcymEBGAawkTbJfFYup6tJrvJgftzLyDkpg/QjpZMQFqThO4bRlpRwRes3h9vCJ2EQJTAby56rfvagrh/GN1+emAk9cPO0kvdK0sBwd+zzX7oF9p4U9PFekx0gsFsRdsP212sM0wC5AeAvP7/OfHzxFIkb5K15fY957lWV3J41hWpKLkdzGcsIaEquBdisfPjsmn3Ux77zT+98lGWf/J1ZosvR5utKMQKf5e+nUxWJ1pd1r+ZeNaij0wfb0nZqslEBzjJusCbAFHkEg8zJB53WnxS632AfuHxa8d5uOixeBvDc9ZWFq7j3IFD+1lqZqK9eduHMHVrngV/uuIiT9a6vnPkU9x2afyLC3uRQs+3x8Lzv4W1LsEL77eHZgOrYX7xm3kvHw8ulTQi4IcWppqi1ZM2qp7NnnTE/RgCL1B7wwMw4QSxAZ8g0wM68jIC/z6x+vRl8rNnQhvkk+C3Xn/oyfXDTwUZiY/FbDHqTSmEuTzAbPkVLSUVFIvk7i3Obh1j/p49suwrmqVBpwvLRuGPd3h7ggg9N3eiaKbXuI7/efQ6tO0EgaXkYiGguDM55qhZo6+W0PHz4rBoB+DRru79t+Xp/ZVO+GnYe6xfwU33z+jCDw6O3xYy2BBu9m6/1DrWamrsru7oGSg+29tYcae+ftmlb+zR34im/9xKWQ016t/XDhAP74urL6nDwN2gmPF7+tKJ44IbeTVMgwbhlc2Osp22vKSuCLBAJDsktgFbpTVAD/AS3lfCU9oc7kmbT7i5vY0l+Yg8n3+DiM9jM0Zh9ILUHKzix37x4INT2O6EUB0RYETzSwd8A0eV/sMyjYJp1HNZ+VJfTk2dNaNFdvvs2uhxXlBYl6+3pola2KoAm/ZCS+uf/vnvJVUtmy8rEAqpc3FBe/4k5q3RAedpZM7mss9Xq1m9BXfOZ2EhHd0rUgqmTSjtpefizH79xQ9IegG145+iCL/7RC4s17db9xW/2LjnRAC8t8cya7nNGG6cAqbCqDTfnNNd+4ndmN4UJvtHyJF1CJDekN47daesmOGNpqCnPrloV+72GRVYdsYAW6e2Cu0/UGGxW5P+1b3V44CYfB9zkm8udjc1ZrhO1bbu6sFOOmVPrJzaF1eeghuVj+V2HfPohjhs4gvz+v7z4/iEFeRL7D/fIKR7twWHH4p1dA6JirH6tZfGLbx8ZAsAvXTPvt+ctqB624Vr9ysEzqfLg2oCvenCTeeVHaxtPgfXAnUCftaZT6Oy1YQCH5JMNcgVAQcsDrS98nSlVCb9vWI+WjY9fPGvDwnnVLf/yf3ZctHV311zez9HTxzxdcNxFI210p08ePm5cHVWAHPcD81RIyP1tC2yxZXumvdiWbU3migtne1LaV008lcXATh6jfu5+QAHb1uo328Rc6B32APty+JP7oIft+opdQsPaSEAC4NnjOUFUPpRm2BR+/I7P495GjiWONH9zf+OVlKS5pFlHV78AmEfCbR1JORbn0llSPCitsBfoghmvjJ7PhymshFKzq3u4LZ7P5MTl/oF2f9qVWWfDO20LUBZ6bM3yvhz6bavdsM2bUykT6d4/PHfIaea617yJUV1V0okJJILiC1fPfXnSpOJ1NcdpkWA78jmctrbQPLtt17G5tIi50pfvrTo1hUU+PieyLDH4JY7YsmHvzkCCZ7Kbmw6YLVu2xk6dhTGzAM9AgseyaUhrSOTY0AV40+5uc6gtKRKcE0UvYom5MMdBj74IbJrX6ctrnhuGHXvnO5pmZ/4ljsO55D+1rvnM2+2Bg8uT8Xd2dtQAhFUPwGy3M2C2Yzn50KxFMHKwCHDmz6+vbMo36Wht0QMP0rvulTdbxfpz+smVQ1Yl2oc7u8wkl9aNc9K4aY3vau6SScEJGHZopHS0RuHwaMgKM9Ixt9YdbXjtx+oan8MRfRLvQtVz2TXz1p1UW9719taOGu4vyKcKfal7qtHyfS90CerHHiDTCKieQO4ihDf3P73NTMHdE9q1eaGKp5le3FpHaOsWKZ0xh1o75ese1rOqjujems7XyFxqSj4VJZd64oKbel0ucLM9PPmsm1H+2Hf/qfHTCkjXNv3K260CnjAzlatG5Hu3YNmvXzx4IfOCloEL7Q3DIL2mqaK4FiTm6wTkZOcEDB6rkwaSNPRonWW80MTwRDkaAX73wpkv0wxKgfVXP3vrRpc3V77bP39a+D994RKewLgAnJj2QOmBHSoGVPFs7JJLL8kuveZT+JaTl60GILkhvRH30jjuNPBQVZj3vx/6jflneDm5hMpDfuLtgU++NudSU45XReHmjZYT2scXzq9udI93cz3/nNOntH77ywt8kE+fUtb5uU95VwZefNPTqS91rgiQD81sAJsANYwvgBeqajz0q10LvJPJ8uag2sQ6+XiG6bVcDfj8s0+dLGZA3tijd9tEFQV86+bg3sif3jb6y2Iuj/D40BVcaWgGpbr0+LP7LuJ9EuYT2Nwb3PH5058JvrfWe7/CBKC9BlK2QYDpSeMY4U1wrl3z29jbb76FeAYSnWZETgBKcoKXoKcE96T7wUMdAuhBgDOfdBkzvap42EaLL2RP6oYsm2EvGqaiKJ17xI6jfLnBRsmt4P7HX+xYzCuypOcGE7rzMKlFkN9wZf0qLKNXNTZ11oG0cUPj0WmUQlRPgkvqSDZxbVswVOl98dnT3gmW8Vn51LQgPdPKD3d0dnByByW8WydMRWH59ZeftGqkY3OXD2lHomd/wT9GPZx2+Xybx0fv+eiPXP6jjY/qOwB8hIxNZnYtpHWD6MoAI47pgUvPXHj4cJs5cPAILloBqFYSE7CedGboxQXoEucEgFDnUT3qqFrze4un+h8wuC9QU13WUTujf4jEcctHE58zo8KfPLyn8Phv9i1wb6tRmjz/+uFzyIvmwEvOnT7kxqI+w17UekovbJ2zYEoLLwzVhOz4eTcE+mbOw4e1uAb8VuAaMJ/DA6sNm9vmhV0qOwuXyYIrhbaN4Y49XdO49Lty87wzpzRu23usjlKRY+be+nPr5ou/nxs+qk3uRjNfO96Xsiy+sF+2tKE6Xly8AWrJyVRLREoDnDQVAtiS9lUNa9tWGg/gFuhW9/YsKDJRRIJXlsU7f/3H56x8X17gP4EpD0xGunmokmskuhPR/KC14kTwjASPrDka+8yjK3hxzQDk9RkTWw3hWw+7OFUSSmCCmyCnpPaADhB70lqtJJ4Et/QiuVUt4aQguH/0pdMfO712wgm9tRaJASi8xPvXAwC3yXo/GyEA1yd9/pqGm3Dh6hsA8SJgmSecgwC3ujc/QxtUSazqIl/0QC2xE+CkqaXNZ8yasO+/XV63sQbLlPL/YIZodMFFpAfi2/H7Ptth+1iL30TBsbsx/x8f6CR4DnPJBgAAAABJRU5ErkJggg==;" parent="1" vertex="1">
          <mxGeometry x="322" y="350" width="184" height="138" as="geometry" />
        </mxCell>
        <mxCell id="ch1ERGyDjhr7xlRFQsl--3" value="" style="shape=image;verticalLabelPosition=bottom;labelBackgroundColor=default;verticalAlign=top;aspect=fixed;imageAspect=0;image=data:image/png,iVBORw0KGgoAAAANSUhEUgAAALgAAACKCAYAAAAZgYBhAAAK22lDQ1BJQ0MgUHJvZmlsZQAASImVlwdUU9kWhs+96SGhJBDphN6RTgApoYciSAdRCUkgocSQEETEzuAIjgUVEVQEHaUoKI6AjAWxYBsUe58gg4I6DhZsqMwNPMLMvPXeW2+vdXK+tbPPPnufe0/WHwDIIWyRKBtWBSBHmCeODvajJyYl03FPARbgARHoA3c2RyJiRkWFA8Sm5r/b+9sAks83bOW5/v37/2oULk/CAQBKQTiNK+HkINyFjOcckTgPANQBxG+8KE8k52sIq4uRAhH+Tc4Zk/xRzmkTjCZNxMRG+yNMBwBPYrPFGQCQbBA/PZ+TgeQhyXuwF3IFQoSLEPbm8NlchI8jbJOTs1DOQwhbIPEiAMjI6QBG2l9yZvwtf5oiP5udoeDJviYMHyCQiLLZi//Po/nflpMtndrDDBkkvjgkWr4fcn53sxaGKViYNjtyigXcyZrkzJeGxE0xR+KfPMVcdkCYYm327PApThcEsRR58lixU8yTBMZMsXhhtGKvdLE/c4rZ4ol9iQjLpFlxCj+fx1LkL+THJkxxviB+9hRLsmLCpmP8FX6xNFpRP08Y7De9b5Ci9xzJX/oVsBRr8/ixIYre2dP184TM6ZySREVtXF5A4HRMnCJelOen2EuUHaWI52UHK/yS/BjF2jzk5ZxeG6U4w0x2aNQUAwGIAGzAoatMEQB5vII8eSP+C0WLxYIMfh6didw2Hp0l5NjZ0B3tHR0BkN/dydfhLW3iTkK0S9O+NcgZ+uSMj48fm/YFPwbgsA7yWHZP+8wPAqBSAMCFGxypOH/Sh5Z/YJCnpwLUgRbyu2AMLIAtcASuwBP4gkAQCiJBLEgC85Fa+SAHiMEiUARWghJQBjaCraAK1IA9oB4cBK2gHRwHp8F5cBlcA7fAAyADg+AFGAHvwRgEQTiIDFEhLcgAMoWsIUeIAXlDgVA4FA0lQalQBiSEpFARtBoqg8qhKqgWaoAOQ8eg09BFqA+6B/VDw9Ab6DOMgkmwOqwHm8EzYQbMhMPgWHgenAHnwoVwMbweroTr4ANwG3wavgzfgmXwC3gUBVBKKBrKEGWLYqD8UZGoZFQ6SoxahipFVaDqUM2oTlQP6gZKhnqJ+oTGoqloOtoW7YkOQcehOehc9DL0OnQVuh7dhj6LvoHuR4+gv2HIGF2MNcYDw8IkYjIwizAlmArMPsxRzDnMLcwg5j0Wi6VhzbFu2BBsEjYTuwS7DrsT24LtwvZhB7CjOBxOC2eN88JF4ti4PFwJbjvuAO4U7jpuEPcRr4Q3wDvig/DJeCF+Fb4C34g/ib+Of4YfI6gSTAkehEgCl7CYsIGwl9BJuEoYJIwR1YjmRC9iLDGTuJJYSWwmniM+JL5VUlIyUnJXmqMkUFqhVKl0SOmCUr/SJxKFZEXyJ6WQpKT1pP2kLtI90lsymWxG9iUnk/PI68kN5DPkx+SPylRlO2WWMld5uXK1cpvydeVXKgQVUxWmynyVQpUKlSMqV1VeqhJUzVT9Vdmqy1SrVY+p3lEdVaOqOahFquWorVNrVLuoNkTBUcwogRQupZiyh3KGMkBFUY2p/lQOdTV1L/UcdVAdq26uzlLPVC9TP6jeqz6iQdFw1ojXKNCo1jihIaOhaGY0Fi2btoHWSrtN+zxDbwZzBm/G2hnNM67P+KCpo+mrydMs1WzRvKX5WYuuFaiVpbVJq13rkTZa20p7jvYi7V3a57Rf6qjreOpwdEp1WnXu68K6VrrRukt09+he0R3V09cL1hPpbdc7o/dSn6bvq5+pv0X/pP6wAdXA20BgsMXglMFzugadSc+mV9LP0kcMdQ1DDKWGtYa9hmNG5kZxRquMWoweGRONGcbpxluMu41HTAxMIkyKTJpM7psSTBmmfNNtpj2mH8zMzRLM1pi1mw2Za5qzzAvNm8wfWpAtfCxyLeosblpiLRmWWZY7La9ZwVYuVnyraqur1rC1q7XAeqd1nw3Gxt1GaFNnc8eWZMu0zbdtsu23o9mF262ya7d7NdNkZvLMTTN7Zn6zd7HPtt9r/8CB4hDqsMqh0+GNo5Ujx7Ha8aYT2SnIablTh9NrZ2tnnvMu57suVJcIlzUu3S5fXd1cxa7NrsNuJm6pbjvc7jDUGVGMdYwL7hh3P/fl7sfdP3m4euR5tHr84WnrmeXZ6Dk0y3wWb9beWQNeRl5sr1ovmTfdO9V7t7fMx9CH7VPn88TX2Jfru8/3GdOSmck8wHzlZ+8n9jvq98Hfw3+pf1cAKiA4oDSgN5ASGBdYFfg4yCgoI6gpaCTYJXhJcFcIJiQsZFPIHZYei8NqYI2EuoUuDT0bRgqLCasKexJuFS4O74yAI0IjNkc8nG06Wzi7PRJEsiI3Rz6KMo/Kjfp5DnZO1JzqOU+jHaKLontiqDELYhpj3sf6xW6IfRBnESeN645XiU+Jb4j/kBCQUJ4gS5yZuDTxcpJ2kiCpIxmXHJ+8L3l0buDcrXMHU1xSSlJuzzOfVzDv4nzt+dnzTyxQWcBecCQVk5qQ2pj6hR3JrmOPprHSdqSNcPw52zgvuL7cLdxhnhevnPcs3Su9PH0owytjc8Yw34dfwX8p8BdUCV5nhmTWZH7IiszanzWenZDdkoPPSc05JqQIs4RnF+ovLFjYJ7IWlYhkuR65W3NHxGHifRJIMk/SkaeOiKQrUgvpd9L+fO/86vyPi+IXHSlQKxAWXFlstXjt4meFQYU/LkEv4SzpLjIsWlnUv5S5tHYZtCxtWfdy4+XFywdXBK+oX0lcmbXyl1X2q8pXvVudsLqzWK94RfHAd8HfNZUol4hL7qzxXFPzPfp7wfe9a53Wbl/7rZRbeqnMvqyi7Ms6zrpLPzj8UPnD+Pr09b0bXDfs2ojdKNx4e5PPpvpytfLC8oHNEZvbttC3lG55t3XB1osVzhU124jbpNtkleGVHdtNtm/c/qWKX3Wr2q+6ZYfujrU7Puzk7ry+y3dXc41eTVnN592C3Xdrg2vb6szqKvZg9+Tvebo3fm/Pj4wfG/Zp7yvb93W/cL+sPrr+bINbQ0OjbuOGJrhJ2jR8IOXAtYMBBzuabZtrW2gtZYfAIemh54dTD99uDWvtPsI40vyT6U87jlKPlrZBbYvbRtr57bKOpI6+Y6HHujs9O4/+bPfz/uOGx6tPaJzYcJJ4svjk+KnCU6Ndoq6XpzNOD3Qv6H5wJvHMzbNzzvaeCzt34XzQ+TM9zJ5TF7wuHL/ocfHYJcal9suul9uuuFw5+ovLL0d7XXvbrrpd7bjmfq2zb1bfyes+10/fCLhx/ibr5uVbs2/13Y67ffdOyh3ZXe7doXvZ917fz78/9mDFQ8zD0keqjyoe6z6u+9Xy1xaZq+xEf0D/lScxTx4McAZe/Cb57ctg8VPy04pnBs8ahhyHjg8HDV97Pvf54AvRi7GXJb+r/b7jlcWrn/7w/ePKSOLI4Gvx6/E3695qvd3/zvld92jU6OP3Oe/HPpR+1PpY/4nxqedzwudnY4u+4L5UfrX82vkt7NvDcUQ1iNhi9oQUQCEDTk8H4M1+RBsnAUBFdDlx7qS2njBo8v/ABIH/xJP6e8JcAWhGJrksYnYB0IoMM18AlJEhl0SxvgB2clKMf5kk3clxMhcJUZaYj+Pjb/UAwHUC8FU8Pj62c3z8616k2HsAdOVOanq5YREt3+xk/bR1wT2K1QrwD5vU+3/p8Z8zkFfgDP45/wkcExr2Apx73gAAADhlWElmTU0AKgAAAAgAAYdpAAQAAAABAAAAGgAAAAAAAqACAAQAAAABAAAAuKADAAQAAAABAAAAigAAAAD+FNr1AAA8pklEQVR4Ae19CXxdxXnv3KurzbJk2ZZXCSNssxgHbLYAKTGiCUkoyzOE5AWyYJIfgfxeCklJSvvra7G7vNc0CSRpXlOStpi2j1CWwAukvOCAl8ADzGKzGHmVV3mTbG3WcqW7vP//O/MdjY7OvZLBtOjoDoxm++Y7c2b+880338y5NqbgRuqBWDabjYHID7WCzTcaar4NWSfMuflu3KcN4ec+36crREbugfjIJOOCQoEmQMIbu6GJwTFPQ8TjBKGXbeIrVqxQevan+tjy5cs1LvQWuKTVfHfS+HmWcVzrox6qmJg+h/m2TJ/LsOAKPTCkBxQUChIB2Gc+85kielAmGhoaEuedd14x4vQJ69245jEsVlrWc2k1nzQ2X8vdUMs0FJ5Krzwc3gnbTmm3I/V10qBqwY3XHhBQq4REJwigERJcperr6urKES/XkPF8Xuk0VFqmNc+N19fXlwVp3HLGZ8+ePcGlQbzM1itduHBhCT3yZDIiLNJVwgE8sgtuPPWASDgLbgK7mCCZP39+6aFDhz7R19f343Q6/QYA0gb/QXVtqVRqLdvKNhPwfAcr5ROu+oIX0JVqPI3x+HxXDrYCm0u9lX5l7e3tX81kMrs+qGgeqV1sO97hFowqVwSR6AhVmo/PwR5nb+3q2SK18f5lr7322gIrrUfC0JgoJ9BfffXVM/BuVLOobvFdqaMXpDg6IZIOyPT1bbspo4QrO3r06K0ARPuYQO5xNJLvdPjw4f9KlQvvqRtWseJEcoDH+0sR4KqWoC8I7vKDBw9+7jgwMyZJW1pabuUmVTeheO8CyCM6GSjBi7gB42bs+eefXxhFyR2chXzHdevWnYl3p16u6sq4U1Wi/sKinmCA41iyi7Zv314MnXtTPB6fg7zcLps0meQWk0ntNybTarLpzgAt2JIzzl+kA+UcRv5IHnNjLKTzjRhZyfWybZmU8w/prZNDHT+luQhRJ1GDN6kysbJ6rENUtfM7WFreKi4u/gioUtZnOBFwkOQ0ID+PsV7KDUikHfRuoiUOcBe1trZ+cSRwZ/qbzEDHv5p07/Mmm2oKATe4EYQZeITACzMkS6LSmxkvX2CU8eiFHHRSjiZJNWYyg6H1hDrzbBo2TS/O/IFWY5JNxrQ/a8zhfzGmd7Nwy/UnkUicBTPiF1Auh0EM9fg1V52o5XPwo+r4bvS0JNCXQHq/lQ/g6Z7nTbrvTZCiovYMwaaOeU5aSJy0kAXSIiu1ni0Lq+fL1AAtH8grATp5BPB+e0A88QJjKuFzOKgqe4qKis5CcT98ChM++/DDD2fGixSPtASHrVslV1FjY+OSfODO9L5iwU0UwvuSUxFr8xRIKFfp7dMKCkmnRDZqpf0QOuUfDJXWbwN4II8TYAi4+Qy2oXM9/PODDwzE+M5bt279KLLFZPjII4/IhAmQRTYZWYDDchJbs2aNDlwcFoUrNREMM8nNUEnWDwUQiQSrkJICQi/tg1SZuGAW0PkVTQzaiQ9KpdPQkslkQJ7/CD9CgsFne5MJWawPvkPCzjeM6YPqksPNnDnzahTFscmWCe/zykEfpeyoApymQY6TSvA4NltcpkNdpme9BxiWEkDqJa16MxOOExpbRknKNJ3WZR4TmvZKvb8ipS2tnw9CBa5UQoFPRyZwwsth6D70CPRybI7DXEVFBTea8V27dsl4663EMNqo5UUV4MZuLs2MGTME5CUlJR8KG7xM32ZvIwnc+HhRQh9QXhkln9B4fzwqiVPSIunnWxBqGSmZ5asfNoN6B2go5VUFEV2ckp9qCcgkTT6sqxPA52XpJA1wHwvfdELfnlNdXU12dBp6qYj/5ZXMSDocdAg+YEXg+9F4MCnsRWk1EVOeDDuQQrCIUxwgZJ6AFSGzfRoScgPoZQgYuTtVWskmKi0PktMJPy/qpZlh69mol3brCjNLRvBrQxzefTBrVi5yGHtRvjvuqsSnTZsWnzRpElc3zCkxFw6jjVpGJCW41b8VKiLBcw6c2LhBClAKQEkoSUprsrBliBFSLg2SKCYI1ZEWcfWICIsMaEgn+UpjiVw1ROsJOf6wnu9RiHg2zULwFYnu5clDyD95WBsSFsY46WEuldcA6MNoIpcXVYAbWFB0BGVAc41clrZlAouOaNS4lyNpH9ROntD64ESBxgWQBB498z1AenHkpZmPPJYzzmdK2vKQuC3nIZHlGyuai/PIS0CEg0nhafmSRts90IHynE76ARtN9g2q4LnenM1ZIQoFkVNRvJU3Zrq6umRAJ0+eHGtra8s9VhxnUsqAIyLjLn9sHeZpWgg9Gs0ilUpnidtqZKTgUxoJyQNOeSqfbNrLH1JGHnETKzkNW8SZiKdMLN0DtvbkU3gA6MISf4bNxEGWNhbDRpNeTYX69GGEUcmInAS3S28WV2Fl8ADu/INIkJBCwTgEeACNpkUig1AkqpWeKoWRZL6oDaT381FAaUu1gtJawrSnZgiNV061I5tmPkBOn8qYGLzwKQa4iwBucThxR72Y0KFc2o0/2kamcztOA6HAvRzRw3OTRqckcgC3g8jBpDeU4AzzOgJEht6SKlAIJsbFo4yhD14btypFDGHMAtikAEQLVILVAzZDMPBpCGbkSbmCGuUCbACefBPz4BXcth3yPNBpm9kmevLC//nclClTpLiysjJ79913s1bkXeRUlOCIQaLnH0gtBZknCL0MUQKQocWMxFxVhBkEuwDNUnFC9HcZ09NqYkmEqT4PdCymL6k0pmo2Zh7rcRLAtCdVMXni+PQyXgaNpAjPQbp0NujnDH2dTK8HZG4Q8T8Soq4wHotBVrE9o3A4AEO3CAP+GV2lUfD9IJJEEeAychw4bKiy1DcnTpyYu+/94QU4iRQ/TXGIHA/1Xr7GCSQBE0L8H+veb+LHdppY5y4P2FIOXrKhZEvgJ0wzZvoCRAB6d1LIpKEEB3ihb5vEZAF6bBKkd9AlYQakBI+DTttCYDM9gmMf4CMPpWKL2E8jyHwlH7thFAEug0c9E3o4BzF27NgxhuFOqPGHIcHGQIDtxYgjT+KijGRURYgNqATxY1tNvGurifUe8KBCYMedR5EnXc3pxsyCfZrlAm7kCVCl1MvnQoPnx5Kw20+/BnzKbaENsLk0PXs9MGcwIQhq2WxS90fbRKo7zx5a26APJAdXFgyuDpuGhgZjT3sDlNFK5u6Rsf2efK8iDGbxvn37iiG9SmFVCTUSD+z7kfemrCFSEREBoaLTA/YgOJHfd8Qk2l8ysT4Am46k9Cqx3XAGbgjMONsDMYFIXVn4I2Sak4qATXMDiZCev05x0k0IrUsB3EdfQhmkP4HNSSSA1jhCOuYv+AMvHvgLlWQ6sniWP2A9Hhx9CW57Bq8aIUcbLyUUwG24scorweW9gU6RrkgI6JAmCAWQCIk5uyGMt79lilsfN7E4JG0Zuq+IYLOdx1DjzKrEBrH2XNBgoYRujUoWmEqIEOy9SpqHZBr6e9d2Y6D6mO4DJnvoBVwzOYa5YNskIeOgFY84+dDncAE1Te/q5KCOTnYUVRQIN0EZ/2Shd8YCgztk9Gj9oF2ZgBYtgcCmE8lK4MADUHJfpON1U9SLm3sTAdRiALYfZWK9sHWIbqlvw7mXYrNYAbkJycvWCBqVhmnr9JlMkhV8dvfTqDtL3iUmUpv5qIsJlcUdMnnFONBNvV2dNkPTecLxoJ7w9Z3eydMbY69I4IRmSwgJnnvorQQUWwuAJqEvIVENE4Dmv1jba6aoayNAB5blADelt/Qe0Wg7iEBlnJOjDJvFMlx/KS71pLbQsDlCgIC0OTxoYgdeM+YIpLiaEUXtAV+211dzlJ0w91gjK8wF+sA2Ysh6E1ZtzOdFDuA8yQxKp3wSnCPIe9u+jk1AK6gJ7BTA1rnVFHVu8KYL9VzCYwB/6Ak8podMCmSUVqMcKm9PJ2ig4xD0uiqAv6g/1Ld5gqm6N/PJbABqcne7gDzb1+kdArHMrhZi2XEnB2oJ8NmO3C6udnCQyMRHmL9Gbl5jpiRyKgrUExk0WFGMnmbmHQ1f6qKaxAlE1CBgCaj+ThPvALjVAfCmF56A6yPoLK0CnGnJw58UgBpDKPxIy40kPeLiUSbgtmmCnZNB98OZARPb95LJnvIxPgS8II9Yj/AUHQWM+brIktWE7c/hOMkDZsIclNHKjhzAdXgAbkZjkFrZ/n5+jpjDEZh0DAkQgkXBB+kc79wGjMLExs0kSZMgGIBnHFj1pCpDZBD8MjGQ7kGdNA0WACX5ioqh4CawwcMHtwP0ZLcxLbtRjw71elpMrOsgDohmec/iZpVt5NqL4sE4E7ldQEVRQk6V/BWVcoyGUQQ4B41OBo4qCwbXywn7S7CI5Aa5AByhgBRhKm3i3du9Wgp+cgUeBVgKXIKXeRIyDt8BK0sPbveVYJMpdAS06xXkzLPxFCbibuj53JTyOeIQOfw2NrawyMQRBw+5bEVeFOWU4KTlM3zNQyrm+8M+ijy42QGR08HxThxpOhlAe5OQ8XAnwEUVAR9CqiXWywFOCiY7Ap54InAppenduJunQGedbc9DjYFEHgBwqa5QolNN8UPGKdXhYQY0O16FSkRwo654NBtR033YZKnPSzu8MsEzy8RbOsbzOEcHz0MVraIoSnCOkIDbhkznHnoAm5tM2s49yQ2EAuBiOemFakBg04lqr2yRVrAR0IyL9EacIevwicfajXnnWWPmXYQjeBzeyDNQKJPJhpTaR/Ya09rsgZ2PEN6IMKQTXmhLSb3kyaUuOaJHgWxeqZuDjhI+j3N0cKXKX0GpxnAYOYBTJaEdnEf1/FyNhz35HPeAdPwG0jtIQZwSHOa5WBJ3Nwgcf35YPDBPwIpQwIh8BbqkbRXG+3AK+fZzxlRMwX0UmA4TMBsyvxcrQy+k9rE2EFt62rn9OGiYtvx61kJNmZEyEy6Ya2ITyrx8tpP/8IRMPtKPvCDzqB7fqXID7j0r4n9H7pEx1gG0otBM6FhQsrAgWOSEvAxwIZYLAFSktty1RoJ68QDUBVFXQAQtwlNPSI+0elFPbB7jAn6khwAd6U5MlgPbjdmzyZi972AjCandxQlk67CexJkmf5vmRIKPFWVMclOz6fz3jSbbB6kvE4y0qEh6oUOdERwnvNM3I1CP/eLIAZxDAoBjxGFhs9I7hwXBGz0CmNQEioKZYCdYDa6wEngKZglJh7IherfNEz7khQjjdBpqhOmgF2AjX0IU8pkW2F6el2a19NFjpm/DTq+tSiP2ddZnxbyOE51s6DT0UhH9GzkVJWSccktvEnOYVQL6ACNgKcXRPQSzcHDwgOj+0iqzuWKq6SoqNpX9SfEXHMXdEZWkJPc9IowLcDXf5gVpJO2UUZKDZ6qnBBGvKcl39pmyxfOgqsBkqOpJEevkflXawTnRoaJw4ucmlKdE509UAc4BFKjQDs77KDmHTMGt0htp0cGZjlV5ktrWfn3qKWb19PnmyRkLTGeiGDp7CviH7gIJmuUhDcKGQztNQ/MOc/WerSaRiOPyHxZJaYltgcQJRm0hQgG+5uFhWsZ861M9/AXkQTew95ApmV+LNoKeIOd7SMVBGjcWMJWSmG/FMNIuqgDnoHEAY9ZykHMg3c2lpw4AUQQLJHc2gctOCLuKy8yfn7MU4D5VQJ2Ffp4FsGl5EQFqIcKHrJ5+snluWp35u/mLzH1rf2X2FU0wT8yaZ9ZXTjdFOOaf099jrm/ZZa491DQI5CFSH1wIauaJ9EbQXWIy/QkTx2jxGyPeR8904gMJtpNqiX+qyYq5nZoJ7V15EkYe5JEEOIBHUwoHkJiTCBOhjiAFUOT3RggYXm7CAQ9VlFgmbrZUn2X+YNHF5sAEXJzCVzdZK63lIwPUzRKNzON/TEt51uwvn2iu+uT1prsziS/XMjgIjQHgcag2FebVSTPMFTsh4YvikieThNhkawlsjTOE7zk0+EWSfGyhLyL7BryeSHHS5t9ScbLT696ET1NWUQ3z98jYfGs1E7L1+cFNCqoiADZB7oXIE/NcxjRDxfjy4o+YvSUJfEfcA8z3wvfBwDIAHKZATimOEKpKRqQ6JDtARwkvl6gA9vLKuEmIVQ9TAc/AL9CbUzuP4GwnizOdNHjh+QJsPNe2QULq/kin+4rwfQVOQx3HyZSYWolytt1rv1/XoQtGVYLjrrw+ceT+CTIZY+koSnAOHj9XY0inoZcK/mWpglv0cE967ye451eY9jh+i4QSXaCAP5Sw4jyJTfaU3CLFpQygJeggekWVQVhanjE9/VArUJ7B5DmtA7ZvskEav0jvxyWPVfE4keKIdzdjH+DAkNWKJpSaxBRIdbaXOj6fp1Ic5WFOb1TSDs6Pji2NvkxYlUjkRRHgOngMRx5AATcAIiAFeWyiyeJiVWdJ1lzdCSsFWHiGCpSBhmSAKkKmCWKti5CoRJpqCsuk3IZpXK1ND2DTCX7XHug1RRNPBV/wS+ADBtax7ZCru8wHeDNJPH9SuSnDzVvilw3hZcmSOZNM+lAz/imTchOfhjsqnAECcH11ZAWcbjKdPcno+ifAZ6wlowhwjkHMXpfNPeJ2pET/pkoClYDxDP8NHCRPhy5+xhELVgExTjYJPImjMkNe5SEwBexISog08rwJ4PFktkeH66+cFGWwfpR6E4CqDSeC8JP6BLtXFqtImwlTyI/PgiOdzNk+kz0Gj9PQ+JQZ3o0itkNmolAO+2PNhJLPTebVV1/N84JhdFHLiCLACSf3KDo/yIEZ+WwNtShF4yfXmhgsHt73kwCwfEdpQ0pKkch8hAdCAZwAz6YtSD0wWvDqQiJI54NY33qNCw9mWxBrPumGxPkc5oF3N476eZjFCYANqz4GXIY5leCBAvYNGxJZF0WA62DpwGmo+UNDggXAFklOKXgEhzXVkLCUzrx7jR/jMUU4ZJGPDXgbEMfkGR6VAxsU9awjICRbxGUCWLArdkgrSjXLrZcyW1fpGArkyJvsWE6Xo04bLnNJ+0FCfZxtzOO4yaSKwnso9HD6gDy1xnZR/h4Zw+/GZZgbKv50W967KASogpzDzY8N2nFzL0sw44rqAD4562vBxSjc704e8dKwpMC84fkMr7Fa74Ofhz+u6uHGLfh1IlD6WpVEQomT3tYROjaM7SQtQ5Ql8Uz+qKgUkSdIZLLlHjSrfwuBVU84jSLtoirBxYpCgPM+OADO4Q93AgwUqWRFmN3ysoktvBjXU3HFVSQpq1oWEvAPPOuIZLblknbjSmPppY4tF35OudQlHRyB7D9P45aWZfwgYvtOC3bmk9yWs36Iow6Of8ZFfmmX+xMAXGqFkEYqK6oA5+DpgUY2h/7pDaSPHwIEWfS44prduM6YOtz3mAF1RbiRXCNOKFEnrTQ+4AJlPpCRT4krMhSNEDL8ccs1riEn0wH8ftEBrCZURxIYPqnHtsG5cS9nyN/AL+36U3cIUcQSkQM4rBdy0INxitXb3ybMO2YEj6gFGG8BkqVO4ih8C66m7sDVVpxKmgr76Rlo5FBIVAfSuuB0n0SwMo0/AiUmLKb4nCHwEkKPllXoWE5PRzDjQpdpxx1yOgIbdnqPtyUkC2VDmoDjJKcOPmHCBLkui37SjspTK8BkDCYjB3DeB9ex44+9c0y4POd0+O2SWPdRaAXUeUFFiS7OAqcPQKe14iDKQcO7Kb4ZT7ANwItKYav5cGF9P2ELRxEQzGLTBi0PcdTTSlJEYNM2b9vGkI/QiVlFm3i4Yx9QB7d6OIUAmfhvG15r7OdSDETO2cETdHGTmU9FifHn1UDp3/GQcWe3WBAJ4DygxcSqQqDRugJP0AGAWabVE4ACRks3LN+hdemEn1NX0/pMDdkegl4mAUJ1fNtyfDGUw7l9YHVwUvIlI+2cHorOe2IDxZfh4AnIKb1wfA5zSIibfAoyPVKCnDHxABB/Ms33CmqCS4DpAhWSldKVnlf+VNKiTlbySct8XHlVwEvItNLbkPXpqYa4z2JcvYJbQrSWoKebcYYXBv7y3d1VjCZC20fSPwHySCWjDHAZPEhz2WTi36nfEzpytecATLB1y/eMhDa6RKQkQEmp6cYJMAGeBSNAGgNAYwJcm8dySQO8uDMugJY64CXSncAdrC80Ugd5pCeN0DEkLUKdJG57CG5ORQE3wgn45rPu3NBXTCaTmyDBXTDLZ32hxBHLjCTAMUZZ/EOwMqDQORkS5C+Gjh3uepuzrxOseIABlUpGVqCkVfXAAi1GYBN8vifwCUQb8oc5RUJbOsZ9EKNesVPX0vnAFp5KryH4Ch1DeJXkDAXkCE77XbY21PX19b3Nf7YEhfKPAjQ0jI/fBmdnsIei6FRayaDiBTONjY2/zvmiMxcYM/cSD+SQiFkAJ8sQoOI/KeKBi6Bk3IJTQkhcgpUSm1/4FOPEk1K42Ev7Ib+kZ5mWi6QmXYBeebNc+Quw+Qx4leYKcJ2Ip38cvyceLr35zlu2bPm/9t35L15k8Q/Car/k7JKoFHCdi5RTC8py/Gu+8ECFAVrw+1IVFaX4135fSSQSdTlfeMuzxmz+DU4oMf48LeTxNy0U9GplkTQ4sJzSUywYkBNIw+7m3XdirxJCGiIqTtMaar6GzJdKDJBgmioI4/Kj94gT3MxjmvH5mJhnXcmKoS6VSu3DP+N9QXd3dxI/F9GPn9LAEa1/IZetjLQjACLlqHPjhQgNOsbpMxjgTFNT0z2nnXbaPSwIdad/zLNEvAOQd+NYnuoAPz4mC/ltQoQCdrIU9HllZBb8TRIlYZmPdkZRQMDSaXwILfIV3HyGAJx5BDZCAToipfji/7zP4p9GweqTx/Gd0ScZWJMyADfNgnya+jw1o1FkezoaLxN4CyBCVDDoFfj3zSorS/DPmJRCH11VWlp6ZoB2eHLP68Y048d2YCM3bftRDkwQkAIN/GHPuXc/mC+FDFHIecY8BbOWCR1p4FhGnhr3YoN1ZHTIy/qJMAPyIti0ucacfD7WJuwf8jhKbxzPXwSSJNSSPvxT3inE6e2szVO5UPTB7gGoJwS4gHv27NkTsExXQ02Z8f3vf/8jsKh08DQoyo7veO+9917Md0Y/4JMJw+/eSrD5Zp/I1EFYcGO8BziYifr6eoo6fMRoauBnb9q06c4og5vvtn79+lvwrrPgp8Lz3XFzzBTbiY9owUWhB3wpjpeB0mrwabzBP1hpZhMAWMI7owZ0vtNbb731LbwjdBmZ0HxnvjtMNrKiUXoXJDg6ISqOIOdmuhR66MRJkyZNtst23V//9V9fgkOQfVEBOfYX7/Cd8K518FRNeHbPizhcwdgH7IsCuNEJkXAArkgrq3cWW1WFA86BpySvKysrO/mNN9749lgGOtu+YcOGb+N9Ti4vL6fkxjd3g+DG3RNVTcad9I6cmRAD6ztrMjSPPPIITzYzCP0yjeCn1RKLFi16COlHn3766YsQ/2RVVdUZAP6ZRUVF1F0/cA4byK6BgYF9sOu//Prrr6+68sorXwSwaRlJ9fb2DmCVSnV0dAxgQqemTp2anjt3rt4adG04H7j3ej8aNF6WK5XkMYCcG0/fw3yYgPkwgXvSRZD4RQAIl3H1BiZFfB2W9PsJ6RjSHIvYfffdd+bSpUtvmj59+lJmvFd3+PDhx1944YUnrrvuupfBS0Bpn591Qz4HbWC5eIA7g4magq1fzYAMM5DcKYJ74cKFvHtCcBcAjk6IqlOQxjHwcdyoi8N8WLR//34f7HhxxgXcAE0MYJc6Ns5+0bSxE0HocZhy+ymnnPJ1Erxbt3Pnzh8DjD9C/QxWjzT0aV/q2ue7ANV4BrcEM7hnQ+ktHu+ULikpyeBInmmdBNqsAsC1JyIaEqA+0BEnQJn2gQ1zeQxLfxEku4FkJ9j9DyYAJK0bg8SP9/T0sJ741tbW70IdwK2t43cHDhx4AMD8C9Sk5BWgYiPML24IXvmmlCFclu1iiLb5IEfaBTNBzTI3ZLvHHbjxzuPScbDp47r5RJwmNFoaaCuuoLUFIZFEj99OE09zm3geGiE+BdKTG1V+RsPNaj1A+NLxWmQwmZ5B/VMgpWn5mGl5TrHP4POq8KmZtqGqpqamkh75bGMFPqxmm9n2koaGBu6p/MmKOD9v0kmJZMGNmx5QCwtemFKaoCA4eDELV//El1mriwKIIT1tyvQTLfCmIE6rRe0NN9xwNlSXd0YLctJ+6UtfOpt1yQObW/IimAlePkOfWW7bom0ioNnOElpIENKLGdB5L2QV3HjvAV+aoyN0Yylgt9KQoElYEEnc5pfMnz+fACMAKU0nQ/JOhxSuHa1tnaY9a7MmuKdZiV1pJbKAF5tDriwy8dw22Dy2U6W1vgeyCq7QA7l7QIBCKehIQgUPwyGTAGlKTkpTSlza1gnyuu9973t5D5AU3JwQqDONh0+Wh6gaiAtw7bF63GkLn++3x8lHdsEVeuC998AQ4Ds6/DCQUzqHXQXgJShOAAtuPZDhRagyK6UJbgUxW+zGmS64Qg/8h/UAwUdAupKcG1DRyR966KErIGWHOOahnJJ7yFF6ANwoLrhCD/wn9wCQq9LVBbno5GgaQT6b13NxgPOPuIv9Dw8//PCnKLmpr6MsTC0hv4I7gT1Q6ND32JkEOZ1lQ6DTy4aUIezZRThhpN2cZPyyiDbrFEyRKfsBgti9KeZRXrBVo3MK7oPXAwS4mhv1Uhf1apr8KKlp/uO9bMZp2xad21pJOCFYt+AKPfCB7gF+5OyDHC0VMyI+9CWYaWWRgxl+XUQTo4K78AHCB3pMC40L9IBaWeLWXs7NJ4HuerFt0wJjwa3qTYBVIVnogQ9mDwjIHWmecA+N0GRRSewG9YP5BoVWFXpgND1AENNbsMshTQHYo+m5E0czbpZHAIv2afwCQ6z9xHXfyJzw3Hr8+OVS3NfeCOp2PJ/hCXf2/eQdwZzP+Q99zxP+QieIIc1ZkXcEGV5yNV8U8csQcPCXMn0C3BqAaVcePgT3vVqO5zO6Ef6bqLeGiffqnPert7za+Z7gz+cUXJR7gIMPv7OzszOLjxsQFXe/DU9EsCxf/+EBO1999dXsV7/61ezdd9+tbWjLV+d4ysBf3q+5uVn4O8/YybLj4RVF2khLcDvAqwHs+m9961uGHw0AaOaqq65axsHEKaNZu3btuxrXWbNmGXyyJnXxnAZEZIUIY/bUU0/JP9sHE6FhPbhq1Ml3qLMC0nd5GC83zz73cbxf9W233WYQSjG+02Tb6vGs1aChJN/l1htP8UgDHAO5DJ4fIgi4CQBs+AQIBDrzFRTHO+hh+HzyySfNgQMHhrFiPh3B/dOf/nRYuZvBdo3G4fl3gO4HW7duNZy8fA9OIDrGb731VgX5BtB+AyB/QArH2Z/IbzIxuMswpvdi0KtXrFih/wCqwccJhv+cNT798oeccYKFTqUzgUJ35513Gvxwp8T5h5+O2fTNSO6CX01a+w+sIvnuHNQZVlwBQC4P44D3qUf+/fANXBm4CrHdBDfbjHKj0px5uLmo7VyJOuS7C+G4cVGX4LSarMSgb8RgbyAACIif//znIr1dwHLEXWmO231DQEDaYJ4l2DWEEAnSBWnXrFljKG0JOqhIQ6oQoGxTPod3qEY5pfZy0nMl0DpsG98LK0Q7efz93/+9r7LceOONopZhZViGoqXg8wOElOa70Tf51CSQjH0XeYBbYFDiiaMkJvhw+CJpVR+YoMqizs1nHgHqToDzzz+fgNoFkKzBMxq0HkPyD6oaVF0IcKopwTLyVbC6fBh3gP0NJKtJR3AT5HRcicjPfoy8kXmYRA0AudEVi/SU9qCrxm+oLEebl4HsCfD+EUK+Q2SBHmmAW3CsxiAu5gBfeumlAgQFN/IFBAyDjuBwXRCA1OWDkljpCb6gLq6AJBCDZcE0+di2L0f0Jvhqqj4EqqsCEdyU0LrHAF0DvDiAVvYbrMPJyknENjN9yy231KPt1Ms5abjC0WTZbqtGKogswDFo9RgpgrueYOUgUz2gmkIpCreLZfDiuMwTfJSyBKOqGLnSWi8s5GQITgil40pAP5Ij4PAOi0BXzX2BW4dtZbvyPSfIn3W2bdsmQGd/cMLrPiOq4GYfRBbg7gBbQMvgciNoN171Lo3VYc0111wjANfBz5V26wbjnChWZfCLVL0JKyORlvsVvAg3sBsgqasJcFV9OAHvueeeAOkgD05k1wHAvhqDL4pkslCaw+2EH7pUMbfgxk4PQAouh8/iH2LKwmqSBUiyUFEkzXym6QEwJqWMaXVaJ5jGisAsAoTqRAMT0HGFFyYHk0Mcn0m+tt6QMh7SaDtswXLtYaS5MfTba8uHBS4PfZdhRDaDh17WUf2JtOMFoEg7SK/leMFvYolu58aL0o0SXaW6+/KUopSOXM5PpFO+5Bn23HzPQvufYLlt03vVk6W+XV14X+WBfM+OQtm4UFEwkD+AxFoDcK+mCS2XmvCzn/1MxjQM4NycEZy6Wcw3+NSNqeOGueDmNYwmLI8bUUyU6rAy5nESqdu8ebOBRNekG0r92tpavktOXm6FsR4fFwDnIAHkGwHyjQB3g5VgQ8ZOrQ3MtIc7lHbVBDXBw/LROk6CXBPBBeJo+ZGOm+TRtuHb3+ZPhed2NCvSjwc3bgAOcNdjQBsIEt4/oYkvbJC5+bJqxLWgvxf69GJu8BSw3NxpPAgQbl5dW7qW05THOrTBuyZKgp1mP+jfojopfVjISRncPLp0mMC+1KaEzufCJng++kLZGOgBAFw2m7pp1M2ebu4AthE3cuDhb1QDm8x6FN0f8KuRzv7yl7/0N5DBjSYmk5RhYribz52ottTtUvIZyeXbZOI+epbecUxk3GdENT5uJDgG8CZKYlURKDVd9+CDD4ppjzT5XJj0hvTchTo06YkDeKjfbuCzVK/nisFbflpfpTelMnV+a7bjysK6VI9cR94nwy9nfer3lPxcMeDWwmfhG+Bdx/w2+KW8m8JViaqXXZ2+7BJGOT4uAA7ALcMg1uvGj2qCHWh/bHMdzPgEo4zgWfUgfRy+nuqMTiiCy+r2wonPYxlPI/Ukk3q2Bfhq8NkFwjXwKzCBViIUcyQCUbMU6KDnYdAa+KCjCbNeJxIL7fPXKL9ghSimxwXAMXA3caBVOlOaBh2BNhrdlMBUKRzkAVBStbgf5dUEtz6Pur47oVhfJ5SGfDalMj2BjklYD78M/HbDL4enWwG6BrZVN8V2QvC5QVePjAZdQbhi2TasRDtjSgywU/pH1kUe4BjMBoyeP9BUCQAcDijVgGpG6LgRdEHo5Q7/y1UgCHD7jLtB3UCA0hSokjvMYkEwE6R0VE94cQs/5yZXdVmfz+BRvG3nfwH/S4XY/lGAk5bSP0e7G9hO0tDxarB1yxDS07EPuJmOrIs8wDFyywg2SkU6x3LyBMuYR8ejeoJsJBcAdzXAtwF1FjOfUlUlMvk44N6FZD28OJyqKngl7U4GlfrOaiK8Wcd1nKisx70DL5EpD9KoHZw6P/PJa+bMmcbeNW8gjbWF72I8yi7SAAf46jF4N+kyTVDYzeVK5HPp950Cy88YXYQrwGK9zKVV+Bx8G6nPegD5nEyPU9IScJwE7kTQem7oSNx2tE0+1nDLNR7GK2gH5+TjRtN13NSGqWouTRTikQY4BuheDtK5554rSzVDu5yvQPYylql7lzo4l/hqSlCuEKp6WF4s4waRp6icCO0AvQBVN5X67GBIfvRwK+Eb4KvBB0HBFXrA6QEAazE8N1Xi7CUjSlNaJJYzkxej6J0LSEKb68/q1avFtg1JTJKd8MKH9m6Hx/3Ir3eawuexLTvhR+ueA2E9/M7RVngXdDvdNkYxPi7EAgaeYFsOT7F4M6ThGuQxfTe861ai7GY3Q+OgX4q4rAiah5Bfw1yGMurh9fAPwJPHRoTDHOgoyRvgGeZz5LuGBKjzDQQj0ZP03TheuPrBu6lYqPMB7AELsBPeMvClpH2/QHjC2zueGI4LCT4WBhQfwxfG4j0OFLYp2SALv1Pvv395dVl/6R2pgVRDKg2fShn1A6mBbCqVjvnpgQGDf0zJDDBMpQ3uOZg0PENcejDVZablwpOKNl6zsKQx+MBCutAD71sPZE2zScTWxK59ZL0+QwD+85/8z3oTN6sB4HqA2wDkAPdAdgCgTgPoA6kUAJ6KCaAtsAl2gpwe93g8cEMMZdIAepZgz5ryRLbzzoaKx06eXOR9Aq5PLYSFHng/eyBmjpp07G9jn33kaFyeo+AmaAcEzL7EBrhFUhPcBLWGAmyC2YKb0tuX5JKfMV196arvPtf16bbuTOn7+T4F3oUeGNIDWfyTMUXZ388+/Jnyogf/7n/clMmmb6KEptSm9B5IW3XEA3UWYPbVE5XclNRUS6iSiLfSG5stSHBPohP8fclUaUcyk75gTmnoJyZDGlZIFHrgxPVAuSmKDcTT2fQ3IKVjlNSiZ1swQ1JDRUEe0oxTYg8DtwLZgttTTTxJTnAr8JsO9+e/gY+XOto5UPrkmua5Tfu6+c/wnXC3obG95qGndy/gc0448+NgiG4xGYee8eP1TnWJHm99lz7IK1LpdPbUBEC7GD6bTkEF8aQ3QtlExhTUBLb6rFVJCF5Pgme9UMA+qIMrHYG+t22gbqSOe/zZPQue/u3+JVdcMnvd3Lp5G5V+w5ajNSuf2LlE08Hwh3ed94tgXlj6idV7ztm0vWNBd29q3VeuG+QfRuvmjfR8lzYYLyspSn7nm4t/pfkbG4/W/M3Kxk9ftKhm49dvPP1l6ocrfvLm5e2dA8c1qe/4whmr5tZWyL7maGeydMVP3r5Sn3E84byTJjbfjnYcT50xRRsz8xOQ0ARvDODO+qqJJ7kF6FpOa0l1dbX5+tduNSbdb37wv+4zLS1HZUPJj0M8XdyqJ1BfgHcAn6pKGpJ8mPVG+mndq4dr97f08p/aM929aZGsb25rnwtJm2ReRXkiWTmxONl8qKeuckJxZ1Vlwt+sthxN1vQPDNXtn1zXPLe7OxUqoadWl3aS5/q3jy4gX8bDHMuubqht0rKOrlQpn6/p4wnZZpe+cVfXNO7q8d4X9valS7/95TPX7WnuqevqOT6AuzzbOgbedfuqq4r9/nR5unGueG9ubatx88LikypKkucsqG5lGVeIdky8519vre3BeMycUd655LzpzXHfZjfIYQ0wMJgajJHfojOqW8PqkP8bWJE7uvtLzz5tcuuUquKc45mgtPZUEergALumAXKCGiZCqi4AadrMm3uKmTypwsQyCTNrxnRz6FCrp2+nPZ1b9G9uNoFuleASEu0h7tn1B8+kVHWLCKZHV+0RQBEgNy2du4rlZ8ytavrMJ0/miaG4H/7r5suDwPvFM3su7epJ5ZWGR9r7poH/5conGPKZLsC1fOGpkxpXfO1saYvm5Quv/4Pf3h4sv+GKkxs//KGpzX9139vXvfL2kcV/fO/Gqj/92lmPKt2eA91VP35wy6drZ5Q33/GFBc/89OGtS7bvPTYP0v6xObMq/Mmi0lvrMWSdH951/mNuXq74jr3Hqu66d8OyXOVu/jMvNM99dNXenP2ltOwfAHwVwXf/4zsWP/vSwQtdAfTAE02dn7x45sufvbK+0bNseDX5vsojGHIs/uS2sx6bX+etViznhMOqd6WOPfum4fzpOfd3CU/3Fv2bFhKoKjQNEuiwpqRTEocUhkaSjb3xxptm3pzZpqy0yGzdtsPZTFJieyDn5tOPywaUUp2vPdx97MMz31lwyqR9BBwkbOtlF8zwAUxqV9ISEPTDuQzmXPeJOWtzSfBBqvwx95kuZV9fpiSXtHHpRopDLej8k1s/9Iu/Wbnpqhs+NeclglUXOAgDkXHoNlM/u6KrtLSon/zqZlZ0Mi28Q6Qg8zu7UpUP/Wr3EGEh9CF/urHxD8kOzZo5bULnWQCvFgJglQQXwVdfO8EH1un1k/aRBoC9kCsU46XF8eTEiYmuI239NVilqh59du/l3cl0aZiKOHVySWtZyaAkbj7UXcs6f/a3b9z4l7+/6MG5FuQuuPmMkRx1cNGvPXCnYl/8/I0mm06an/zDA6KDe4c3+NfC0Ovd3b3mjc27RR051t0nwFXzoIL6nr/4pjm8b7v5ix//wgM61ReAPswt8WZeMwFeVhpPfg4SLkinoFo4f1LjZZgQWv5vT+9c0tLWP03TDK9e4qkWnOXtXf0lbtlI8erKkv58S92OvV3zMHjzRuKTr5ztOtrZXzIfIL/vTy98kLQPPb1rQVBCHmjprf3snYMrwB/d8/rNyjfXSuIBKPfKpPXd0JWkbr4bp3R0JaTX3p46qot3B1Y07lcU3A3nz3j56zeeJvo9V4yfPbr9o9vRh8++fOjCaz8+pzHY13d9+UNPuisT63xv5aYrOcaPPLP7nLugzmm7uE+jKqtSXPPDQqookNRyoCOWlOrKMpNNGVNSnDDH+vutbg2lA9Jldt1J5tav32l6jnWaQwf3m927d4kqAoVENprlpaUm033ATC3p9OoB3PlUlLAGBfOO9XhWjz37e2off3avr350HEuJ7h6kZ/qH/9q4JKj6hNG5ebmAozRTq8taFs6vatK0hhiIWnb0vJMqd0BNaHVBU142qOsT3H/yg43X9fWnS6/9+EnrroKe79JSIlZVlnS1HO2toZCumVLe2tnVX0ng1s6oaO7vT5e0tPUNmdDaBoZhK6BbHhafUVM+og4eVi9X3jMvHDyTZVSXFNxMc9X6w68s+M3X/+rVuv6BdCnVns9dUT9MmJFWHetceWndyyufaLpqc1PnXOQLwO/+2od+NaWqNHnHd15j3ohOVBTPWuKZAe/98X04ncyYY909Cm6EmdhFH1lirv8spHv/MVMWT5pv3f5V853v/9Ds2rOf5QJk1vnj7/4b0jjdlI2nbj7DJXiwdQTBC68frn2nqaOOLwX99LFXNh0RqTl9allrGR9sXcvR3IOtNN6yV+TX0Xw3BOBKsITmBI7SzpxW2hpmcfgRlmQC/JzTqpuoXyp9MKTEwirUtObVQxf+8y+brtq1/9jLLr9zzpzcyPTN//3Fm+fUVuyjvn/33715OSZq1Q/vOvcxrmT59FWugIfb+qqOdCRzTvxgm3BXUdSK4fnvLqenz1N9Zk+b0BLkQFBOmpjoDK66QTo3PXHCoMqi+eSj8dGECRzFx2gpoYrCY/pkMhm77fY/NOv/3zqzd/duU1ZeZs5etNhc1tAAyd5jsr3wqV5THusxy79xo/n1cy+Y367fBDUkbU4/eTImRq9Z8/peAb0Cn2EuR4CwrPlQb+1Xl78EE43nKickuta/1VK3aVvHAko3mNvkt9A40F3HBkphfah1NzFazw1vuOKUte7y6pZpfCTgKN3BlmSNtlXzGFKCM9ywtX3u4Y4tw8B1yuyJLbpppVQrLytKPv38/iVcymEBGAawkTbJfFYup6tJrvJgftzLyDkpg/QjpZMQFqThO4bRlpRwRes3h9vCJ2EQJTAby56rfvagrh/GN1+emAk9cPO0kvdK0sBwd+zzX7oF9p4U9PFekx0gsFsRdsP212sM0wC5AeAvP7/OfHzxFIkb5K15fY957lWV3J41hWpKLkdzGcsIaEquBdisfPjsmn3Ux77zT+98lGWf/J1ZosvR5utKMQKf5e+nUxWJ1pd1r+ZeNaij0wfb0nZqslEBzjJusCbAFHkEg8zJB53WnxS632AfuHxa8d5uOixeBvDc9ZWFq7j3IFD+1lqZqK9eduHMHVrngV/uuIiT9a6vnPkU9x2afyLC3uRQs+3x8Lzv4W1LsEL77eHZgOrYX7xm3kvHw8ulTQi4IcWppqi1ZM2qp7NnnTE/RgCL1B7wwMw4QSxAZ8g0wM68jIC/z6x+vRl8rNnQhvkk+C3Xn/oyfXDTwUZiY/FbDHqTSmEuTzAbPkVLSUVFIvk7i3Obh1j/p49suwrmqVBpwvLRuGPd3h7ggg9N3eiaKbXuI7/efQ6tO0EgaXkYiGguDM55qhZo6+W0PHz4rBoB+DRru79t+Xp/ZVO+GnYe6xfwU33z+jCDw6O3xYy2BBu9m6/1DrWamrsru7oGSg+29tYcae+ftmlb+zR34im/9xKWQ016t/XDhAP74urL6nDwN2gmPF7+tKJ44IbeTVMgwbhlc2Osp22vKSuCLBAJDsktgFbpTVAD/AS3lfCU9oc7kmbT7i5vY0l+Yg8n3+DiM9jM0Zh9ILUHKzix37x4INT2O6EUB0RYETzSwd8A0eV/sMyjYJp1HNZ+VJfTk2dNaNFdvvs2uhxXlBYl6+3pola2KoAm/ZCS+uf/vnvJVUtmy8rEAqpc3FBe/4k5q3RAedpZM7mss9Xq1m9BXfOZ2EhHd0rUgqmTSjtpefizH79xQ9IegG145+iCL/7RC4s17db9xW/2LjnRAC8t8cya7nNGG6cAqbCqDTfnNNd+4ndmN4UJvtHyJF1CJDekN47daesmOGNpqCnPrloV+72GRVYdsYAW6e2Cu0/UGGxW5P+1b3V44CYfB9zkm8udjc1ZrhO1bbu6sFOOmVPrJzaF1eeghuVj+V2HfPohjhs4gvz+v7z4/iEFeRL7D/fIKR7twWHH4p1dA6JirH6tZfGLbx8ZAsAvXTPvt+ctqB624Vr9ysEzqfLg2oCvenCTeeVHaxtPgfXAnUCftaZT6Oy1YQCH5JMNcgVAQcsDrS98nSlVCb9vWI+WjY9fPGvDwnnVLf/yf3ZctHV311zez9HTxzxdcNxFI210p08ePm5cHVWAHPcD81RIyP1tC2yxZXumvdiWbU3migtne1LaV008lcXATh6jfu5+QAHb1uo328Rc6B32APty+JP7oIft+opdQsPaSEAC4NnjOUFUPpRm2BR+/I7P495GjiWONH9zf+OVlKS5pFlHV78AmEfCbR1JORbn0llSPCitsBfoghmvjJ7PhymshFKzq3u4LZ7P5MTl/oF2f9qVWWfDO20LUBZ6bM3yvhz6bavdsM2bUykT6d4/PHfIaea617yJUV1V0okJJILiC1fPfXnSpOJ1NcdpkWA78jmctrbQPLtt17G5tIi50pfvrTo1hUU+PieyLDH4JY7YsmHvzkCCZ7Kbmw6YLVu2xk6dhTGzAM9AgseyaUhrSOTY0AV40+5uc6gtKRKcE0UvYom5MMdBj74IbJrX6ctrnhuGHXvnO5pmZ/4ljsO55D+1rvnM2+2Bg8uT8Xd2dtQAhFUPwGy3M2C2Yzn50KxFMHKwCHDmz6+vbMo36Wht0QMP0rvulTdbxfpz+smVQ1Yl2oc7u8wkl9aNc9K4aY3vau6SScEJGHZopHS0RuHwaMgKM9Ixt9YdbXjtx+oan8MRfRLvQtVz2TXz1p1UW9719taOGu4vyKcKfal7qtHyfS90CerHHiDTCKieQO4ihDf3P73NTMHdE9q1eaGKp5le3FpHaOsWKZ0xh1o75ese1rOqjujems7XyFxqSj4VJZd64oKbel0ucLM9PPmsm1H+2Hf/qfHTCkjXNv3K260CnjAzlatG5Hu3YNmvXzx4IfOCloEL7Q3DIL2mqaK4FiTm6wTkZOcEDB6rkwaSNPRonWW80MTwRDkaAX73wpkv0wxKgfVXP3vrRpc3V77bP39a+D994RKewLgAnJj2QOmBHSoGVPFs7JJLL8kuveZT+JaTl60GILkhvRH30jjuNPBQVZj3vx/6jflneDm5hMpDfuLtgU++NudSU45XReHmjZYT2scXzq9udI93cz3/nNOntH77ywt8kE+fUtb5uU95VwZefNPTqS91rgiQD81sAJsANYwvgBeqajz0q10LvJPJ8uag2sQ6+XiG6bVcDfj8s0+dLGZA3tijd9tEFQV86+bg3sif3jb6y2Iuj/D40BVcaWgGpbr0+LP7LuJ9EuYT2Nwb3PH5058JvrfWe7/CBKC9BlK2QYDpSeMY4U1wrl3z29jbb76FeAYSnWZETgBKcoKXoKcE96T7wUMdAuhBgDOfdBkzvap42EaLL2RP6oYsm2EvGqaiKJ17xI6jfLnBRsmt4P7HX+xYzCuypOcGE7rzMKlFkN9wZf0qLKNXNTZ11oG0cUPj0WmUQlRPgkvqSDZxbVswVOl98dnT3gmW8Vn51LQgPdPKD3d0dnByByW8WydMRWH59ZeftGqkY3OXD2lHomd/wT9GPZx2+Xybx0fv+eiPXP6jjY/qOwB8hIxNZnYtpHWD6MoAI47pgUvPXHj4cJs5cPAILloBqFYSE7CedGboxQXoEucEgFDnUT3qqFrze4un+h8wuC9QU13WUTujf4jEcctHE58zo8KfPLyn8Phv9i1wb6tRmjz/+uFzyIvmwEvOnT7kxqI+w17UekovbJ2zYEoLLwzVhOz4eTcE+mbOw4e1uAb8VuAaMJ/DA6sNm9vmhV0qOwuXyYIrhbaN4Y49XdO49Lty87wzpzRu23usjlKRY+be+nPr5ou/nxs+qk3uRjNfO96Xsiy+sF+2tKE6Xly8AWrJyVRLREoDnDQVAtiS9lUNa9tWGg/gFuhW9/YsKDJRRIJXlsU7f/3H56x8X17gP4EpD0xGunmokmskuhPR/KC14kTwjASPrDka+8yjK3hxzQDk9RkTWw3hWw+7OFUSSmCCmyCnpPaADhB70lqtJJ4Et/QiuVUt4aQguH/0pdMfO712wgm9tRaJASi8xPvXAwC3yXo/GyEA1yd9/pqGm3Dh6hsA8SJgmSecgwC3ujc/QxtUSazqIl/0QC2xE+CkqaXNZ8yasO+/XV63sQbLlPL/YIZodMFFpAfi2/H7Ptth+1iL30TBsbsx/x8f6CR4DnPJBgAAAABJRU5ErkJggg==;" parent="1" vertex="1">
          <mxGeometry x="550" y="350" width="184" height="138" as="geometry" />
        </mxCell>
        <mxCell id="ch1ERGyDjhr7xlRFQsl--5" value="显存1" style="rounded=0;whiteSpace=wrap;html=1;fillColor=#dae8fc;strokeColor=#6c8ebf;" parent="1" vertex="1">
          <mxGeometry x="110" y="120" width="80" height="80" as="geometry" />
        </mxCell>
        <mxCell id="ch1ERGyDjhr7xlRFQsl--6" value="" style="curved=1;endArrow=classic;html=1;rounded=0;entryX=0.5;entryY=1;entryDx=0;entryDy=0;exitX=0.5;exitY=0;exitDx=0;exitDy=0;" parent="1" source="ch1ERGyDjhr7xlRFQsl--1" target="ch1ERGyDjhr7xlRFQsl--5" edge="1">
          <mxGeometry width="50" height="50" relative="1" as="geometry">
            <mxPoint x="390" y="550" as="sourcePoint" />
            <mxPoint x="440" y="500" as="targetPoint" />
            <Array as="points">
              <mxPoint x="200" y="310" />
              <mxPoint x="140" y="260" />
            </Array>
          </mxGeometry>
        </mxCell>
        <mxCell id="ch1ERGyDjhr7xlRFQsl--7" value="" style="curved=1;endArrow=classic;html=1;rounded=0;entryX=0.5;entryY=1;entryDx=0;entryDy=0;exitX=0.5;exitY=0;exitDx=0;exitDy=0;" parent="1" source="ch1ERGyDjhr7xlRFQsl--2" target="ch1ERGyDjhr7xlRFQsl--5" edge="1">
          <mxGeometry width="50" height="50" relative="1" as="geometry">
            <mxPoint x="260" y="640" as="sourcePoint" />
            <mxPoint x="310" y="590" as="targetPoint" />
            <Array as="points">
              <mxPoint x="370" y="290" />
              <mxPoint x="220" y="260" />
            </Array>
          </mxGeometry>
        </mxCell>
        <mxCell id="ch1ERGyDjhr7xlRFQsl--8" value="" style="curved=1;endArrow=classic;html=1;rounded=0;entryX=0.5;entryY=1;entryDx=0;entryDy=0;" parent="1" source="ch1ERGyDjhr7xlRFQsl--3" target="ch1ERGyDjhr7xlRFQsl--5" edge="1">
          <mxGeometry width="50" height="50" relative="1" as="geometry">
            <mxPoint x="590" y="330" as="sourcePoint" />
            <mxPoint x="640" y="280" as="targetPoint" />
            <Array as="points">
              <mxPoint x="640" y="330" />
              <mxPoint x="400" y="280" />
            </Array>
          </mxGeometry>
        </mxCell>
        <mxCell id="ch1ERGyDjhr7xlRFQsl--9" value="显存2" style="rounded=0;whiteSpace=wrap;html=1;fillColor=#dae8fc;strokeColor=#6c8ebf;" parent="1" vertex="1">
          <mxGeometry x="220" y="120" width="80" height="80" as="geometry" />
        </mxCell>
        <mxCell id="ch1ERGyDjhr7xlRFQsl--10" value="" style="curved=1;endArrow=classic;html=1;rounded=0;entryX=0.5;entryY=1;entryDx=0;entryDy=0;exitX=0;exitY=0.75;exitDx=0;exitDy=0;" parent="1" source="ch1ERGyDjhr7xlRFQsl--1" target="ch1ERGyDjhr7xlRFQsl--9" edge="1">
          <mxGeometry width="50" height="50" relative="1" as="geometry">
            <mxPoint x="160" y="640" as="sourcePoint" />
            <mxPoint x="210" y="590" as="targetPoint" />
            <Array as="points">
              <mxPoint x="130" y="290" />
            </Array>
          </mxGeometry>
        </mxCell>
        <mxCell id="ch1ERGyDjhr7xlRFQsl--11" value="" style="curved=1;endArrow=classic;html=1;rounded=0;exitX=0;exitY=0.75;exitDx=0;exitDy=0;entryX=0.5;entryY=1;entryDx=0;entryDy=0;" parent="1" source="ch1ERGyDjhr7xlRFQsl--2" target="ch1ERGyDjhr7xlRFQsl--9" edge="1">
          <mxGeometry width="50" height="50" relative="1" as="geometry">
            <mxPoint x="410" y="700" as="sourcePoint" />
            <mxPoint x="460" y="650" as="targetPoint" />
            <Array as="points">
              <mxPoint x="300" y="390" />
            </Array>
          </mxGeometry>
        </mxCell>
        <mxCell id="ch1ERGyDjhr7xlRFQsl--12" value="" style="curved=1;endArrow=classic;html=1;rounded=0;exitX=0;exitY=0.75;exitDx=0;exitDy=0;" parent="1" source="ch1ERGyDjhr7xlRFQsl--3" edge="1">
          <mxGeometry width="50" height="50" relative="1" as="geometry">
            <mxPoint x="600" y="750" as="sourcePoint" />
            <mxPoint x="260" y="200" as="targetPoint" />
            <Array as="points">
              <mxPoint x="540" y="380" />
              <mxPoint x="390" y="260" />
            </Array>
          </mxGeometry>
        </mxCell>
        <mxCell id="ch1ERGyDjhr7xlRFQsl--13" value="显存3" style="rounded=0;whiteSpace=wrap;html=1;fillColor=#dae8fc;strokeColor=#6c8ebf;" parent="1" vertex="1">
          <mxGeometry x="333.5" y="120" width="80" height="80" as="geometry" />
        </mxCell>
        <mxCell id="ch1ERGyDjhr7xlRFQsl--14" value="显存4" style="rounded=0;whiteSpace=wrap;html=1;fillColor=#dae8fc;strokeColor=#6c8ebf;" parent="1" vertex="1">
          <mxGeometry x="440" y="120" width="80" height="80" as="geometry" />
        </mxCell>
        <mxCell id="ch1ERGyDjhr7xlRFQsl--15" value="显存5" style="rounded=0;whiteSpace=wrap;html=1;fillColor=#dae8fc;strokeColor=#6c8ebf;" parent="1" vertex="1">
          <mxGeometry x="550" y="120" width="80" height="80" as="geometry" />
        </mxCell>
        <mxCell id="ch1ERGyDjhr7xlRFQsl--16" value="显存6" style="rounded=0;whiteSpace=wrap;html=1;fillColor=#dae8fc;strokeColor=#6c8ebf;" parent="1" vertex="1">
          <mxGeometry x="660" y="120" width="80" height="80" as="geometry" />
        </mxCell>
        <mxCell id="ch1ERGyDjhr7xlRFQsl--17" value="显存7" style="rounded=0;whiteSpace=wrap;html=1;fillColor=#dae8fc;strokeColor=#6c8ebf;" parent="1" vertex="1">
          <mxGeometry x="770" y="120" width="80" height="80" as="geometry" />
        </mxCell>
        <mxCell id="ch1ERGyDjhr7xlRFQsl--18" value="显存8" style="rounded=0;whiteSpace=wrap;html=1;fillColor=#dae8fc;strokeColor=#6c8ebf;" parent="1" vertex="1">
          <mxGeometry x="880" y="120" width="80" height="80" as="geometry" />
        </mxCell>
        <mxCell id="ch1ERGyDjhr7xlRFQsl--20" value="" style="endArrow=classic;html=1;rounded=0;strokeColor=#FF6666;entryX=0.5;entryY=1;entryDx=0;entryDy=0;" parent="1" target="ch1ERGyDjhr7xlRFQsl--13" edge="1">
          <mxGeometry width="50" height="50" relative="1" as="geometry">
            <mxPoint x="220" y="444" as="sourcePoint" />
            <mxPoint x="270" y="394" as="targetPoint" />
          </mxGeometry>
        </mxCell>
        <mxCell id="ch1ERGyDjhr7xlRFQsl--22" value="" style="endArrow=classic;html=1;rounded=0;strokeColor=#FF6666;entryX=0.5;entryY=1;entryDx=0;entryDy=0;" parent="1" target="ch1ERGyDjhr7xlRFQsl--14" edge="1">
          <mxGeometry width="50" height="50" relative="1" as="geometry">
            <mxPoint x="235" y="470" as="sourcePoint" />
            <mxPoint x="285" y="420" as="targetPoint" />
          </mxGeometry>
        </mxCell>
        <mxCell id="ch1ERGyDjhr7xlRFQsl--24" value="" style="endArrow=classic;html=1;rounded=0;strokeColor=#FF6666;entryX=0.5;entryY=1;entryDx=0;entryDy=0;" parent="1" target="ch1ERGyDjhr7xlRFQsl--15" edge="1">
          <mxGeometry width="50" height="50" relative="1" as="geometry">
            <mxPoint x="450" y="444" as="sourcePoint" />
            <mxPoint x="500" y="394" as="targetPoint" />
          </mxGeometry>
        </mxCell>
        <mxCell id="ch1ERGyDjhr7xlRFQsl--25" value="" style="endArrow=classic;html=1;rounded=0;strokeColor=#FF6666;entryX=0.5;entryY=1;entryDx=0;entryDy=0;" parent="1" target="ch1ERGyDjhr7xlRFQsl--16" edge="1">
          <mxGeometry width="50" height="50" relative="1" as="geometry">
            <mxPoint x="470" y="470" as="sourcePoint" />
            <mxPoint x="520" y="420" as="targetPoint" />
          </mxGeometry>
        </mxCell>
        <mxCell id="ch1ERGyDjhr7xlRFQsl--26" value="" style="endArrow=classic;html=1;rounded=0;strokeColor=#FF6666;entryX=0.5;entryY=1;entryDx=0;entryDy=0;" parent="1" target="ch1ERGyDjhr7xlRFQsl--17" edge="1">
          <mxGeometry width="50" height="50" relative="1" as="geometry">
            <mxPoint x="675" y="444" as="sourcePoint" />
            <mxPoint x="725" y="394" as="targetPoint" />
          </mxGeometry>
        </mxCell>
        <mxCell id="ch1ERGyDjhr7xlRFQsl--27" value="" style="endArrow=classic;html=1;rounded=0;strokeColor=#FF6666;entryX=0.5;entryY=1;entryDx=0;entryDy=0;" parent="1" target="ch1ERGyDjhr7xlRFQsl--18" edge="1">
          <mxGeometry width="50" height="50" relative="1" as="geometry">
            <mxPoint x="710" y="460" as="sourcePoint" />
            <mxPoint x="760" y="410" as="targetPoint" />
          </mxGeometry>
        </mxCell>
      </root>
    </mxGraphModel>
  </diagram>
  <diagram id="_5VDusWGjKHEPmyxzlMl" name="类图">
    <mxGraphModel dx="3720" dy="1075" grid="1" gridSize="10" guides="1" tooltips="1" connect="1" arrows="1" fold="1" page="1" pageScale="1" pageWidth="827" pageHeight="1169" background="#ffffff" math="0" shadow="0">
      <root>
        <mxCell id="0" />
        <mxCell id="1" parent="0" />
        <mxCell id="IXjAIpFJo1DjZ2CuXjz5-1" value="OverlayParam" style="swimlane;fontStyle=0;childLayout=stackLayout;horizontal=1;startSize=26;fillColor=none;horizontalStack=0;resizeParent=1;resizeParentMax=0;resizeLast=0;collapsible=1;marginBottom=0;fontSize=12;fontFamily=腾讯体;" parent="1" vertex="1">
          <mxGeometry x="640" y="310" width="140" height="234" as="geometry" />
        </mxCell>
        <mxCell id="IXjAIpFJo1DjZ2CuXjz5-2" value="+ lon, lat: double" style="text;strokeColor=none;fillColor=none;align=left;verticalAlign=top;spacingLeft=4;spacingRight=4;overflow=hidden;rotatable=0;points=[[0,0.5],[1,0.5]];portConstraint=eastwest;fontSize=12;fontFamily=腾讯体;" parent="IXjAIpFJo1DjZ2CuXjz5-1" vertex="1">
          <mxGeometry y="26" width="140" height="26" as="geometry" />
        </mxCell>
        <mxCell id="IXjAIpFJo1DjZ2CuXjz5-3" value="+ groupId: String" style="text;strokeColor=none;fillColor=none;align=left;verticalAlign=top;spacingLeft=4;spacingRight=4;overflow=hidden;rotatable=0;points=[[0,0.5],[1,0.5]];portConstraint=eastwest;fontSize=12;fontFamily=腾讯体;" parent="IXjAIpFJo1DjZ2CuXjz5-1" vertex="1">
          <mxGeometry y="52" width="140" height="26" as="geometry" />
        </mxCell>
        <mxCell id="IXjAIpFJo1DjZ2CuXjz5-4" value="+ id: String" style="text;strokeColor=none;fillColor=none;align=left;verticalAlign=top;spacingLeft=4;spacingRight=4;overflow=hidden;rotatable=0;points=[[0,0.5],[1,0.5]];portConstraint=eastwest;fontSize=12;fontFamily=腾讯体;" parent="IXjAIpFJo1DjZ2CuXjz5-1" vertex="1">
          <mxGeometry y="78" width="140" height="26" as="geometry" />
        </mxCell>
        <mxCell id="IXjAIpFJo1DjZ2CuXjz5-5" value="+ anchor: enum" style="text;strokeColor=none;fillColor=none;align=left;verticalAlign=top;spacingLeft=4;spacingRight=4;overflow=hidden;rotatable=0;points=[[0,0.5],[1,0.5]];portConstraint=eastwest;fontSize=12;fontFamily=腾讯体;" parent="IXjAIpFJo1DjZ2CuXjz5-1" vertex="1">
          <mxGeometry y="104" width="140" height="26" as="geometry" />
        </mxCell>
        <mxCell id="IXjAIpFJo1DjZ2CuXjz5-6" value="+ avoidType: enum" style="text;strokeColor=none;fillColor=none;align=left;verticalAlign=top;spacingLeft=4;spacingRight=4;overflow=hidden;rotatable=0;points=[[0,0.5],[1,0.5]];portConstraint=eastwest;fontSize=12;fontFamily=腾讯体;" parent="IXjAIpFJo1DjZ2CuXjz5-1" vertex="1">
          <mxGeometry y="130" width="140" height="26" as="geometry" />
        </mxCell>
        <mxCell id="IXjAIpFJo1DjZ2CuXjz5-7" value="+ priority: int" style="text;strokeColor=none;fillColor=none;align=left;verticalAlign=top;spacingLeft=4;spacingRight=4;overflow=hidden;rotatable=0;points=[[0,0.5],[1,0.5]];portConstraint=eastwest;fontSize=12;fontFamily=腾讯体;" parent="IXjAIpFJo1DjZ2CuXjz5-1" vertex="1">
          <mxGeometry y="156" width="140" height="26" as="geometry" />
        </mxCell>
        <mxCell id="IXjAIpFJo1DjZ2CuXjz5-8" value="+ minLevel: int" style="text;strokeColor=none;fillColor=none;align=left;verticalAlign=top;spacingLeft=4;spacingRight=4;overflow=hidden;rotatable=0;points=[[0,0.5],[1,0.5]];portConstraint=eastwest;fontSize=12;fontFamily=腾讯体;" parent="IXjAIpFJo1DjZ2CuXjz5-1" vertex="1">
          <mxGeometry y="182" width="140" height="26" as="geometry" />
        </mxCell>
        <mxCell id="IXjAIpFJo1DjZ2CuXjz5-9" value="+ maxLevel: int" style="text;strokeColor=none;fillColor=none;align=left;verticalAlign=top;spacingLeft=4;spacingRight=4;overflow=hidden;rotatable=0;points=[[0,0.5],[1,0.5]];portConstraint=eastwest;fontSize=12;fontFamily=腾讯体;" parent="IXjAIpFJo1DjZ2CuXjz5-1" vertex="1">
          <mxGeometry y="208" width="140" height="26" as="geometry" />
        </mxCell>
        <mxCell id="IXjAIpFJo1DjZ2CuXjz5-10" value="&lt;p style=&quot;margin: 4px 0px 0px; text-align: center; font-size: 12px;&quot;&gt;&lt;b style=&quot;font-size: 12px;&quot;&gt;BaseOverlay&lt;/b&gt;&lt;/p&gt;&lt;hr style=&quot;font-size: 12px;&quot;&gt;&lt;p style=&quot;margin: 0px 0px 0px 4px; font-size: 12px;&quot;&gt;+ param: OverlayParam&lt;/p&gt;&lt;p style=&quot;margin: 0px 0px 0px 4px; font-size: 12px;&quot;&gt;# isLayer: bool&lt;/p&gt;&lt;p style=&quot;margin: 0px 0px 0px 4px; font-size: 12px;&quot;&gt;# isOes: bool&lt;/p&gt;&lt;p style=&quot;margin: 0px 0px 0px 4px; font-size: 12px;&quot;&gt;# overlayHandle: long&lt;/p&gt;&lt;p style=&quot;margin: 0px 0px 0px 4px; font-size: 12px;&quot;&gt;# main, left, top, right, bottom: Canvas&lt;/p&gt;&lt;p style=&quot;margin: 0px 0px 0px 4px; font-size: 12px;&quot;&gt;# canvasListener: OnCanvasReadyListener&lt;/p&gt;&lt;hr style=&quot;font-size: 12px;&quot;&gt;&lt;p style=&quot;margin: 0px 0px 0px 4px; font-size: 12px;&quot;&gt;+ BaseOverlay(param: OverlayParam)&lt;/p&gt;&lt;p style=&quot;margin: 0px 0px 0px 4px; font-size: 12px;&quot;&gt;# onTab(pos: enum, x: int, y: int): bool&lt;/p&gt;&lt;p style=&quot;margin: 0px 0px 0px 4px; font-size: 12px;&quot;&gt;+ attachToMap(map: long, param: OverlayParam, isLayer: bool, isOes: bool, type: enum): long&lt;/p&gt;&lt;p style=&quot;margin: 0px 0px 0px 4px; font-size: 12px;&quot;&gt;+ detachFromMap(map: long, overlay: long)&lt;/p&gt;&lt;p style=&quot;margin: 0px 0px 0px 4px; font-size: 12px;&quot;&gt;+ setVisibility&lt;span style=&quot;background-color: initial; font-size: 12px;&quot;&gt;(visible: bool)&lt;/span&gt;&lt;/p&gt;&lt;p style=&quot;margin: 0px 0px 0px 4px; font-size: 12px;&quot;&gt;&lt;span style=&quot;background-color: initial; font-size: 12px;&quot;&gt;+ isVisible(): bool&lt;/span&gt;&lt;/p&gt;&lt;p style=&quot;margin: 0px 0px 0px 4px; font-size: 12px;&quot;&gt;&lt;span style=&quot;background-color: initial; font-size: 12px;&quot;&gt;+ setOnCanvasReadyListener(listener: OnCanvasReadyListener)&lt;/span&gt;&lt;/p&gt;&lt;p style=&quot;margin: 0px 0px 0px 4px; font-size: 12px;&quot;&gt;# onAttached()&lt;/p&gt;&lt;p style=&quot;margin: 0px 0px 0px 4px; font-size: 12px;&quot;&gt;&lt;br style=&quot;font-size: 12px;&quot;&gt;&lt;/p&gt;" style="verticalAlign=top;align=left;overflow=fill;fontSize=12;fontFamily=腾讯体;html=1;" parent="1" vertex="1">
          <mxGeometry x="-80" y="310" width="560" height="300" as="geometry" />
        </mxCell>
        <mxCell id="IXjAIpFJo1DjZ2CuXjz5-11" value="" style="endArrow=open;startArrow=circlePlus;endFill=0;startFill=0;endSize=8;html=1;rounded=0;fontSize=12;fontFamily=腾讯体;" parent="1" edge="1">
          <mxGeometry width="160" relative="1" as="geometry">
            <mxPoint x="480" y="420" as="sourcePoint" />
            <mxPoint x="640" y="420" as="targetPoint" />
          </mxGeometry>
        </mxCell>
        <mxCell id="IXjAIpFJo1DjZ2CuXjz5-16" value="&lt;p style=&quot;margin: 4px 0px 0px; text-align: center; font-size: 12px;&quot;&gt;&lt;b style=&quot;font-size: 12px;&quot;&gt;BaseCanvas&lt;/b&gt;&lt;/p&gt;&lt;hr style=&quot;font-size: 12px;&quot;&gt;&lt;p style=&quot;margin: 0px 0px 0px 4px; font-size: 12px;&quot;&gt;# param: CanvasParam&lt;/p&gt;&lt;p style=&quot;margin: 0px 0px 0px 4px; font-size: 12px;&quot;&gt;&lt;span style=&quot;background-color: initial; font-size: 12px;&quot;&gt;# canvasHandle: long&lt;/span&gt;&lt;/p&gt;&lt;p style=&quot;margin: 0px 0px 0px 4px; font-size: 12px;&quot;&gt;# overlayHandle: long&lt;/p&gt;&lt;hr style=&quot;font-size: 12px;&quot;&gt;&lt;p style=&quot;margin: 0px 0px 0px 4px; font-size: 12px;&quot;&gt;+ BaseCanvas(pos: enum, overlay: long)&lt;/p&gt;&lt;p style=&quot;margin: 0px 0px 0px 4px; font-size: 12px;&quot;&gt;# onTab(x: int, y: int): bool&lt;/p&gt;&lt;p style=&quot;margin: 0px 0px 0px 4px; font-size: 12px;&quot;&gt;+ create(): long&lt;/p&gt;" style="verticalAlign=top;align=left;overflow=fill;fontSize=12;fontFamily=腾讯体;html=1;" parent="1" vertex="1">
          <mxGeometry x="-633" y="310" width="440" height="150" as="geometry" />
        </mxCell>
        <mxCell id="IXjAIpFJo1DjZ2CuXjz5-17" value="CanvasParam" style="swimlane;fontStyle=0;childLayout=stackLayout;horizontal=1;startSize=26;horizontalStack=0;resizeParent=1;resizeParentMax=0;resizeLast=0;collapsible=1;marginBottom=0;fontSize=12;fontFamily=腾讯体;fillColor=#FFFFFF;" parent="1" vertex="1">
          <mxGeometry x="-920" y="310" width="170" height="130" as="geometry" />
        </mxCell>
        <mxCell id="IXjAIpFJo1DjZ2CuXjz5-18" value="+ width, height: int" style="text;strokeColor=none;fillColor=none;align=left;verticalAlign=top;spacingLeft=4;spacingRight=4;overflow=hidden;rotatable=0;points=[[0,0.5],[1,0.5]];portConstraint=eastwest;fontSize=12;fontFamily=腾讯体;" parent="IXjAIpFJo1DjZ2CuXjz5-17" vertex="1">
          <mxGeometry y="26" width="170" height="26" as="geometry" />
        </mxCell>
        <mxCell id="IXjAIpFJo1DjZ2CuXjz5-19" value="+ pos: enum" style="text;strokeColor=none;fillColor=none;align=left;verticalAlign=top;spacingLeft=4;spacingRight=4;overflow=hidden;rotatable=0;points=[[0,0.5],[1,0.5]];portConstraint=eastwest;fontSize=12;fontFamily=腾讯体;" parent="IXjAIpFJo1DjZ2CuXjz5-17" vertex="1">
          <mxGeometry y="52" width="170" height="26" as="geometry" />
        </mxCell>
        <mxCell id="IXjAIpFJo1DjZ2CuXjz5-24" value="+ minLevel: int" style="text;strokeColor=none;fillColor=none;align=left;verticalAlign=top;spacingLeft=4;spacingRight=4;overflow=hidden;rotatable=0;points=[[0,0.5],[1,0.5]];portConstraint=eastwest;fontSize=12;fontFamily=腾讯体;" parent="IXjAIpFJo1DjZ2CuXjz5-17" vertex="1">
          <mxGeometry y="78" width="170" height="26" as="geometry" />
        </mxCell>
        <mxCell id="IXjAIpFJo1DjZ2CuXjz5-25" value="+ maxLevel: int" style="text;strokeColor=none;fillColor=none;align=left;verticalAlign=top;spacingLeft=4;spacingRight=4;overflow=hidden;rotatable=0;points=[[0,0.5],[1,0.5]];portConstraint=eastwest;fontSize=12;fontFamily=腾讯体;" parent="IXjAIpFJo1DjZ2CuXjz5-17" vertex="1">
          <mxGeometry y="104" width="170" height="26" as="geometry" />
        </mxCell>
        <mxCell id="IXjAIpFJo1DjZ2CuXjz5-26" value="Use" style="endArrow=open;endSize=12;dashed=1;html=1;rounded=0;exitX=0;exitY=0.25;exitDx=0;exitDy=0;fontSize=12;fontFamily=腾讯体;" parent="1" source="IXjAIpFJo1DjZ2CuXjz5-10" edge="1">
          <mxGeometry width="160" relative="1" as="geometry">
            <mxPoint x="-270" y="700" as="sourcePoint" />
            <mxPoint x="-190" y="385" as="targetPoint" />
          </mxGeometry>
        </mxCell>
        <mxCell id="IXjAIpFJo1DjZ2CuXjz5-27" value="" style="endArrow=open;startArrow=circlePlus;endFill=0;startFill=0;endSize=8;html=1;rounded=0;entryX=1.026;entryY=0.88;entryDx=0;entryDy=0;entryPerimeter=0;exitX=0;exitY=0.5;exitDx=0;exitDy=0;fontSize=12;fontFamily=腾讯体;" parent="1" source="IXjAIpFJo1DjZ2CuXjz5-16" target="IXjAIpFJo1DjZ2CuXjz5-19" edge="1">
          <mxGeometry width="160" relative="1" as="geometry">
            <mxPoint x="-650" y="370" as="sourcePoint" />
            <mxPoint x="-550" y="700" as="targetPoint" />
            <Array as="points">
              <mxPoint x="-690" y="385" />
            </Array>
          </mxGeometry>
        </mxCell>
        <mxCell id="IXjAIpFJo1DjZ2CuXjz5-28" value="ViewInfo" style="swimlane;fontStyle=0;childLayout=stackLayout;horizontal=1;startSize=26;fillColor=none;horizontalStack=0;resizeParent=1;resizeParentMax=0;resizeLast=0;collapsible=1;marginBottom=0;fontSize=12;fontFamily=腾讯体;" parent="1" vertex="1">
          <mxGeometry x="-920" y="805" width="170" height="130" as="geometry" />
        </mxCell>
        <mxCell id="IXjAIpFJo1DjZ2CuXjz5-29" value="+ width, height: int" style="text;strokeColor=none;fillColor=none;align=left;verticalAlign=top;spacingLeft=4;spacingRight=4;overflow=hidden;rotatable=0;points=[[0,0.5],[1,0.5]];portConstraint=eastwest;fontSize=12;fontFamily=腾讯体;" parent="IXjAIpFJo1DjZ2CuXjz5-28" vertex="1">
          <mxGeometry y="26" width="170" height="26" as="geometry" />
        </mxCell>
        <mxCell id="IXjAIpFJo1DjZ2CuXjz5-30" value="+ top, left: int" style="text;strokeColor=none;fillColor=none;align=left;verticalAlign=top;spacingLeft=4;spacingRight=4;overflow=hidden;rotatable=0;points=[[0,0.5],[1,0.5]];portConstraint=eastwest;fontSize=12;fontFamily=腾讯体;" parent="IXjAIpFJo1DjZ2CuXjz5-28" vertex="1">
          <mxGeometry y="52" width="170" height="26" as="geometry" />
        </mxCell>
        <mxCell id="IXjAIpFJo1DjZ2CuXjz5-31" value="+ isMain: int" style="text;strokeColor=none;fillColor=none;align=left;verticalAlign=top;spacingLeft=4;spacingRight=4;overflow=hidden;rotatable=0;points=[[0,0.5],[1,0.5]];portConstraint=eastwest;fontSize=12;fontFamily=腾讯体;" parent="IXjAIpFJo1DjZ2CuXjz5-28" vertex="1">
          <mxGeometry y="78" width="170" height="26" as="geometry" />
        </mxCell>
        <mxCell id="IXjAIpFJo1DjZ2CuXjz5-32" value="+ id: int" style="text;strokeColor=none;fillColor=none;align=left;verticalAlign=top;spacingLeft=4;spacingRight=4;overflow=hidden;rotatable=0;points=[[0,0.5],[1,0.5]];portConstraint=eastwest;fontSize=12;fontFamily=腾讯体;" parent="IXjAIpFJo1DjZ2CuXjz5-28" vertex="1">
          <mxGeometry y="104" width="170" height="26" as="geometry" />
        </mxCell>
        <mxCell id="IXjAIpFJo1DjZ2CuXjz5-34" value="" style="endArrow=open;startArrow=circlePlus;endFill=0;startFill=0;endSize=8;html=1;rounded=0;exitX=0.007;exitY=0.417;exitDx=0;exitDy=0;entryX=1;entryY=0.5;entryDx=0;entryDy=0;fontSize=12;fontFamily=腾讯体;exitPerimeter=0;" parent="1" source="IXjAIpFJo1DjZ2CuXjz5-37" target="IXjAIpFJo1DjZ2CuXjz5-30" edge="1">
          <mxGeometry width="160" relative="1" as="geometry">
            <mxPoint x="-283" y="240" as="sourcePoint" />
            <mxPoint x="-413" y="190" as="targetPoint" />
          </mxGeometry>
        </mxCell>
        <mxCell id="IXjAIpFJo1DjZ2CuXjz5-35" value="&lt;p style=&quot;margin: 4px 0px 0px; text-align: center; font-size: 12px;&quot;&gt;&lt;i style=&quot;font-size: 12px;&quot;&gt;&amp;lt;&amp;lt;Interface&amp;gt;&amp;gt;&lt;/i&gt;&lt;br style=&quot;font-size: 12px;&quot;&gt;&lt;b style=&quot;font-size: 12px;&quot;&gt;OnOverlayReadyListener&lt;/b&gt;&lt;/p&gt;&lt;hr style=&quot;font-size: 12px;&quot;&gt;&lt;p style=&quot;margin: 0px 0px 0px 4px; font-size: 12px;&quot;&gt;+ overlayReady(pos: enum)&lt;br style=&quot;font-size: 12px;&quot;&gt;&lt;/p&gt;" style="verticalAlign=top;align=left;overflow=fill;fontSize=12;fontFamily=腾讯体;html=1;" parent="1" vertex="1">
          <mxGeometry x="105" y="110" width="190" height="80" as="geometry" />
        </mxCell>
        <mxCell id="IXjAIpFJo1DjZ2CuXjz5-36" value="Use" style="endArrow=open;endSize=12;dashed=1;html=1;rounded=0;exitX=0.5;exitY=0;exitDx=0;exitDy=0;entryX=0.5;entryY=1;entryDx=0;entryDy=0;fontSize=12;fontFamily=腾讯体;" parent="1" source="IXjAIpFJo1DjZ2CuXjz5-10" target="IXjAIpFJo1DjZ2CuXjz5-35" edge="1">
          <mxGeometry width="160" relative="1" as="geometry">
            <mxPoint x="-70" y="395" as="sourcePoint" />
            <mxPoint x="-180" y="395" as="targetPoint" />
          </mxGeometry>
        </mxCell>
        <mxCell id="IXjAIpFJo1DjZ2CuXjz5-37" value="&lt;p style=&quot;margin: 4px 0px 0px; text-align: center; font-size: 12px;&quot;&gt;&lt;b style=&quot;font-size: 12px;&quot;&gt;ViewCanvas&lt;/b&gt;&lt;/p&gt;&lt;hr style=&quot;font-size: 12px;&quot;&gt;&lt;p style=&quot;margin: 0px 0px 0px 4px; font-size: 12px;&quot;&gt;&lt;span style=&quot;background-color: initial; font-size: 12px;&quot;&gt;- viewMap: Map&amp;lt;int, EXView&amp;gt;&lt;/span&gt;&lt;br style=&quot;font-size: 12px;&quot;&gt;&lt;/p&gt;&lt;p style=&quot;margin: 0px 0px 0px 4px; font-size: 12px;&quot;&gt;- clickList: List&amp;lt;EXView&amp;gt;&lt;/p&gt;&lt;p style=&quot;margin: 0px 0px 0px 4px; font-size: 12px;&quot;&gt;- mutableList: List&amp;lt;EXView&amp;gt;&amp;nbsp;&lt;/p&gt;&lt;p style=&quot;margin: 0px 0px 0px 4px; font-size: 12px;&quot;&gt;- bitmapUrlList: List&amp;lt;String&amp;gt;&lt;/p&gt;&lt;hr style=&quot;font-size: 12px;&quot;&gt;&lt;p style=&quot;margin: 0px 0px 0px 4px; font-size: 12px;&quot;&gt;+ ViewCanvas(pos: enum, overlay: long, root: View, layoutId: enum)&lt;/p&gt;&lt;p style=&quot;margin: 0px 0px 0px 4px; font-size: 12px;&quot;&gt;- onTab(x: int, y: int): bool&lt;/p&gt;&lt;p style=&quot;margin: 0px 0px 0px 4px; font-size: 12px;&quot;&gt;- viewAnalysis(root: View): List&amp;lt;ViewInfo&amp;gt;&lt;/p&gt;&lt;p style=&quot;margin: 0px 0px 0px 4px; font-size: 12px;&quot;&gt;+ create(param): long&lt;/p&gt;&lt;p style=&quot;margin: 0px 0px 0px 4px; font-size: 12px;&quot;&gt;+ findViewById(id: int): EXView&lt;/p&gt;&lt;p style=&quot;margin: 0px 0px 0px 4px; font-size: 12px;&quot;&gt;+ invalid();&lt;/p&gt;&lt;p style=&quot;margin: 0px 0px 0px 4px; font-size: 12px;&quot;&gt;+ onTextureReady(ids: List&amp;lt;int&amp;gt;, textureIds: List&amp;lt;int&amp;gt;)&lt;/p&gt;&lt;p style=&quot;margin: 0px 0px 0px 4px; font-size: 12px;&quot;&gt;- prepareBitmaps()&lt;/p&gt;" style="verticalAlign=top;align=left;overflow=fill;fontSize=12;fontFamily=腾讯体;html=1;" parent="1" vertex="1">
          <mxGeometry x="-633" y="770" width="440" height="240" as="geometry" />
        </mxCell>
        <mxCell id="IXjAIpFJo1DjZ2CuXjz5-38" value="Extends" style="endArrow=block;endSize=16;endFill=0;html=1;rounded=0;exitX=0.5;exitY=0;exitDx=0;exitDy=0;fontSize=12;fontFamily=腾讯体;entryX=0.5;entryY=1;entryDx=0;entryDy=0;" parent="1" source="IXjAIpFJo1DjZ2CuXjz5-37" target="IXjAIpFJo1DjZ2CuXjz5-16" edge="1">
          <mxGeometry width="160" relative="1" as="geometry">
            <mxPoint x="-480" y="680" as="sourcePoint" />
            <mxPoint x="-290" y="470" as="targetPoint" />
          </mxGeometry>
        </mxCell>
        <mxCell id="IXjAIpFJo1DjZ2CuXjz5-40" value="&lt;p style=&quot;margin: 4px 0px 0px; text-align: center; font-size: 12px;&quot;&gt;&lt;b style=&quot;font-size: 12px;&quot;&gt;CustomViewOverlay&lt;/b&gt;&lt;/p&gt;&lt;hr style=&quot;font-size: 12px;&quot;&gt;&lt;p style=&quot;margin: 0px 0px 0px 4px; font-size: 12px;&quot;&gt;+ clickListener: OnClickListener&lt;br style=&quot;font-size: 12px;&quot;&gt;&lt;/p&gt;&lt;hr style=&quot;font-size: 12px;&quot;&gt;&lt;p style=&quot;margin: 0px 0px 0px 4px; font-size: 12px;&quot;&gt;+ CustomViewOverlay(param: OverlayParam, mainInflator : Inflator, left, right, top, bottom: Inflator?)&lt;/p&gt;&lt;p style=&quot;margin: 0px 0px 0px 4px; font-size: 12px;&quot;&gt;&lt;span style=&quot;background-color: initial; font-size: 12px;&quot;&gt;+ findViewById(pos: enum, id: int): EXView&lt;/span&gt;&lt;/p&gt;&lt;p style=&quot;margin: 0px 0px 0px 4px; font-size: 12px;&quot;&gt;&lt;span style=&quot;background-color: initial; font-size: 12px;&quot;&gt;+ invalid(pos: enum)&lt;/span&gt;&lt;/p&gt;&lt;p style=&quot;margin: 0px 0px 0px 4px; font-size: 12px;&quot;&gt;&lt;span style=&quot;background-color: initial; font-size: 12px;&quot;&gt;+ setOnClickListener(listener: OnClickListener)&lt;/span&gt;&lt;/p&gt;&lt;p style=&quot;margin: 0px 0px 0px 4px; font-size: 12px;&quot;&gt;&lt;br style=&quot;font-size: 12px;&quot;&gt;&lt;/p&gt;" style="verticalAlign=top;align=left;overflow=fill;fontSize=12;fontFamily=腾讯体;html=1;" parent="1" vertex="1">
          <mxGeometry x="-80" y="770" width="560" height="140" as="geometry" />
        </mxCell>
        <mxCell id="IXjAIpFJo1DjZ2CuXjz5-41" value="Extends" style="endArrow=block;endSize=16;endFill=0;html=1;rounded=0;entryX=0.5;entryY=1;entryDx=0;entryDy=0;exitX=0.5;exitY=0;exitDx=0;exitDy=0;fontSize=12;fontFamily=腾讯体;" parent="1" source="IXjAIpFJo1DjZ2CuXjz5-40" edge="1">
          <mxGeometry width="160" relative="1" as="geometry">
            <mxPoint x="199" y="760" as="sourcePoint" />
            <mxPoint x="199.40999999999997" y="610" as="targetPoint" />
          </mxGeometry>
        </mxCell>
        <mxCell id="IXjAIpFJo1DjZ2CuXjz5-42" value="Use" style="endArrow=open;endSize=12;dashed=1;html=1;rounded=0;exitX=0;exitY=0.25;exitDx=0;exitDy=0;fontSize=12;fontFamily=腾讯体;" parent="1" edge="1">
          <mxGeometry width="160" relative="1" as="geometry">
            <mxPoint x="-80" y="850" as="sourcePoint" />
            <mxPoint x="-190" y="850" as="targetPoint" />
          </mxGeometry>
        </mxCell>
        <mxCell id="IXjAIpFJo1DjZ2CuXjz5-43" value="&lt;p style=&quot;margin: 4px 0px 0px; text-align: center; font-size: 12px;&quot;&gt;&lt;i style=&quot;font-size: 12px;&quot;&gt;&amp;lt;&amp;lt;Interface&amp;gt;&amp;gt;&lt;/i&gt;&lt;br style=&quot;font-size: 12px;&quot;&gt;&lt;b style=&quot;font-size: 12px;&quot;&gt;OnClickListener&lt;/b&gt;&lt;/p&gt;&lt;hr style=&quot;font-size: 12px;&quot;&gt;&lt;p style=&quot;margin: 0px 0px 0px 4px; font-size: 12px;&quot;&gt;+ onClick(pos: enum, id: int, overlay: CustomViewOverlay)&lt;br style=&quot;font-size: 12px;&quot;&gt;&lt;/p&gt;" style="verticalAlign=top;align=left;overflow=fill;fontSize=12;fontFamily=腾讯体;html=1;" parent="1" vertex="1">
          <mxGeometry x="610" y="740" width="320" height="80" as="geometry" />
        </mxCell>
        <mxCell id="IXjAIpFJo1DjZ2CuXjz5-44" value="Use" style="endArrow=open;endSize=12;dashed=1;html=1;rounded=0;exitX=1;exitY=0.25;exitDx=0;exitDy=0;fontSize=12;fontFamily=腾讯体;" parent="1" source="IXjAIpFJo1DjZ2CuXjz5-40" edge="1">
          <mxGeometry width="160" relative="1" as="geometry">
            <mxPoint x="610" y="930" as="sourcePoint" />
            <mxPoint x="610" y="805" as="targetPoint" />
          </mxGeometry>
        </mxCell>
        <mxCell id="IXjAIpFJo1DjZ2CuXjz5-45" value="&lt;p style=&quot;margin: 4px 0px 0px; text-align: center; font-size: 12px;&quot;&gt;&lt;i style=&quot;font-size: 12px;&quot;&gt;&amp;lt;&amp;lt;Interface&amp;gt;&amp;gt;&lt;/i&gt;&lt;br style=&quot;font-size: 12px;&quot;&gt;&lt;b style=&quot;font-size: 12px;&quot;&gt;Inflator&lt;/b&gt;&lt;/p&gt;&lt;hr style=&quot;font-size: 12px;&quot;&gt;&lt;p style=&quot;margin: 0px 0px 0px 4px; font-size: 12px;&quot;&gt;+ getRootView(): View&lt;br style=&quot;font-size: 12px;&quot;&gt;&lt;/p&gt;" style="verticalAlign=top;align=left;overflow=fill;fontSize=12;fontFamily=腾讯体;html=1;" parent="1" vertex="1">
          <mxGeometry x="610" y="860" width="320" height="80" as="geometry" />
        </mxCell>
        <mxCell id="IXjAIpFJo1DjZ2CuXjz5-46" value="Use" style="endArrow=open;endSize=12;dashed=1;html=1;rounded=0;exitX=1;exitY=0.25;exitDx=0;exitDy=0;fontSize=12;fontFamily=腾讯体;" parent="1" edge="1">
          <mxGeometry width="160" relative="1" as="geometry">
            <mxPoint x="480" y="890" as="sourcePoint" />
            <mxPoint x="610" y="890" as="targetPoint" />
          </mxGeometry>
        </mxCell>
        <mxCell id="IXjAIpFJo1DjZ2CuXjz5-47" value="DSLInflator" style="swimlane;fontStyle=1;align=center;verticalAlign=top;childLayout=stackLayout;horizontal=1;startSize=26;horizontalStack=0;resizeParent=1;resizeParentMax=0;resizeLast=0;collapsible=1;marginBottom=0;fontSize=12;fontFamily=腾讯体;" parent="1" vertex="1">
          <mxGeometry x="1030" y="740" width="160" height="60" as="geometry" />
        </mxCell>
        <mxCell id="IXjAIpFJo1DjZ2CuXjz5-49" value="" style="line;strokeWidth=1;fillColor=none;align=left;verticalAlign=middle;spacingTop=-1;spacingLeft=3;spacingRight=3;rotatable=0;labelPosition=right;points=[];portConstraint=eastwest;fontSize=12;fontFamily=腾讯体;" parent="IXjAIpFJo1DjZ2CuXjz5-47" vertex="1">
          <mxGeometry y="26" width="160" height="8" as="geometry" />
        </mxCell>
        <mxCell id="IXjAIpFJo1DjZ2CuXjz5-50" value="+ DSLInflator(file: DSL)" style="text;strokeColor=none;fillColor=none;align=left;verticalAlign=top;spacingLeft=4;spacingRight=4;overflow=hidden;rotatable=0;points=[[0,0.5],[1,0.5]];portConstraint=eastwest;fontSize=12;fontFamily=腾讯体;" parent="IXjAIpFJo1DjZ2CuXjz5-47" vertex="1">
          <mxGeometry y="34" width="160" height="26" as="geometry" />
        </mxCell>
        <mxCell id="IXjAIpFJo1DjZ2CuXjz5-52" value="XMLInflator" style="swimlane;fontStyle=1;align=center;verticalAlign=top;childLayout=stackLayout;horizontal=1;startSize=26;horizontalStack=0;resizeParent=1;resizeParentMax=0;resizeLast=0;collapsible=1;marginBottom=0;fontSize=12;fontFamily=腾讯体;" parent="1" vertex="1">
          <mxGeometry x="1030" y="874" width="160" height="60" as="geometry" />
        </mxCell>
        <mxCell id="IXjAIpFJo1DjZ2CuXjz5-53" value="" style="line;strokeWidth=1;fillColor=none;align=left;verticalAlign=middle;spacingTop=-1;spacingLeft=3;spacingRight=3;rotatable=0;labelPosition=right;points=[];portConstraint=eastwest;fontSize=12;fontFamily=腾讯体;" parent="IXjAIpFJo1DjZ2CuXjz5-52" vertex="1">
          <mxGeometry y="26" width="160" height="8" as="geometry" />
        </mxCell>
        <mxCell id="IXjAIpFJo1DjZ2CuXjz5-54" value="+ XMLInflator(layoutId: int)" style="text;strokeColor=none;fillColor=none;align=left;verticalAlign=top;spacingLeft=4;spacingRight=4;overflow=hidden;rotatable=0;points=[[0,0.5],[1,0.5]];portConstraint=eastwest;fontSize=12;fontFamily=腾讯体;" parent="IXjAIpFJo1DjZ2CuXjz5-52" vertex="1">
          <mxGeometry y="34" width="160" height="26" as="geometry" />
        </mxCell>
        <mxCell id="IXjAIpFJo1DjZ2CuXjz5-55" value="" style="endArrow=block;dashed=1;endFill=0;endSize=12;html=1;rounded=0;entryX=1;entryY=0.5;entryDx=0;entryDy=0;exitX=0;exitY=0.5;exitDx=0;exitDy=0;edgeStyle=orthogonalEdgeStyle;fontSize=12;fontFamily=腾讯体;" parent="1" source="IXjAIpFJo1DjZ2CuXjz5-47" target="IXjAIpFJo1DjZ2CuXjz5-45" edge="1">
          <mxGeometry width="160" relative="1" as="geometry">
            <mxPoint x="900" y="1070" as="sourcePoint" />
            <mxPoint x="1060" y="1070" as="targetPoint" />
            <Array as="points">
              <mxPoint x="990" y="770" />
              <mxPoint x="990" y="900" />
            </Array>
          </mxGeometry>
        </mxCell>
        <mxCell id="IXjAIpFJo1DjZ2CuXjz5-56" value="" style="endArrow=block;dashed=1;endFill=0;endSize=12;html=1;rounded=0;entryX=1;entryY=0.5;entryDx=0;entryDy=0;exitX=0.006;exitY=0.044;exitDx=0;exitDy=0;exitPerimeter=0;fontSize=12;fontFamily=腾讯体;" parent="1" source="IXjAIpFJo1DjZ2CuXjz5-53" target="IXjAIpFJo1DjZ2CuXjz5-45" edge="1">
          <mxGeometry width="160" relative="1" as="geometry">
            <mxPoint x="1040" y="780" as="sourcePoint" />
            <mxPoint x="940" y="910" as="targetPoint" />
          </mxGeometry>
        </mxCell>
        <mxCell id="IXjAIpFJo1DjZ2CuXjz5-58" value="&lt;p style=&quot;margin: 4px 0px 0px; text-align: center; font-size: 12px;&quot;&gt;&lt;i style=&quot;font-size: 12px;&quot;&gt;&amp;lt;&amp;lt;Interface&amp;gt;&amp;gt;&lt;/i&gt;&lt;br style=&quot;font-size: 12px;&quot;&gt;&lt;b style=&quot;font-size: 12px;&quot;&gt;EXView&lt;/b&gt;&lt;/p&gt;&lt;hr style=&quot;font-size: 12px;&quot;&gt;&lt;p style=&quot;margin: 0px 0px 0px 4px; font-size: 12px;&quot;&gt;+ getId(): int&lt;br style=&quot;font-size: 12px;&quot;&gt;&lt;/p&gt;&lt;p style=&quot;margin: 0px 0px 0px 4px; font-size: 12px;&quot;&gt;+ getZorder(): int&lt;/p&gt;&lt;p style=&quot;margin: 0px 0px 0px 4px; font-size: 12px;&quot;&gt;+ isClickable(): bool&lt;/p&gt;&lt;p style=&quot;margin: 0px 0px 0px 4px; font-size: 12px;&quot;&gt;+ isMutable(): bool&lt;/p&gt;&lt;p style=&quot;margin: 0px 0px 0px 4px; font-size: 12px;&quot;&gt;+ minLevel(): int&lt;/p&gt;&lt;p style=&quot;margin: 0px 0px 0px 4px; font-size: 12px;&quot;&gt;+ maxLevel(): int&lt;/p&gt;&lt;p style=&quot;margin: 0px 0px 0px 4px; font-size: 12px;&quot;&gt;+ bitmapUrl(): String&lt;/p&gt;&lt;p style=&quot;margin: 0px 0px 0px 4px; font-size: 12px;&quot;&gt;&lt;br&gt;&lt;/p&gt;" style="verticalAlign=top;align=left;overflow=fill;fontSize=12;fontFamily=腾讯体;html=1;" parent="1" vertex="1">
          <mxGeometry x="-1000" y="448" width="320" height="162" as="geometry" />
        </mxCell>
        <mxCell id="IXjAIpFJo1DjZ2CuXjz5-59" value="&lt;p style=&quot;margin: 4px 0px 0px; text-align: center; font-size: 12px;&quot;&gt;&lt;i style=&quot;font-size: 12px;&quot;&gt;&amp;lt;&amp;lt;Interface&amp;gt;&amp;gt;&lt;/i&gt;&lt;br style=&quot;font-size: 12px;&quot;&gt;&lt;b style=&quot;font-size: 12px;&quot;&gt;EXMutableView&lt;/b&gt;&lt;/p&gt;&lt;hr style=&quot;font-size: 12px;&quot;&gt;&lt;p style=&quot;margin: 0px 0px 0px 4px; font-size: 12px;&quot;&gt;+ setSurface(surface: Surface)&lt;/p&gt;" style="verticalAlign=top;align=left;overflow=fill;fontSize=12;fontFamily=腾讯体;html=1;" parent="1" vertex="1">
          <mxGeometry x="-1000" y="640" width="320" height="70" as="geometry" />
        </mxCell>
        <mxCell id="IXjAIpFJo1DjZ2CuXjz5-61" value="Use" style="endArrow=open;endSize=12;dashed=1;html=1;rounded=0;exitX=1;exitY=0.5;exitDx=0;exitDy=0;entryX=0.25;entryY=0;entryDx=0;entryDy=0;edgeStyle=orthogonalEdgeStyle;fontSize=12;fontFamily=腾讯体;" parent="1" source="IXjAIpFJo1DjZ2CuXjz5-58" target="IXjAIpFJo1DjZ2CuXjz5-37" edge="1">
          <mxGeometry width="160" relative="1" as="geometry">
            <mxPoint x="-70" y="395" as="sourcePoint" />
            <mxPoint x="-179.99999999999955" y="395" as="targetPoint" />
          </mxGeometry>
        </mxCell>
        <mxCell id="IXjAIpFJo1DjZ2CuXjz5-63" value="Use" style="endArrow=open;endSize=12;dashed=1;html=1;rounded=0;exitX=1;exitY=0.5;exitDx=0;exitDy=0;edgeStyle=orthogonalEdgeStyle;entryX=0.25;entryY=0;entryDx=0;entryDy=0;fontSize=12;fontFamily=腾讯体;" parent="1" source="IXjAIpFJo1DjZ2CuXjz5-59" target="IXjAIpFJo1DjZ2CuXjz5-37" edge="1">
          <mxGeometry x="-0.2064" width="160" relative="1" as="geometry">
            <mxPoint x="-669.9999999999995" y="550" as="sourcePoint" />
            <mxPoint x="-520" y="770" as="targetPoint" />
            <Array as="points">
              <mxPoint x="-680" y="660" />
              <mxPoint x="-523" y="660" />
            </Array>
            <mxPoint as="offset" />
          </mxGeometry>
        </mxCell>
        <mxCell id="IXjAIpFJo1DjZ2CuXjz5-70" value="&lt;p style=&quot;margin: 4px 0px 0px; text-align: center; font-size: 12px;&quot;&gt;&lt;b style=&quot;font-size: 12px;&quot;&gt;View&lt;/b&gt;&lt;/p&gt;&lt;hr style=&quot;font-size: 12px;&quot;&gt;&lt;p style=&quot;margin: 0px 0px 0px 4px; font-size: 12px;&quot;&gt;+ measure()&lt;/p&gt;&lt;p style=&quot;margin: 0px 0px 0px 4px; font-size: 12px;&quot;&gt;+ layout()&lt;/p&gt;&lt;p style=&quot;margin: 0px 0px 0px 4px; font-size: 12px;&quot;&gt;+ draw(surface: Surface)&lt;/p&gt;" style="verticalAlign=top;align=left;overflow=fill;fontSize=12;fontFamily=腾讯体;html=1;" parent="1" vertex="1">
          <mxGeometry x="-1370" y="280" width="220" height="90" as="geometry" />
        </mxCell>
        <mxCell id="IXjAIpFJo1DjZ2CuXjz5-71" value="&lt;p style=&quot;margin: 4px 0px 0px; text-align: center; font-size: 12px;&quot;&gt;&lt;b style=&quot;font-size: 12px;&quot;&gt;EXxxxView&lt;/b&gt;&lt;/p&gt;&lt;hr style=&quot;font-size: 12px;&quot;&gt;&lt;p style=&quot;margin: 0px 0px 0px 4px; font-size: 12px;&quot;&gt;&lt;br style=&quot;font-size: 12px;&quot;&gt;&lt;/p&gt;" style="verticalAlign=top;align=left;overflow=fill;fontSize=12;fontFamily=腾讯体;html=1;" parent="1" vertex="1">
          <mxGeometry x="-1370" y="473" width="220" height="90" as="geometry" />
        </mxCell>
        <mxCell id="IXjAIpFJo1DjZ2CuXjz5-72" value="Extends" style="endArrow=block;endSize=16;endFill=0;html=1;rounded=0;entryX=0.5;entryY=1;entryDx=0;entryDy=0;exitX=0.5;exitY=0;exitDx=0;exitDy=0;fontSize=12;fontFamily=腾讯体;" parent="1" source="IXjAIpFJo1DjZ2CuXjz5-71" target="IXjAIpFJo1DjZ2CuXjz5-70" edge="1">
          <mxGeometry width="160" relative="1" as="geometry">
            <mxPoint x="-403" y="780" as="sourcePoint" />
            <mxPoint x="-403" y="470" as="targetPoint" />
          </mxGeometry>
        </mxCell>
        <mxCell id="IXjAIpFJo1DjZ2CuXjz5-73" value="&lt;p style=&quot;margin: 4px 0px 0px; text-align: center; font-size: 12px;&quot;&gt;&lt;b style=&quot;font-size: 12px;&quot;&gt;EXMutablexxxView&lt;/b&gt;&lt;/p&gt;&lt;hr style=&quot;font-size: 12px;&quot;&gt;&lt;p style=&quot;margin: 0px 0px 0px 4px; font-size: 12px;&quot;&gt;&lt;br style=&quot;font-size: 12px;&quot;&gt;&lt;/p&gt;" style="verticalAlign=top;align=left;overflow=fill;fontSize=12;fontFamily=腾讯体;html=1;" parent="1" vertex="1">
          <mxGeometry x="-1370" y="645" width="220" height="90" as="geometry" />
        </mxCell>
        <mxCell id="IXjAIpFJo1DjZ2CuXjz5-74" value="Extends" style="endArrow=block;endSize=16;endFill=0;html=1;rounded=0;exitX=0.5;exitY=0;exitDx=0;exitDy=0;entryX=0.5;entryY=1;entryDx=0;entryDy=0;fontSize=12;fontFamily=腾讯体;" parent="1" source="IXjAIpFJo1DjZ2CuXjz5-73" target="IXjAIpFJo1DjZ2CuXjz5-71" edge="1">
          <mxGeometry width="160" relative="1" as="geometry">
            <mxPoint x="-403" y="930" as="sourcePoint" />
            <mxPoint x="-1260" y="590" as="targetPoint" />
          </mxGeometry>
        </mxCell>
        <mxCell id="IXjAIpFJo1DjZ2CuXjz5-75" value="" style="endArrow=block;dashed=1;endFill=0;endSize=12;html=1;rounded=0;entryX=0.003;entryY=0.574;entryDx=0;entryDy=0;exitX=1;exitY=0.75;exitDx=0;exitDy=0;fontSize=12;fontFamily=腾讯体;entryPerimeter=0;" parent="1" source="IXjAIpFJo1DjZ2CuXjz5-71" target="IXjAIpFJo1DjZ2CuXjz5-58" edge="1">
          <mxGeometry width="160" relative="1" as="geometry">
            <mxPoint x="-1160" y="500" as="sourcePoint" />
            <mxPoint x="-1000" y="500" as="targetPoint" />
          </mxGeometry>
        </mxCell>
        <mxCell id="IXjAIpFJo1DjZ2CuXjz5-76" value="" style="endArrow=block;dashed=1;endFill=0;endSize=12;html=1;rounded=0;entryX=0;entryY=0.5;entryDx=0;entryDy=0;exitX=1;exitY=0.75;exitDx=0;exitDy=0;fontSize=12;fontFamily=腾讯体;" parent="1" edge="1">
          <mxGeometry width="160" relative="1" as="geometry">
            <mxPoint x="-1150" y="690" as="sourcePoint" />
            <mxPoint x="-1000" y="689.5" as="targetPoint" />
          </mxGeometry>
        </mxCell>
        <mxCell id="IXjAIpFJo1DjZ2CuXjz5-77" value="" style="line;strokeWidth=1;fillColor=none;align=left;verticalAlign=middle;spacingTop=-1;spacingLeft=3;spacingRight=3;rotatable=0;labelPosition=right;points=[];portConstraint=eastwest;" parent="1" vertex="1">
          <mxGeometry x="-1520" y="1110" width="3110" height="8" as="geometry" />
        </mxCell>
        <mxCell id="IXjAIpFJo1DjZ2CuXjz5-78" value="JAVA / OC" style="text;html=1;align=center;verticalAlign=middle;resizable=0;points=[];autosize=1;strokeColor=none;fillColor=none;fontSize=35;" parent="1" vertex="1">
          <mxGeometry x="1220" y="990" width="190" height="60" as="geometry" />
        </mxCell>
        <mxCell id="IXjAIpFJo1DjZ2CuXjz5-79" value="C++" style="text;html=1;align=center;verticalAlign=middle;resizable=0;points=[];autosize=1;strokeColor=none;fillColor=none;fontSize=35;" parent="1" vertex="1">
          <mxGeometry x="1270" y="1169" width="90" height="60" as="geometry" />
        </mxCell>
        <mxCell id="IXjAIpFJo1DjZ2CuXjz5-81" value="&lt;p style=&quot;margin: 4px 0px 0px; text-align: center; font-size: 12px;&quot;&gt;&lt;b style=&quot;font-size: 12px;&quot;&gt;BaseOverlay&lt;/b&gt;&lt;/p&gt;&lt;hr style=&quot;font-size: 12px;&quot;&gt;&lt;p style=&quot;margin: 0px 0px 0px 4px; font-size: 12px;&quot;&gt;&lt;br&gt;&lt;/p&gt;" style="verticalAlign=top;align=left;overflow=fill;fontSize=12;fontFamily=腾讯体;html=1;" parent="1" vertex="1">
          <mxGeometry x="90" y="1520" width="220" height="90" as="geometry" />
        </mxCell>
        <mxCell id="IXjAIpFJo1DjZ2CuXjz5-82" value="&lt;p style=&quot;margin: 4px 0px 0px; text-align: center; font-size: 12px;&quot;&gt;&lt;b style=&quot;font-size: 12px;&quot;&gt;AndroidOverlay&lt;/b&gt;&lt;/p&gt;&lt;hr style=&quot;font-size: 12px;&quot;&gt;&lt;p style=&quot;margin: 0px 0px 0px 4px; font-size: 12px;&quot;&gt;&lt;br&gt;&lt;/p&gt;" style="verticalAlign=top;align=left;overflow=fill;fontSize=12;fontFamily=腾讯体;html=1;" parent="1" vertex="1">
          <mxGeometry x="-60" y="1250" width="220" height="90" as="geometry" />
        </mxCell>
        <mxCell id="IXjAIpFJo1DjZ2CuXjz5-83" value="&lt;p style=&quot;margin: 4px 0px 0px; text-align: center; font-size: 12px;&quot;&gt;&lt;b style=&quot;font-size: 12px;&quot;&gt;IOsOverlay&lt;/b&gt;&lt;/p&gt;&lt;hr style=&quot;font-size: 12px;&quot;&gt;&lt;p style=&quot;margin: 0px 0px 0px 4px; font-size: 12px;&quot;&gt;&lt;br&gt;&lt;/p&gt;" style="verticalAlign=top;align=left;overflow=fill;fontSize=12;fontFamily=腾讯体;html=1;" parent="1" vertex="1">
          <mxGeometry x="240" y="1250" width="220" height="90" as="geometry" />
        </mxCell>
        <mxCell id="IXjAIpFJo1DjZ2CuXjz5-84" value="Extends" style="endArrow=block;endSize=16;endFill=0;html=1;rounded=0;fontFamily=腾讯体;fontSize=12;exitX=0.5;exitY=1;exitDx=0;exitDy=0;entryX=0.5;entryY=0;entryDx=0;entryDy=0;edgeStyle=orthogonalEdgeStyle;" parent="1" source="IXjAIpFJo1DjZ2CuXjz5-82" target="IXjAIpFJo1DjZ2CuXjz5-81" edge="1">
          <mxGeometry width="160" relative="1" as="geometry">
            <mxPoint x="70" y="1390" as="sourcePoint" />
            <mxPoint x="230" y="1390" as="targetPoint" />
          </mxGeometry>
        </mxCell>
        <mxCell id="IXjAIpFJo1DjZ2CuXjz5-85" value="Extends" style="endArrow=block;endSize=16;endFill=0;html=1;rounded=0;fontFamily=腾讯体;fontSize=12;exitX=0.5;exitY=1;exitDx=0;exitDy=0;edgeStyle=orthogonalEdgeStyle;" parent="1" source="IXjAIpFJo1DjZ2CuXjz5-83" edge="1">
          <mxGeometry width="160" relative="1" as="geometry">
            <mxPoint x="60" y="1350" as="sourcePoint" />
            <mxPoint x="200" y="1520" as="targetPoint" />
          </mxGeometry>
        </mxCell>
        <mxCell id="IXjAIpFJo1DjZ2CuXjz5-86" value="&lt;p style=&quot;margin: 4px 0px 0px; text-align: center; font-size: 12px;&quot;&gt;&lt;b style=&quot;font-size: 12px;&quot;&gt;BaseCanvas&lt;/b&gt;&lt;/p&gt;&lt;hr style=&quot;font-size: 12px;&quot;&gt;&lt;p style=&quot;margin: 0px 0px 0px 4px; font-size: 12px;&quot;&gt;&lt;br&gt;&lt;/p&gt;" style="verticalAlign=top;align=left;overflow=fill;fontSize=12;fontFamily=腾讯体;html=1;" parent="1" vertex="1">
          <mxGeometry x="-260" y="1520" width="220" height="90" as="geometry" />
        </mxCell>
        <mxCell id="IXjAIpFJo1DjZ2CuXjz5-87" value="Use" style="endArrow=open;endSize=12;dashed=1;html=1;rounded=0;exitX=0;exitY=0.75;exitDx=0;exitDy=0;fontSize=12;fontFamily=腾讯体;entryX=1;entryY=0.75;entryDx=0;entryDy=0;" parent="1" edge="1">
          <mxGeometry width="160" relative="1" as="geometry">
            <mxPoint x="90" y="1564.5" as="sourcePoint" />
            <mxPoint x="-40" y="1564.5" as="targetPoint" />
          </mxGeometry>
        </mxCell>
        <mxCell id="IXjAIpFJo1DjZ2CuXjz5-88" value="&lt;p style=&quot;margin: 4px 0px 0px; text-align: center; font-size: 12px;&quot;&gt;&lt;b style=&quot;font-size: 12px;&quot;&gt;ViewCanvas&lt;/b&gt;&lt;/p&gt;&lt;hr style=&quot;font-size: 12px;&quot;&gt;&lt;p style=&quot;margin: 0px 0px 0px 4px; font-size: 12px;&quot;&gt;&lt;br&gt;&lt;/p&gt;" style="verticalAlign=top;align=left;overflow=fill;fontSize=12;fontFamily=腾讯体;html=1;" parent="1" vertex="1">
          <mxGeometry x="-600" y="1520" width="220" height="90" as="geometry" />
        </mxCell>
        <mxCell id="IXjAIpFJo1DjZ2CuXjz5-89" value="&lt;p style=&quot;margin: 4px 0px 0px; text-align: center; font-size: 12px;&quot;&gt;&lt;b style=&quot;font-size: 12px;&quot;&gt;AndroidViewCanvas&lt;/b&gt;&lt;/p&gt;&lt;hr style=&quot;font-size: 12px;&quot;&gt;&lt;p style=&quot;margin: 0px 0px 0px 4px; font-size: 12px;&quot;&gt;&lt;br&gt;&lt;/p&gt;" style="verticalAlign=top;align=left;overflow=fill;fontSize=12;fontFamily=腾讯体;html=1;" parent="1" vertex="1">
          <mxGeometry x="-760" y="1250" width="220" height="90" as="geometry" />
        </mxCell>
        <mxCell id="IXjAIpFJo1DjZ2CuXjz5-90" value="&lt;p style=&quot;margin: 4px 0px 0px; text-align: center; font-size: 12px;&quot;&gt;&lt;b style=&quot;font-size: 12px;&quot;&gt;IOsCanvas&lt;/b&gt;&lt;/p&gt;&lt;hr style=&quot;font-size: 12px;&quot;&gt;&lt;p style=&quot;margin: 0px 0px 0px 4px; font-size: 12px;&quot;&gt;&lt;br&gt;&lt;/p&gt;" style="verticalAlign=top;align=left;overflow=fill;fontSize=12;fontFamily=腾讯体;html=1;" parent="1" vertex="1">
          <mxGeometry x="-440" y="1250" width="220" height="90" as="geometry" />
        </mxCell>
        <mxCell id="IXjAIpFJo1DjZ2CuXjz5-91" value="" style="endArrow=block;endSize=16;endFill=0;html=1;rounded=0;fontFamily=腾讯体;fontSize=12;entryX=0;entryY=0.5;entryDx=0;entryDy=0;exitX=1;exitY=0.5;exitDx=0;exitDy=0;" parent="1" source="IXjAIpFJo1DjZ2CuXjz5-88" target="IXjAIpFJo1DjZ2CuXjz5-86" edge="1">
          <mxGeometry width="160" relative="1" as="geometry">
            <mxPoint x="-420" y="1720" as="sourcePoint" />
            <mxPoint x="-260" y="1720" as="targetPoint" />
          </mxGeometry>
        </mxCell>
        <mxCell id="IXjAIpFJo1DjZ2CuXjz5-93" value="Extends" style="endArrow=block;endSize=16;endFill=0;html=1;rounded=0;fontFamily=腾讯体;fontSize=12;exitX=0.5;exitY=1;exitDx=0;exitDy=0;edgeStyle=orthogonalEdgeStyle;" parent="1" source="IXjAIpFJo1DjZ2CuXjz5-89" target="IXjAIpFJo1DjZ2CuXjz5-88" edge="1">
          <mxGeometry width="160" relative="1" as="geometry">
            <mxPoint x="60" y="1350" as="sourcePoint" />
            <mxPoint x="210" y="1530" as="targetPoint" />
          </mxGeometry>
        </mxCell>
        <mxCell id="IXjAIpFJo1DjZ2CuXjz5-94" value="Extends" style="endArrow=block;endSize=16;endFill=0;html=1;rounded=0;fontFamily=腾讯体;fontSize=12;exitX=0.5;exitY=1;exitDx=0;exitDy=0;edgeStyle=orthogonalEdgeStyle;entryX=0.5;entryY=0;entryDx=0;entryDy=0;" parent="1" source="IXjAIpFJo1DjZ2CuXjz5-90" target="IXjAIpFJo1DjZ2CuXjz5-88" edge="1">
          <mxGeometry width="160" relative="1" as="geometry">
            <mxPoint x="360" y="1350" as="sourcePoint" />
            <mxPoint x="210" y="1530" as="targetPoint" />
          </mxGeometry>
        </mxCell>
        <mxCell id="IXjAIpFJo1DjZ2CuXjz5-95" value="&lt;p style=&quot;margin: 4px 0px 0px; text-align: center; font-size: 12px;&quot;&gt;&lt;b style=&quot;font-size: 12px;&quot;&gt;HeatMapCanvas&lt;/b&gt;&lt;/p&gt;&lt;hr style=&quot;font-size: 12px;&quot;&gt;&lt;p style=&quot;margin: 0px 0px 0px 4px; font-size: 12px;&quot;&gt;&lt;br&gt;&lt;/p&gt;" style="verticalAlign=top;align=left;overflow=fill;fontSize=12;fontFamily=腾讯体;html=1;" parent="1" vertex="1">
          <mxGeometry x="-600" y="1709" width="220" height="90" as="geometry" />
        </mxCell>
        <mxCell id="IXjAIpFJo1DjZ2CuXjz5-97" value="Extends" style="endArrow=block;endSize=16;endFill=0;html=1;rounded=0;fontFamily=腾讯体;fontSize=12;exitX=1;exitY=0.5;exitDx=0;exitDy=0;edgeStyle=orthogonalEdgeStyle;entryX=0;entryY=0.5;entryDx=0;entryDy=0;" parent="1" source="IXjAIpFJo1DjZ2CuXjz5-95" target="IXjAIpFJo1DjZ2CuXjz5-86" edge="1">
          <mxGeometry x="0.6117" width="160" relative="1" as="geometry">
            <mxPoint x="-319.99999999999955" y="1350" as="sourcePoint" />
            <mxPoint x="-479.99999999999955" y="1530" as="targetPoint" />
            <mxPoint as="offset" />
          </mxGeometry>
        </mxCell>
        <mxCell id="IXjAIpFJo1DjZ2CuXjz5-98" value="&lt;p style=&quot;margin: 4px 0px 0px; text-align: center; font-size: 12px;&quot;&gt;&lt;b&gt;RenderObj&lt;/b&gt;&lt;/p&gt;&lt;hr style=&quot;font-size: 12px;&quot;&gt;&lt;p style=&quot;margin: 0px 0px 0px 4px; font-size: 12px;&quot;&gt;&lt;br&gt;&lt;/p&gt;" style="verticalAlign=top;align=left;overflow=fill;fontSize=12;fontFamily=腾讯体;html=1;" parent="1" vertex="1">
          <mxGeometry x="-260" y="1754" width="220" height="90" as="geometry" />
        </mxCell>
        <mxCell id="IXjAIpFJo1DjZ2CuXjz5-99" value="Use" style="endArrow=open;endSize=12;dashed=1;html=1;rounded=0;exitX=0.5;exitY=0;exitDx=0;exitDy=0;fontSize=12;fontFamily=腾讯体;entryX=0.5;entryY=1;entryDx=0;entryDy=0;" parent="1" source="IXjAIpFJo1DjZ2CuXjz5-98" target="IXjAIpFJo1DjZ2CuXjz5-86" edge="1">
          <mxGeometry width="160" relative="1" as="geometry">
            <mxPoint x="100" y="1574.4999999999995" as="sourcePoint" />
            <mxPoint x="-30" y="1574.4999999999995" as="targetPoint" />
          </mxGeometry>
        </mxCell>
      </root>
    </mxGraphModel>
  </diagram>
  <diagram id="gx6u9wMVINeyh84m6iT_" name="架构">
    <mxGraphModel dx="2893" dy="1075" grid="1" gridSize="10" guides="1" tooltips="1" connect="1" arrows="1" fold="1" page="1" pageScale="1" pageWidth="827" pageHeight="1169" background="#ffffff" math="0" shadow="0">
      <root>
        <mxCell id="0" />
        <mxCell id="1" parent="0" />
        <mxCell id="7ndrVPY4GGzwv5ygRpOY-1" value="" style="rounded=1;whiteSpace=wrap;html=1;fontFamily=腾讯体;fontSize=12;arcSize=7;fillStyle=hatch;gradientColor=none;fillColor=default;" parent="1" vertex="1">
          <mxGeometry x="500" y="370" width="310" height="480" as="geometry" />
        </mxCell>
        <mxCell id="7ndrVPY4GGzwv5ygRpOY-2" value="C++" style="rounded=0;whiteSpace=wrap;html=1;fillStyle=solid;fontFamily=腾讯体;fontSize=12;fillColor=#dae8fc;strokeColor=#6c8ebf;" parent="1" vertex="1">
          <mxGeometry x="520" y="590" width="270" height="240" as="geometry" />
        </mxCell>
        <mxCell id="7ndrVPY4GGzwv5ygRpOY-3" value="底图SDK" style="text;html=1;strokeColor=none;fillColor=none;align=center;verticalAlign=middle;whiteSpace=wrap;rounded=0;fillStyle=hatch;fontFamily=腾讯体;fontSize=12;fontStyle=1" parent="1" vertex="1">
          <mxGeometry x="520" y="380" width="60" height="30" as="geometry" />
        </mxCell>
        <mxCell id="7ndrVPY4GGzwv5ygRpOY-4" value="CustomOverlay" style="rounded=0;whiteSpace=wrap;html=1;fillStyle=solid;fontFamily=腾讯体;fontSize=12;fillColor=#f5f5f5;fontColor=#333333;strokeColor=#666666;" parent="1" vertex="1">
          <mxGeometry x="530" y="610" width="120" height="60" as="geometry" />
        </mxCell>
        <mxCell id="7ndrVPY4GGzwv5ygRpOY-5" value="JAVA / OC&lt;br&gt;底图实例生命周期" style="rounded=0;whiteSpace=wrap;html=1;fillStyle=solid;fontFamily=腾讯体;fontSize=12;fillColor=#d5e8d4;strokeColor=#82b366;" parent="1" vertex="1">
          <mxGeometry x="520" y="430" width="270" height="140" as="geometry" />
        </mxCell>
        <mxCell id="7ndrVPY4GGzwv5ygRpOY-7" value="" style="rounded=1;whiteSpace=wrap;html=1;fontFamily=腾讯体;fontSize=12;arcSize=7;fillStyle=hatch;gradientColor=none;fillColor=default;" parent="1" vertex="1">
          <mxGeometry x="-140" y="370" width="610" height="480" as="geometry" />
        </mxCell>
        <mxCell id="7ndrVPY4GGzwv5ygRpOY-8" value="" style="rounded=0;whiteSpace=wrap;html=1;fillStyle=solid;fontFamily=腾讯体;fontSize=12;fillColor=#dae8fc;strokeColor=#6c8ebf;" parent="1" vertex="1">
          <mxGeometry x="-120" y="650" width="570" height="180" as="geometry" />
        </mxCell>
        <mxCell id="7ndrVPY4GGzwv5ygRpOY-9" value="Extraordinary Map" style="text;html=1;strokeColor=none;fillColor=none;align=center;verticalAlign=middle;whiteSpace=wrap;rounded=0;fillStyle=hatch;fontFamily=腾讯体;fontSize=12;fontStyle=1" parent="1" vertex="1">
          <mxGeometry x="-110" y="380" width="60" height="30" as="geometry" />
        </mxCell>
        <mxCell id="7ndrVPY4GGzwv5ygRpOY-10" value="BaseOverlay" style="rounded=0;whiteSpace=wrap;html=1;fillStyle=solid;fontFamily=腾讯体;fontSize=12;fillColor=#f5f5f5;fontColor=#333333;strokeColor=#666666;horizontal=0;" parent="1" vertex="1">
          <mxGeometry x="305" y="660" width="60" height="160" as="geometry" />
        </mxCell>
        <mxCell id="7ndrVPY4GGzwv5ygRpOY-11" value="" style="rounded=0;whiteSpace=wrap;html=1;fillStyle=solid;fontFamily=腾讯体;fontSize=12;fillColor=#d5e8d4;strokeColor=#82b366;" parent="1" vertex="1">
          <mxGeometry x="-120" y="430" width="570" height="200" as="geometry" />
        </mxCell>
        <mxCell id="7ndrVPY4GGzwv5ygRpOY-12" value="MapObserver" style="rounded=0;whiteSpace=wrap;html=1;fillStyle=solid;fontFamily=腾讯体;fontSize=12;fillColor=#f5f5f5;fontColor=#333333;strokeColor=#666666;horizontal=0;" parent="1" vertex="1">
          <mxGeometry x="380" y="660" width="60" height="160" as="geometry" />
        </mxCell>
        <mxCell id="7ndrVPY4GGzwv5ygRpOY-13" value="Canvas" style="rounded=0;whiteSpace=wrap;html=1;fillStyle=solid;fontFamily=腾讯体;fontSize=12;fillColor=#f5f5f5;fontColor=#333333;strokeColor=#666666;" parent="1" vertex="1">
          <mxGeometry x="-110" y="660" width="400" height="60" as="geometry" />
        </mxCell>
        <mxCell id="7ndrVPY4GGzwv5ygRpOY-14" value="RenderObj" style="rounded=0;whiteSpace=wrap;html=1;fillStyle=solid;fontFamily=腾讯体;fontSize=12;fillColor=#f5f5f5;fontColor=#333333;strokeColor=#666666;" parent="1" vertex="1">
          <mxGeometry x="-110" y="740" width="190" height="80" as="geometry" />
        </mxCell>
        <mxCell id="7ndrVPY4GGzwv5ygRpOY-15" value="Filament" style="rounded=0;whiteSpace=wrap;html=1;fillStyle=solid;fontFamily=腾讯体;fontSize=12;fillColor=#f5f5f5;fontColor=#333333;strokeColor=#666666;" parent="1" vertex="1">
          <mxGeometry x="100" y="740" width="190" height="80" as="geometry" />
        </mxCell>
        <mxCell id="RnbSmpez47dMAuieBx4B-8" value="OverlayManager" style="rounded=0;whiteSpace=wrap;html=1;fillStyle=solid;fontFamily=腾讯体;fontSize=12;fillColor=#f5f5f5;fontColor=#333333;strokeColor=#666666;horizontal=0;" parent="1" vertex="1">
          <mxGeometry x="380" y="450" width="60" height="160" as="geometry" />
        </mxCell>
        <mxCell id="RnbSmpez47dMAuieBx4B-19" value="" style="group" parent="1" vertex="1" connectable="0">
          <mxGeometry x="-110" y="435" width="310" height="190" as="geometry" />
        </mxCell>
        <mxCell id="RnbSmpez47dMAuieBx4B-17" value="" style="rounded=0;whiteSpace=wrap;html=1;fillStyle=solid;fontFamily=腾讯体;fontSize=12;fillColor=none;gradientColor=none;" parent="RnbSmpez47dMAuieBx4B-19" vertex="1">
          <mxGeometry width="310" height="190" as="geometry" />
        </mxCell>
        <mxCell id="RnbSmpez47dMAuieBx4B-9" value="View" style="rounded=0;whiteSpace=wrap;html=1;fillStyle=solid;fontFamily=腾讯体;fontSize=12;fillColor=#f5f5f5;fontColor=#333333;strokeColor=#666666;" parent="RnbSmpez47dMAuieBx4B-19" vertex="1">
          <mxGeometry x="175" y="70" width="115" height="40" as="geometry" />
        </mxCell>
        <mxCell id="RnbSmpez47dMAuieBx4B-11" value="" style="rounded=0;whiteSpace=wrap;html=1;fillStyle=solid;fontFamily=腾讯体;fontSize=12;fillColor=none;gradientColor=none;" parent="RnbSmpez47dMAuieBx4B-19" vertex="1">
          <mxGeometry x="164.5" y="30" width="136" height="150" as="geometry" />
        </mxCell>
        <mxCell id="RnbSmpez47dMAuieBx4B-10" value="PAG/Movie" style="rounded=0;whiteSpace=wrap;html=1;fillStyle=solid;fontFamily=腾讯体;fontSize=12;fillColor=#f5f5f5;fontColor=#333333;strokeColor=#666666;" parent="RnbSmpez47dMAuieBx4B-19" vertex="1">
          <mxGeometry x="175" y="130" width="115" height="40" as="geometry" />
        </mxCell>
        <mxCell id="RnbSmpez47dMAuieBx4B-12" value="控件" style="text;html=1;strokeColor=none;fillColor=none;align=left;verticalAlign=middle;whiteSpace=wrap;rounded=0;fillStyle=hatch;fontFamily=腾讯体;fontSize=12;fontStyle=1" parent="RnbSmpez47dMAuieBx4B-19" vertex="1">
          <mxGeometry x="175" y="30" width="60" height="30" as="geometry" />
        </mxCell>
        <mxCell id="RnbSmpez47dMAuieBx4B-14" value="" style="rounded=0;whiteSpace=wrap;html=1;fillStyle=solid;fontFamily=腾讯体;fontSize=12;fillColor=none;gradientColor=none;" parent="RnbSmpez47dMAuieBx4B-19" vertex="1">
          <mxGeometry x="12" y="30" width="136" height="150" as="geometry" />
        </mxCell>
        <mxCell id="RnbSmpez47dMAuieBx4B-13" value="Inflator" style="rounded=0;whiteSpace=wrap;html=1;fillStyle=solid;fontFamily=腾讯体;fontSize=12;fillColor=#f5f5f5;fontColor=#333333;strokeColor=#666666;" parent="RnbSmpez47dMAuieBx4B-19" vertex="1">
          <mxGeometry x="22.5" y="70" width="115" height="40" as="geometry" />
        </mxCell>
        <mxCell id="RnbSmpez47dMAuieBx4B-15" value="VectorLayout" style="rounded=0;whiteSpace=wrap;html=1;fillStyle=solid;fontFamily=腾讯体;fontSize=12;fillColor=#f5f5f5;fontColor=#333333;strokeColor=#666666;" parent="RnbSmpez47dMAuieBx4B-19" vertex="1">
          <mxGeometry x="22.5" y="130" width="115" height="40" as="geometry" />
        </mxCell>
        <mxCell id="RnbSmpez47dMAuieBx4B-16" value="布局解析" style="text;html=1;strokeColor=none;fillColor=none;align=left;verticalAlign=middle;whiteSpace=wrap;rounded=0;fillStyle=hatch;fontFamily=腾讯体;fontSize=12;fontStyle=1" parent="RnbSmpez47dMAuieBx4B-19" vertex="1">
          <mxGeometry x="22.5" y="30" width="60" height="30" as="geometry" />
        </mxCell>
        <mxCell id="RnbSmpez47dMAuieBx4B-18" value="自定义Marker" style="text;html=1;strokeColor=none;fillColor=none;align=left;verticalAlign=middle;whiteSpace=wrap;rounded=0;fillStyle=hatch;fontFamily=腾讯体;fontSize=12;fontStyle=1" parent="RnbSmpez47dMAuieBx4B-19" vertex="1">
          <mxGeometry x="12" width="88" height="30" as="geometry" />
        </mxCell>
        <mxCell id="RnbSmpez47dMAuieBx4B-25" value="" style="group" parent="1" vertex="1" connectable="0">
          <mxGeometry x="215" y="435" width="150" height="190" as="geometry" />
        </mxCell>
        <mxCell id="RnbSmpez47dMAuieBx4B-21" value="" style="rounded=0;whiteSpace=wrap;html=1;fillStyle=solid;fontFamily=腾讯体;fontSize=12;fillColor=none;gradientColor=none;" parent="RnbSmpez47dMAuieBx4B-25" vertex="1">
          <mxGeometry width="150" height="190" as="geometry" />
        </mxCell>
        <mxCell id="RnbSmpez47dMAuieBx4B-22" value="热力图" style="rounded=0;whiteSpace=wrap;html=1;fillStyle=solid;fontFamily=腾讯体;fontSize=12;fillColor=#f5f5f5;fontColor=#333333;strokeColor=#666666;horizontal=0;" parent="RnbSmpez47dMAuieBx4B-25" vertex="1">
          <mxGeometry x="10" y="54.285714285714285" width="60" height="126.66666666666667" as="geometry" />
        </mxCell>
        <mxCell id="RnbSmpez47dMAuieBx4B-23" value="3D" style="rounded=0;whiteSpace=wrap;html=1;fillStyle=solid;fontFamily=腾讯体;fontSize=12;fillColor=#f5f5f5;fontColor=#333333;strokeColor=#666666;horizontal=0;" parent="RnbSmpez47dMAuieBx4B-25" vertex="1">
          <mxGeometry x="80" y="54.285714285714285" width="60" height="126.66666666666667" as="geometry" />
        </mxCell>
        <mxCell id="RnbSmpez47dMAuieBx4B-24" value="图层" style="text;html=1;strokeColor=none;fillColor=none;align=left;verticalAlign=middle;whiteSpace=wrap;rounded=0;fillStyle=hatch;fontFamily=腾讯体;fontSize=12;fontStyle=1" parent="RnbSmpez47dMAuieBx4B-25" vertex="1">
          <mxGeometry x="10" y="18.095238095238095" width="60" height="27.142857142857142" as="geometry" />
        </mxCell>
        <mxCell id="RnbSmpez47dMAuieBx4B-26" value="" style="rounded=1;whiteSpace=wrap;html=1;fontFamily=腾讯体;fontSize=12;arcSize=7;fillStyle=hatch;gradientColor=none;fillColor=none;" parent="1" vertex="1">
          <mxGeometry x="-140" y="140" width="950" height="210" as="geometry" />
        </mxCell>
        <mxCell id="RnbSmpez47dMAuieBx4B-27" value="手图APP" style="text;html=1;strokeColor=none;fillColor=none;align=left;verticalAlign=middle;whiteSpace=wrap;rounded=0;fillStyle=hatch;fontFamily=腾讯体;fontSize=12;fontStyle=1" parent="1" vertex="1">
          <mxGeometry x="-120" y="150" width="90" height="30" as="geometry" />
        </mxCell>
        <mxCell id="RnbSmpez47dMAuieBx4B-29" value="" style="rounded=0;whiteSpace=wrap;html=1;fillStyle=solid;fontFamily=腾讯体;fontSize=12;fillColor=#fff2cc;strokeColor=#d6b656;" parent="1" vertex="1">
          <mxGeometry x="-110" y="190" width="430" height="140" as="geometry" />
        </mxCell>
        <mxCell id="RnbSmpez47dMAuieBx4B-31" value="Hippy" style="text;html=1;strokeColor=none;fillColor=none;align=left;verticalAlign=middle;whiteSpace=wrap;rounded=0;fillStyle=hatch;fontFamily=腾讯体;fontSize=12;fontStyle=1" parent="1" vertex="1">
          <mxGeometry x="-100" y="190" width="90" height="30" as="geometry" />
        </mxCell>
        <mxCell id="RnbSmpez47dMAuieBx4B-32" value="Native 业务" style="rounded=0;whiteSpace=wrap;html=1;fillStyle=solid;fontFamily=腾讯体;fontSize=12;fillColor=#ffe6cc;strokeColor=#d79b00;" parent="1" vertex="1">
          <mxGeometry x="350" y="190" width="430" height="140" as="geometry" />
        </mxCell>
        <mxCell id="RnbSmpez47dMAuieBx4B-34" value="Hippy Bridge" style="rounded=0;whiteSpace=wrap;html=1;fillStyle=solid;fontFamily=腾讯体;fontSize=12;fillColor=#f5f5f5;fontColor=#333333;strokeColor=#666666;" parent="1" vertex="1">
          <mxGeometry x="-100" y="280" width="400" height="40" as="geometry" />
        </mxCell>
        <mxCell id="RnbSmpez47dMAuieBx4B-35" value="Hippy 业务" style="rounded=0;whiteSpace=wrap;html=1;fillStyle=solid;fontFamily=腾讯体;fontSize=12;fillColor=#f5f5f5;fontColor=#333333;strokeColor=#666666;" parent="1" vertex="1">
          <mxGeometry x="-100" y="230" width="400" height="40" as="geometry" />
        </mxCell>
      </root>
    </mxGraphModel>
  </diagram>
  <diagram id="2Ly_A8lNde0xjH7hNebD" name="第 4 页">
    <mxGraphModel dx="2066" dy="1075" grid="1" gridSize="10" guides="1" tooltips="1" connect="1" arrows="1" fold="1" page="1" pageScale="1" pageWidth="827" pageHeight="1169" math="0" shadow="0">
      <root>
        <mxCell id="0" />
        <mxCell id="1" parent="0" />
        <mxCell id="iktKyzlKaOveb9ZJkQEJ-1" value="样式平台" style="rounded=1;whiteSpace=wrap;html=1;" vertex="1" parent="1">
          <mxGeometry x="20" y="610" width="120" height="60" as="geometry" />
        </mxCell>
        <mxCell id="iktKyzlKaOveb9ZJkQEJ-2" value="DSL生成服务" style="rounded=1;whiteSpace=wrap;html=1;" vertex="1" parent="1">
          <mxGeometry x="20" y="700" width="120" height="60" as="geometry" />
        </mxCell>
        <mxCell id="iktKyzlKaOveb9ZJkQEJ-3" value="阿波罗配置平台" style="rounded=1;whiteSpace=wrap;html=1;" vertex="1" parent="1">
          <mxGeometry x="20" y="980" width="750" height="60" as="geometry" />
        </mxCell>
        <mxCell id="Hv0v0pFZea7j7yNAyBmQ-1" value="&lt;b style=&quot;font-size: 16px;&quot;&gt;&lt;font style=&quot;font-size: 16px;&quot;&gt;POI母库&lt;/font&gt;&lt;/b&gt;" style="shape=datastore;whiteSpace=wrap;html=1;fillColor=#f0a30a;strokeColor=#BD7000;fontColor=#ffffff;fontSize=16;" vertex="1" parent="1">
          <mxGeometry x="535" y="380" width="110" height="75" as="geometry" />
        </mxCell>
        <mxCell id="Hv0v0pFZea7j7yNAyBmQ-2" value="检索服务" style="rounded=1;whiteSpace=wrap;html=1;" vertex="1" parent="1">
          <mxGeometry x="530" y="490" width="120" height="60" as="geometry" />
        </mxCell>
        <mxCell id="Hv0v0pFZea7j7yNAyBmQ-3" value="数据转换" style="rounded=1;whiteSpace=wrap;html=1;" vertex="1" parent="1">
          <mxGeometry x="530" y="610" width="120" height="60" as="geometry" />
        </mxCell>
        <mxCell id="Hv0v0pFZea7j7yNAyBmQ-4" value="&lt;b&gt;三方数据&lt;/b&gt;" style="shape=datastore;whiteSpace=wrap;html=1;fillColor=#f0a30a;strokeColor=#BD7000;fontColor=#ffffff;fontSize=16;" vertex="1" parent="1">
          <mxGeometry x="245" y="380" width="110" height="75" as="geometry" />
        </mxCell>
        <mxCell id="Hv0v0pFZea7j7yNAyBmQ-5" value="三方服务" style="rounded=1;whiteSpace=wrap;html=1;" vertex="1" parent="1">
          <mxGeometry x="240" y="490" width="120" height="60" as="geometry" />
        </mxCell>
        <mxCell id="Hv0v0pFZea7j7yNAyBmQ-6" value="格式校验" style="rounded=1;whiteSpace=wrap;html=1;" vertex="1" parent="1">
          <mxGeometry x="240" y="610" width="120" height="60" as="geometry" />
        </mxCell>
        <mxCell id="Hv0v0pFZea7j7yNAyBmQ-7" value="UGC数据平台（文档）" style="rounded=1;whiteSpace=wrap;html=1;" vertex="1" parent="1">
          <mxGeometry x="780" y="610" width="120" height="60" as="geometry" />
        </mxCell>
        <mxCell id="Hv0v0pFZea7j7yNAyBmQ-9" style="edgeStyle=orthogonalEdgeStyle;rounded=0;orthogonalLoop=1;jettySize=auto;html=1;exitX=0.5;exitY=0;exitDx=0;exitDy=0;entryX=1;entryY=0.5;entryDx=0;entryDy=0;" edge="1" parent="1" source="Hv0v0pFZea7j7yNAyBmQ-8" target="Hv0v0pFZea7j7yNAyBmQ-1">
          <mxGeometry relative="1" as="geometry" />
        </mxCell>
        <mxCell id="Hv0v0pFZea7j7yNAyBmQ-8" value="数据清洗" style="rounded=1;whiteSpace=wrap;html=1;" vertex="1" parent="1">
          <mxGeometry x="980" y="610" width="120" height="60" as="geometry" />
        </mxCell>
        <mxCell id="Hv0v0pFZea7j7yNAyBmQ-10" value="临时数据存储" style="rounded=1;whiteSpace=wrap;html=1;" vertex="1" parent="1">
          <mxGeometry x="780" y="700" width="120" height="60" as="geometry" />
        </mxCell>
      </root>
    </mxGraphModel>
  </diagram>
</mxfile>
